<svg id="Layer_1" data-name="Layer 1" xmlns="http://www.w3.org/2000/svg" viewBox="0 0 384 391.12"><defs><style>.cls-1{fill:#aa9dcc;}.cls-2{fill:#e0e9ee;}.cls-3{fill:#fdbf37;}.cls-4{fill:#ffd086;}.cls-5{fill:#6065ae;}.cls-6{fill:#aa9dcd;}.cls-7{fill:#4bbfa8;}.cls-8{fill:#fcbf37;}.cls-9{fill:#ef62a4;}</style></defs><path class="cls-1" d="M383.74,346.51v9c-.42,9-4.17,16.44-10.8,22.56-6.42,5.9-13.79,9.23-22.59,9.23q-158.18,0-316.36,0C15.73,387.23.51,371.85.27,353.62c0-1.37,0-2.74,0-4.11.07-9.37,4.91-15.06,14.24-16.75,2.26,0,4.55.21,6.76-.57,4-.58,7.94-.24,11.9-.31,4.93-.08,5.18-.28,5.19-5.35,0-12,0-24.09,0-36.14,0-2-.3-4,.91-5.78.93-.65,1.25.11,1.65.7.7,1.8.53,3.69.53,5.55,0,12.08,0,24.16,0,36.24,0,5.26.21,5.48,5.45,5.48q46.15,0,92.29,0c2.1,0,4.25-.28,6.25.69,1.6,1.27,1.36,3.11,1.4,4.81a61.55,61.55,0,0,0,.63,10.41c1.25,6.62,5.29,10.16,12.11,10.31,4.85.11,9.7,0,14.55,0q24.44,0,48.88,0c9,0,12.62-3.21,14-12a68.11,68.11,0,0,0,.46-8.56c0-1.71-.2-3.53,1.25-4.9,2-1.07,4.13-.77,6.23-.77q44.84,0,89.67,0c1.25,0,2.49,0,3.74,0,4.07-.12,4.46-.45,4.49-4.57.07-7.47,0-14.94,0-22.42a16.15,16.15,0,0,1,.44-5.18c.43-1,1.07-1.59,2.24-1.18.86,1.51.41,3.15.41,4.74,0,7.93.07,15.86,0,23.79,0,3,1,4.25,4.12,4.19a91.67,91.67,0,0,1,12.62.19,26.33,26.33,0,0,0,4.42.65C376.82,333.21,381.51,337.1,383.74,346.51Z"/><path class="cls-2" d="M201.16,3.83c5.71,2,11.75,2.67,17.33,5.13C242.23,19.42,256.62,37.23,261,62.85a66.17,66.17,0,0,1-2.82,33.36c-1.08,3.12,0,3.42,2.75,3.42q42-.12,84.07,0c1.44,0,3-.47,4.32.59-1.69,1.83-3.94,1.26-6,1.26-26.5,0-53,.12-79.51-.06-4.41,0-7.12,1.14-9,5.32a42.65,42.65,0,0,1-9.14,13.09c-9.67,10.49-21,18.52-35,21.88-25.47,6.1-48.16.84-67.41-17.42-1.54-1.46-3.06-2.93-4.55-4.45a46.29,46.29,0,0,1-9.51-13.75c-1.71-3.63-4.11-4.66-7.92-4.64-26.75.12-53.51.07-80.26,0-2,0-4.29.57-6-1.26,1.32-1.06,2.88-.59,4.32-.59q41.85,0,83.69,0c3,0,4.14-.19,3-3.77-7-22.2-4.22-43.23,9.1-62.41C146.32,17.39,162,8.08,181.21,4.6c.74-.13,1.51,0,2-.77Z"/><path class="cls-3" d="M383.74,153.47v26.94c-1,4.55-4.39,7-8.11,9.12-1.61.93-3.29,1.75-4.93,2.64-8.86,4-18.3,5.76-27.85,6.84-20.57,2.34-41,1.85-61.24-3.18a53.64,53.64,0,0,1-11.26-4c-1.77-.91-3.57-1.75-5.28-2.78-5.41-3.25-8.53-7.67-8.17-14.34.3-5.45,0-10.93.07-16.4,0-1.6-.19-3.25.78-4.7,1-.71,1.71,0,2.22.65,5.12,6.15,12.44,8.18,19.66,10a172.76,172.76,0,0,0,55.2,4.1c11.2-.89,22.27-2.29,33-5.78,5.17-1.68,10-3.89,13.69-8C382.08,153.92,382.71,153.23,383.74,153.47Z"/><path class="cls-4" d="M383.74,153.47c-6.16,8.47-15.67,10.52-25,12.66a170.19,170.19,0,0,1-47,3.69c-15-.77-29.9-2.42-44-8.41a22.06,22.06,0,0,1-9.68-7.87c-1.82-2-.86-4,.33-5.76a18.79,18.79,0,0,1,7.37-6.16c8.8-4.5,18.34-6.29,28-7.67a200.58,200.58,0,0,1,47.29-.88c1.24.11,2.45.46,3.68.61a92.75,92.75,0,0,1,15.08,2.44,6.76,6.76,0,0,1,3.65,1.73c3.21,1.19,6.44,2.34,9.64,3.59a22.61,22.61,0,0,1,10.57,8.29Z"/><path class="cls-3" d="M383.74,205.1v26.19c-1.82,6.73-7.58,9.11-13,11.85-11.7,5.19-24.2,7.13-36.76,7.73-14.54.71-29.15.81-43.59-2.07a90.53,90.53,0,0,1-20-6,24.69,24.69,0,0,1-6.23-3.37c-4.74-3.19-7.56-7.32-7.22-13.42.31-5.59.05-11.22.08-16.83,0-1.6-.19-3.26.78-4.71a1.07,1.07,0,0,1,1.62.24c5.9,7.14,14.39,9.17,22.74,11.11,18.24,4.22,36.74,4.74,55.35,3.3a142.35,142.35,0,0,0,27.22-4.6c5.93-1.66,11.61-3.8,16.11-8.28C381.56,205.52,382.44,204.72,383.74,205.1Z"/><path class="cls-3" d="M345.58,299.54a1.48,1.48,0,0,0-1.48.5c-2.73,1.89-6,1.59-9,1.78-15.17.93-30.32.75-45.31-2.16-8-1.54-15.79-3.52-23-7.42-6.52-3.53-10.67-8.26-9.93-16.34.45-4.94.07-9.95.1-14.93,0-1.61-.17-3.26.73-4.73,1.57-1,2.23.48,3,1.22a32,32,0,0,0,11.92,6.76,131.32,131.32,0,0,0,38.51,6.39c15.18.28,30.37.37,45.31-3a91.27,91.27,0,0,0,15.07-4.25,29.15,29.15,0,0,0,9.42-5.9c.77-.76,1.44-1.79,2.8-1.47v26.19c-.57,3.88-3.36,6.11-6.23,8.21-4.23,3.08-9.16,4.72-14.05,6.4a111.92,111.92,0,0,1-14,3.22C348.12,300.25,346.77,300.54,345.58,299.54Z"/><path class="cls-4" d="M383.74,256c-7,8.49-17.09,10.43-27,12.67-16.5,3.74-33.29,3.59-50,2.89a115.23,115.23,0,0,1-37.34-7.4A25.37,25.37,0,0,1,258.1,256c-2.05-2.85-.57-5.21,1.19-7.38,2.95-3.65,7.25-5.13,11.39-6.82,10.06,4.52,20.76,6.25,31.62,7.49a186.28,186.28,0,0,0,29.77.55c13.37-.6,26.61-2.49,39-8.05a60.1,60.1,0,0,1,7,3.26c2.94,1.55,5.13,3.7,5.65,7.17Z"/><path class="cls-4" d="M383.74,205.1c-8.65,9.26-20.37,11.23-32,13.46-13.89,2.67-28,2.79-42,2.11-14.61-.71-29.18-2.42-42.74-8.71-3.66-1.69-7-3.75-8.86-7.53-2-2.37-.7-4.48.8-6.28a20.62,20.62,0,0,1,11.75-7.25c9.84,4.48,20.38,6.09,31,7.43a162.43,162.43,0,0,0,29.08.67c13.76-.74,27.43-2.43,40.24-8.11,5.36,1.77,10.46,3.88,12.71,9.72Z"/><path class="cls-2" d="M40.3,120v33.32a110.77,110.77,0,0,1,12.8-5.26A69.84,69.84,0,0,1,75,144.59c30.94.34,58,18.11,69.46,47.42,8.14,20.85,7.1,41.55-3.14,61.25-10.72,20.6-27.9,33.58-50.73,38.58-16.18,3.54-31.82,1.44-46.89-5.31-1.12-.5-2.29-.91-3.44-1.36l-.83-.68c-1.8.44-3.1-.68-4.45-1.51a74.86,74.86,0,0,1-12.44-9.7c-1.09,1.32-.64,2.73-.65,4,0,16.8,0,33.6,0,50.4,0,1.84.3,3.77-1.06,5.36-1.86,1.39-4,.48-6,.63,5.2-1.55,5.2-1.55,5.2-7.51q0-26.87,0-53.72c.36-2.28-.68-3.85-2.1-5.63C8.68,255.11,2.84,242,1.27,226.94c-2.18-21,3.62-39.39,17-55.52a8.47,8.47,0,0,0,1.83-5.86q-.06-23.16,0-46.31c0-1.33-.43-2.76.61-3.94,1.62,1.46,1.19,3.44,1.2,5.24,0,13.18,0,26.36,0,39.55a13.28,13.28,0,0,0,.29,4.32c1.79-.41,2.84-1.87,4.1-2.89,2.7-2.2,5.3-4.55,8.4-6.18,2.74-1.45,3.81-3.54,3.76-6.64q-.2-12.32,0-24.62C38.54,122.63,37.77,120.49,40.3,120Z"/><path class="cls-5" d="M145.84,333.84c1.27-.71,2.66-.51,4-.51h84.65c1.36,0,2.75-.2,4,.51-.22,5.09.11,10.17-.6,15.26-.79,5.72-5.61,10.82-11.42,10.85q-34.32.19-68.66,0c-7-.05-11.61-6.14-11.92-14.9C145.79,341.31,145.86,337.57,145.84,333.84Z"/><path class="cls-5" d="M20.84,333V270a81.89,81.89,0,0,0,18.63,14.52c0,15,0,30,.09,45.06,0,2.66-.54,3.8-3.46,3.65C31,332.94,25.92,333.07,20.84,333Z"/><path class="cls-5" d="M363.49,295.76q0,18.66.08,37.32c-5.34,0-10.69,0-16,.06-1.48,0-2.7-.07-2.69-2.09,0-9.94,0-19.87.06-29.81a4.94,4.94,0,0,1,.67-1.7A127.28,127.28,0,0,0,363.49,295.76Z"/><path class="cls-5" d="M40.3,120c-1.12,1-.55,2.34-.56,3.5-.05,9-.08,17.92,0,26.87,0,2.2-.46,3.61-2.57,4.77-5.88,3.24-11,7.59-16.47,13V115.31C22,106.73,26.42,102.06,35,100.19c29.55,0,59.1.08,88.65,0,2.92,0,4.5.76,5.61,3.49,2.41,5.94,6.43,10.91,10.22,16l-94.78.07C43.26,119.72,41.78,119.9,40.3,120Z"/><path class="cls-5" d="M344.73,134.65c-.05-3.74-.28-7.48-.08-11.21.16-2.87-.63-3.83-3.68-3.8-16.58.15-33.17.08-49.75.07l-46.38,0c4.23-5.55,8.38-11.16,11.06-17.67.92-2.25,2.74-1.73,4.4-1.74q43,0,86,0c1,0,2,0,3-.06,9.55,2.1,14.23,7.82,14.27,17.55,0,6.7-.05,13.41-.07,20.11C357.25,136.81,351.09,135.12,344.73,134.65Z"/><path class="cls-6" d="M191.81,116.11c-8.48,0-17-.08-25.43,0-2.56,0-3.48-.67-3.43-3.34.14-8.85,0-17.71.07-26.56,0-6.67,4.64-11.35,11.21-11.37q18-.08,35.91,0a10.83,10.83,0,0,1,11.2,11c.1,9.1,0,18.2.07,27.3,0,2.34-.81,3-3,3C209.52,116.06,200.66,116.11,191.81,116.11Z"/><path class="cls-5" d="M176.42,41.13A15.77,15.77,0,1,1,192.18,57,15.56,15.56,0,0,1,176.42,41.13Z"/><path class="cls-7" d="M87.83,199.33c.07-4.48.24-9,.15-13.44,0-2.28.42-3.37,3-3.3,6.47.18,13,.13,19.42,0,2.21,0,3,.55,3,2.91q-.12,33.43,0,66.88c0,2-.41,3-2.67,2.92-7.59-.16-15.18-.16-22.78-.22-1.24-1.47-1-3.26-1-5q-.06-23.07,0-46.12C87,202.41,86.85,200.76,87.83,199.33Z"/><path class="cls-8" d="M87.83,199.33q.11,21.19.21,42.38c0,4.47,0,8.93,0,13.39-8.44.32-16.88.3-25.32,0-1.25-1.3-1.15-3-1.15-4.55-.05-9.92,0-19.83,0-29.75a7.77,7.77,0,0,1,1-4.64c0-4.69.18-9.39,0-14.08-.07-2.31.74-3,3-2.91C73,199.34,80.42,199.3,87.83,199.33Z"/><path class="cls-9" d="M62.56,216.18l.15,38.94c-7.6.06-15.2.07-22.8.19-1.84,0-2.67-.42-2.65-2.48q.12-17,0-34c0-2.25.89-2.69,2.88-2.67C47.61,216.23,55.09,216.18,62.56,216.18Z"/></svg>