<svg xmlns="http://www.w3.org/2000/svg" xmlns:xlink="http://www.w3.org/1999/xlink" width="781.348" height="630.508" viewBox="0 0 781.348 630.508"><defs><style>.a{opacity:0.1;}.b{fill:#0092ff;}.c{opacity:0.547;}.d{fill:#8b8b8b;opacity:0.099;}.e{opacity:0.218;}.f{fill:url(#a);}.g{fill:#4d536e;}.h{fill:url(#b);}.i{fill:url(#c);}.j{fill:url(#d);}.k{fill:url(#e);}.l{fill:url(#f);}.m{fill:url(#g);}.n{fill:url(#h);}.o{fill:url(#i);}.p{fill:url(#j);}.q{fill:url(#k);}.r{fill:url(#l);}.s{fill:url(#m);}.t{fill:url(#q);}.u{fill:url(#r);}.v{fill:url(#s);}.w{fill:url(#t);}.x{fill:url(#u);}.y{fill:url(#v);}.z{fill:url(#w);}.aa{fill:url(#x);}.ab{fill:url(#y);}.ac{fill:url(#z);}.ad{fill:url(#aa);}.ae{opacity:0.2;}.af{fill:#2e2e2e;}.ag{fill:url(#ab);}.ah{fill:url(#ac);}.ai{fill:url(#ad);}.aj{fill:url(#ae);}.ak{fill:url(#ag);}.al{fill:url(#ai);}.am{fill:url(#ak);}.an{fill:url(#al);}.ao{fill:url(#am);}.ap{fill:url(#ao);}.aq{fill:url(#aq);}.ar{fill:url(#ar);}.as{opacity:0.099;fill:url(#bi);}.at{opacity:0.149;fill:url(#bj);}.au{opacity:0.199;fill:url(#bk);}.av{opacity:0.251;fill:url(#bl);}.aw{fill:url(#bm);}.ax{fill:#7a8098;}.ay{fill:#7e8293;}.az{fill:#707588;}.ba{fill:url(#bp);}.bb{fill:url(#bq);}.bc{fill:#101a4b;}.bd{fill:url(#br);}.be{fill:url(#bs);}.bf{fill:url(#bt);}.bg{fill:url(#bu);}.bh{fill:url(#bv);}.bi{opacity:0.06;}.bj{fill:url(#bw);}.bk{fill:url(#bx);}.bl{fill:url(#by);}.bm{fill:url(#bz);}.bn{fill:url(#ca);}.bo{fill:url(#cb);}.bp{fill:url(#cc);}.bq{fill:url(#cd);}.br{fill:#f4c3a3;}.bs{fill:url(#ce);}.bt{fill:url(#cf);}.bu{fill:url(#cg);}.bv{fill:#f2bd9e;}.bw{fill:url(#ch);}.bx{fill:url(#ci);}.by{fill:url(#cj);}.bz{opacity:0.09;}</style><radialGradient id="a" cx="-3.879" cy="-1.431" r="2.972" gradientTransform="translate(-0.641) scale(2.283 1)" gradientUnits="objectBoundingBox"><stop offset="0" stop-color="#fbffcc"/><stop offset="0.357" stop-color="#ffd4e0"/><stop offset="0.993" stop-color="#152960"/></radialGradient><radialGradient id="b" cx="-0.769" cy="-0.844" r="9.465" gradientTransform="matrix(1, 0, 0, 1, 0, 0)" xlink:href="#a"/><radialGradient id="c" cx="-0.771" cy="-0.844" r="9.465" gradientTransform="matrix(1, 0, 0, 1, 0, 0)" xlink:href="#a"/><radialGradient id="d" cx="-0.763" cy="-0.844" r="9.465" gradientTransform="matrix(1, 0, 0, 1, 0, 0)" xlink:href="#a"/><radialGradient id="e" cx="-0.769" cy="-0.843" r="9.465" gradientTransform="matrix(1, 0, 0, 1, 0, 0)" xlink:href="#a"/><radialGradient id="f" cx="-0.771" cy="-0.843" r="9.465" gradientTransform="matrix(1, 0, 0, 1, 0, 0)" xlink:href="#a"/><radialGradient id="g" cx="-0.763" cy="-0.843" r="9.465" gradientTransform="matrix(1, 0, 0, 1, 0, 0)" xlink:href="#a"/><radialGradient id="h" cx="-0.769" cy="-0.85" r="9.465" gradientTransform="matrix(1, 0, 0, 1, 0, 0)" xlink:href="#a"/><radialGradient id="i" cx="-0.771" cy="-0.85" r="9.465" gradientTransform="matrix(1, 0, 0, 1, 0, 0)" xlink:href="#a"/><radialGradient id="j" cx="-0.763" cy="-0.85" r="9.465" gradientTransform="matrix(1, 0, 0, 1, 0, 0)" xlink:href="#a"/><radialGradient id="k" cx="-0.769" cy="-0.85" r="9.465" gradientTransform="matrix(1, 0, 0, 1, 0, 0)" xlink:href="#a"/><radialGradient id="l" cx="-0.771" cy="-0.85" r="9.465" gradientTransform="matrix(1, 0, 0, 1, 0, 0)" xlink:href="#a"/><radialGradient id="m" cx="-0.763" cy="-0.85" r="9.465" gradientTransform="matrix(1, 0, 0, 1, 0, 0)" xlink:href="#a"/><radialGradient id="q" cx="-0.769" cy="-0.849" r="9.465" gradientTransform="matrix(1, 0, 0, 1, 0, 0)" xlink:href="#a"/><radialGradient id="r" cx="-0.771" cy="-0.849" r="9.465" gradientTransform="matrix(1, 0, 0, 1, 0, 0)" xlink:href="#a"/><radialGradient id="s" cx="-0.763" cy="-0.849" r="9.465" gradientTransform="matrix(1, 0, 0, 1, 0, 0)" xlink:href="#a"/><radialGradient id="t" cx="-0.769" cy="-0.845" r="9.465" gradientTransform="matrix(1, 0, 0, 1, 0, 0)" xlink:href="#a"/><radialGradient id="u" cx="-0.771" cy="-0.845" r="9.465" gradientTransform="matrix(1, 0, 0, 1, 0, 0)" xlink:href="#a"/><radialGradient id="v" cx="-0.763" cy="-0.845" r="9.465" gradientTransform="matrix(1, 0, 0, 1, 0, 0)" xlink:href="#a"/><radialGradient id="w" cx="-0.769" cy="-0.844" r="9.465" gradientTransform="matrix(1, 0, 0, 1, 0, 0)" xlink:href="#a"/><radialGradient id="x" cx="-0.771" cy="-0.844" r="9.465" gradientTransform="matrix(1, 0, 0, 1, 0, 0)" xlink:href="#a"/><radialGradient id="y" cx="-0.763" cy="-0.844" r="9.465" gradientTransform="matrix(1, 0, 0, 1, 0, 0)" xlink:href="#a"/><radialGradient id="z" cx="-0.769" cy="-0.847" r="11.438" gradientTransform="translate(4.878 1.253) scale(0.828 0.829)" xlink:href="#a"/><radialGradient id="aa" cx="-0.765" cy="-0.847" r="4.19" gradientTransform="translate(99.146 -9.265) scale(2.259 2.263)" xlink:href="#a"/><radialGradient id="ab" cx="-0.825" cy="-3.642" r="33.081" gradientTransform="translate(0.422) scale(0.156 1)" xlink:href="#a"/><radialGradient id="ac" cx="-0.825" cy="-3.643" r="33.081" gradientTransform="translate(0.422) scale(0.156 1)" xlink:href="#a"/><radialGradient id="ad" cx="-0.825" cy="-3.643" r="33.081" gradientTransform="translate(0.422) scale(0.156 1)" xlink:href="#a"/><radialGradient id="ae" cx="-0.825" cy="-3.644" r="33.081" gradientTransform="translate(0.422) scale(0.156 1)" xlink:href="#a"/><radialGradient id="ag" cx="-0.825" cy="-3.644" r="33.081" gradientTransform="translate(0.422) scale(0.156 1)" xlink:href="#a"/><radialGradient id="ai" cx="-0.825" cy="-3.633" r="33.081" gradientTransform="translate(0.422) scale(0.156 1)" xlink:href="#a"/><radialGradient id="ak" cx="-0.825" cy="-3.633" r="33.081" gradientTransform="translate(0.422) scale(0.156 1)" xlink:href="#a"/><radialGradient id="al" cx="-0.825" cy="-3.645" r="33.081" gradientTransform="translate(0.422) scale(0.156 1)" xlink:href="#a"/><radialGradient id="am" cx="-0.825" cy="-3.634" r="33.081" gradientTransform="translate(0.422) scale(0.156 1)" xlink:href="#a"/><radialGradient id="ao" cx="-0.825" cy="-3.635" r="33.081" gradientTransform="translate(0.422) scale(0.156 1)" xlink:href="#a"/><radialGradient id="aq" cx="-0.825" cy="-3.635" r="33.081" gradientTransform="translate(0.422) scale(0.156 1)" xlink:href="#a"/><radialGradient id="ar" cx="-1.036" cy="-1.803" r="6.453" gradientTransform="translate(0.352) scale(0.297 1)" xlink:href="#a"/><radialGradient id="bi" cx="0.5" cy="0.5" r="1.148" gradientTransform="translate(0)" gradientUnits="objectBoundingBox"><stop offset="0" stop-color="#fbffcc"/><stop offset="0.357" stop-color="#7fceff"/><stop offset="0.993" stop-color="#152960" stop-opacity="0"/><stop offset="1" stop-color="#152960"/></radialGradient><radialGradient id="bj" cx="0.5" cy="0.5" r="1.149" gradientTransform="translate(0)" gradientUnits="objectBoundingBox"><stop offset="0" stop-color="#fbffcc"/><stop offset="0.357" stop-color="#7fceff"/><stop offset="0.993" stop-color="#152960"/></radialGradient><radialGradient id="bk" cx="0.5" cy="0.5" r="1.148" xlink:href="#bj"/><radialGradient id="bl" cx="0.5" cy="0.5" r="1.149" xlink:href="#bj"/><linearGradient id="bm" y1="0.5" x2="1" y2="0.5" gradientUnits="objectBoundingBox"><stop offset="0" stop-color="#dadff3"/><stop offset="1" stop-color="#4c5784"/></linearGradient><linearGradient id="bp" x1="-0.003" y1="0.982" x2="0.65" y2="0.194" gradientUnits="objectBoundingBox"><stop offset="0" stop-color="#0092ff"/><stop offset="0" stop-color="#66ceac"/><stop offset="0.999" stop-color="#3a36c6"/><stop offset="1" stop-color="#152960"/></linearGradient><linearGradient id="bq" x1="0.551" y1="0.181" x2="0.279" y2="1.884" gradientUnits="objectBoundingBox"><stop offset="0" stop-color="#66ceac"/><stop offset="1" stop-color="#3a36c6"/></linearGradient><linearGradient id="br" x1="0.193" y1="-0.139" x2="1.166" y2="1.702" gradientUnits="objectBoundingBox"><stop offset="0" stop-color="#0d1a49"/><stop offset="0.999" stop-color="#152960"/></linearGradient><linearGradient id="bs" x1="2.061" y1="0.479" x2="0.304" y2="0.504" xlink:href="#br"/><linearGradient id="bt" x1="-2.247" y1="-0.702" x2="0.687" y2="0.554" gradientUnits="objectBoundingBox"><stop offset="0" stop-color="#4e7696"/><stop offset="0.999" stop-color="#152960"/></linearGradient><linearGradient id="bu" x1="-4.511" y1="-0.828" x2="0.551" y2="0.474" xlink:href="#bt"/><radialGradient id="bv" cx="-1.309" cy="0.486" r="2.154" gradientTransform="translate(-0.426) scale(1.853 1)" gradientUnits="objectBoundingBox"><stop offset="0" stop-color="#fff5ca"/><stop offset="0.999" stop-color="#d84841"/></radialGradient><radialGradient id="bw" cx="-1.631" cy="0.273" r="3.741" gradientTransform="translate(-0.403) scale(1.806 1)" xlink:href="#bv"/><linearGradient id="bx" x1="-1.176" y1="-1.22" x2="2.107" y2="1.763" gradientUnits="objectBoundingBox"><stop offset="0" stop-color="#e02d58"/><stop offset="0" stop-color="#222426"/><stop offset="0.999" stop-color="#152960"/><stop offset="1" stop-color="#152960"/></linearGradient><radialGradient id="by" cx="1.75" cy="-0.126" r="2.878" gradientTransform="translate(-0.377) scale(1.754 1)" xlink:href="#bv"/><linearGradient id="bz" x1="-0.747" y1="-0.029" x2="3.256" y2="1.385" gradientUnits="objectBoundingBox"><stop offset="0" stop-color="#cad4ea"/><stop offset="0.999" stop-color="#959fb7"/></linearGradient><linearGradient id="ca" x1="2.157" y1="-0.808" x2="-2.205" y2="2.508" xlink:href="#bt"/><linearGradient id="cb" x1="-317.819" y1="-0.808" x2="-322.238" y2="2.508" xlink:href="#bt"/><linearGradient id="cc" x1="-7.9" y1="-0.603" x2="16.868" y2="2.649" gradientUnits="objectBoundingBox"><stop offset="0" stop-color="#e02d58"/><stop offset="0" stop-color="#66ceac"/><stop offset="0.999" stop-color="#3a36c6"/><stop offset="1" stop-color="#152960"/></linearGradient><linearGradient id="cd" x1="-6.8" y1="-0.001" x2="4.699" y2="0.842" xlink:href="#cc"/><linearGradient id="ce" x1="-0.238" y1="-0.028" x2="0.729" y2="0.718" xlink:href="#bt"/><linearGradient id="cf" x1="-1.206" y1="-1.588" x2="0.796" y2="0.864" xlink:href="#bt"/><linearGradient id="cg" x1="-0.303" y1="-0.066" x2="3.385" y2="2.726" gradientUnits="objectBoundingBox"><stop offset="0" stop-color="#4e7696"/><stop offset="0.999" stop-color="#506caa"/></linearGradient><linearGradient id="ch" x1="3.873" y1="0.466" x2="0.39" y2="0.5" xlink:href="#bt"/><linearGradient id="ci" x1="-39.21" y1="-1.588" x2="-37.207" y2="0.864" xlink:href="#bt"/><linearGradient id="cj" x1="-219.813" y1="-0.066" x2="-216.125" y2="2.726" xlink:href="#cg"/></defs><g class="a" transform="translate(0 217.934)"><path class="b" d="M255.533,458.826S45.66,422.124,31.843,266.9C22.063,157.253,142.9,106.09,207.739,133.84c112.7,46.229,105.9-98.669,219.717-86.887,96.278,10.009,58.928,70.35,62.65,120.11,4.543,60.513,53.754,64.173,93.249,57.538,86.688-14.528,168.9,112.9,94.7,182.853-38.036,35.853-81.049,46.912-130.5,51.272l-119.916.067Z" transform="translate(-31.283 -46.269)"/></g><g class="c" transform="translate(95.765 242.222)"><path class="d" d="M868.4,619.713V490.432h40.231V588.47h10.134V432.579l48.642-51.712V529h17.734V402.736h54.519v33.721h23.51V328.4h45.5V621.005Z" transform="translate(-863.293 -284.564)"/><g transform="translate(21.928 210.866)"><g class="e" transform="translate(0)"><rect class="f" width="77.714" height="177.419"/><rect class="g" width="24.777" height="177.419" transform="translate(57.538)"/><g transform="translate(9.181 15.906)"><rect class="h" width="9.074" height="9.074"/><rect class="i" width="9.074" height="9.074" transform="translate(15.692)"/><rect class="j" width="9.074" height="9.074" transform="translate(32.025)"/><g transform="translate(0 16.013)"><rect class="k" width="9.074" height="9.074"/><rect class="l" width="9.074" height="9.074" transform="translate(15.692)"/><rect class="m" width="9.074" height="9.074" transform="translate(32.025)"/></g><g transform="translate(0 32.132)"><rect class="n" width="9.074" height="9.074"/><rect class="o" width="9.074" height="9.074" transform="translate(15.692)"/><rect class="p" width="9.074" height="9.074" transform="translate(32.025)"/><g transform="translate(0 16.013)"><rect class="q" width="9.074" height="9.074"/><rect class="r" width="9.074" height="9.074" transform="translate(15.692)"/><rect class="s" width="9.074" height="9.074" transform="translate(32.025)"/></g></g></g><g transform="translate(9.181 80.597)"><rect class="q" width="9.074" height="9.074"/><rect class="r" width="9.074" height="9.074" transform="translate(15.692)"/><rect class="s" width="9.074" height="9.074" transform="translate(32.025)"/><g transform="translate(0 16.013)"><rect class="t" width="9.074" height="9.074"/><rect class="u" width="9.074" height="9.074" transform="translate(15.692)"/><rect class="v" width="9.074" height="9.074" transform="translate(32.025)"/></g><g transform="translate(0 32.025)"><rect class="w" width="9.074" height="9.074"/><rect class="x" width="9.074" height="9.074" transform="translate(15.692)"/><rect class="y" width="9.074" height="9.074" transform="translate(32.025)"/><g transform="translate(0 16.013)"><rect class="z" width="9.074" height="9.074"/><rect class="aa" width="9.074" height="9.074" transform="translate(15.692)"/><rect class="ab" width="9.074" height="9.074" transform="translate(32.025)"/></g></g></g><rect class="ac" width="24.766" height="20.496" transform="translate(9.181 145.181)"/><rect class="ad" width="9.074" height="20.496" transform="translate(41.206 145.181)"/></g></g><g transform="translate(236.381 63.94)"><g class="ae" transform="translate(0)"><rect class="g" width="98.875" height="300.712" transform="translate(0 23.633)"/><rect class="af" width="25.619" height="300.712" transform="translate(76.47 23.633)"/><g transform="translate(0 46.322)"><rect class="ag" width="49.536" height="7.752"/><rect class="ah" width="49.536" height="7.752" transform="translate(0 17.489)"/></g><g transform="translate(0 80.259)"><rect class="ai" width="49.536" height="7.752"/><rect class="aj" width="49.536" height="7.752" transform="translate(0 17.489)"/></g><g transform="translate(0 114.197)"><rect class="ah" width="49.536" height="7.752"/><rect class="ak" width="49.536" height="7.752" transform="translate(0 17.489)"/></g><g transform="translate(0 148.134)"><rect class="aj" width="49.536" height="7.752"/><rect class="al" width="49.536" height="7.752" transform="translate(0 17.394)"/></g><g transform="translate(0 182.072)"><rect class="ak" width="49.536" height="7.752"/><rect class="am" width="49.536" height="7.752" transform="translate(0 17.394)"/></g><g transform="translate(0 216.01)"><rect class="an" width="49.536" height="7.752"/><rect class="ao" width="49.536" height="7.752" transform="translate(0 17.394)"/></g><g transform="translate(0 249.853)"><rect class="am" width="49.536" height="7.752"/><rect class="ap" width="49.536" height="7.752" transform="translate(0 17.489)"/></g><g transform="translate(0 283.79)"><rect class="ao" width="49.536" height="7.752"/><rect class="aq" width="49.536" height="7.752" transform="translate(0 17.489)"/></g><path class="ar" d="M1115.8,279.933l28.956-23.633h63.4v23.633Z" transform="translate(-1106.063 -256.3)"/></g></g><g class="ae" transform="translate(125.243 135.523)"><rect class="g" width="83.698" height="234.344" transform="translate(0 18.418)"/><g transform="translate(0 36.098)"><rect class="ag" width="38.603" height="6.041"/><rect class="ah" width="38.603" height="6.041" transform="translate(0 13.629)"/></g><g transform="translate(0 62.546)"><rect class="ai" width="38.603" height="6.041"/><rect class="aj" width="38.603" height="6.041" transform="translate(0 13.629)"/></g><g transform="translate(0 88.993)"><rect class="ah" width="38.603" height="6.041"/><rect class="ak" width="38.603" height="6.041" transform="translate(0 13.629)"/></g><g transform="translate(0 115.441)"><rect class="aj" width="38.603" height="6.041"/><rect class="al" width="38.603" height="6.041" transform="translate(0 13.555)"/></g><g transform="translate(0 141.889)"><rect class="ak" width="38.603" height="6.041"/><rect class="am" width="38.603" height="6.041" transform="translate(0 13.555)"/></g><g transform="translate(0 168.336)"><rect class="an" width="38.603" height="6.041"/><rect class="ao" width="38.603" height="6.041" transform="translate(0 13.555)"/></g><g transform="translate(0 194.71)"><rect class="am" width="38.603" height="6.041"/><rect class="ap" width="38.603" height="6.041" transform="translate(0 13.629)"/></g><g transform="translate(0 221.158)"><rect class="ao" width="38.603" height="6.041"/><rect class="aq" width="38.603" height="6.041" transform="translate(0 13.629)"/></g></g></g><g transform="translate(79.358)"><g transform="translate(243.531)"><g transform="translate(0)"><ellipse class="as" cx="163.405" cy="163.405" rx="163.405" ry="163.405"/><ellipse class="at" cx="122.823" cy="122.823" rx="122.823" ry="122.823" transform="translate(40.582 40.582)"/></g><g transform="translate(66.868 66.868)"><ellipse class="au" cx="96.537" cy="96.537" rx="96.537" ry="96.537"/><ellipse class="av" cx="72.556" cy="72.556" rx="72.556" ry="72.556" transform="translate(23.98 23.98)"/></g></g><g transform="translate(0 145.941)"><g transform="translate(344.056 290.342)"><rect class="aw" width="145.043" height="189.655" transform="translate(0 4.57)"/><ellipse class="ax" cx="72.576" cy="4.57" rx="72.576" ry="4.57"/></g><g transform="translate(172.028 353.56)"><rect class="aw" width="145.043" height="126.437" transform="translate(0.109 4.57)"/><ellipse class="ay" cx="72.576" cy="4.57" rx="72.576" ry="4.57"/></g><g transform="translate(0 404.374)"><rect class="aw" width="145.043" height="75.623" transform="translate(0 4.57)"/><ellipse class="az" cx="72.576" cy="4.57" rx="72.576" ry="4.57"/></g><g transform="translate(348.602)"><g transform="translate(35.72 51.722)"><path class="ba" d="M964.581,201.009S1034.872,342.57,1171.1,309.057c28.508-6.964,52.555,16.865,54.513,30.467,1.959,13.71-45.373-34.6-73.773,7.29s-42,26.332-69.965,17.627-8.7,31.12-28.508,30.467-34.6-52.99-56.8-36.778-24.917,45.809-46.788,22.415c-21.762-23.394-56.363-69.094-35.145-179.645Z" transform="translate(-908.007 -200.9)"/><path class="bb" d="M960,201s4.788,59.736,66.483,94.12,92.271,35.145,136.665,29.814,57.887,14.689,57.887,14.689-5.114-30.793-47.223-37.539-96.732,25.788-158.862-35.146C986.55,238.975,960,201,960,201Z" transform="translate(-903.427 -200.891)"/></g><path class="bc" d="M906.35,415.3s-4.352,5.223-14.907,6.746a.989.989,0,0,0,0,1.741H906.35l3.373-1.523.544,1.523h3.373s1.523-5.114-1.306-8.487H906.35Z" transform="translate(-873.793 -130.29)"/><path class="bc" d="M969.824,415.3s4.352,5.223,14.907,6.746a.989.989,0,0,1,0,1.741H969.824l-3.373-1.523-.544,1.523h-3.373s-1.523-5.114,1.306-8.487h5.985Z" transform="translate(-867.519 -130.29)"/><path class="bd" d="M966.905,359.908l-3.7-72.794L937.2,261v34.166l16.648,64.742c-11.643,29.6,11.1,69.312,11.1,69.312h8.161Z" transform="translate(-869.715 -143.883)"/><path class="be" d="M910.214,359.908l3.7-72.794L939.919,261v34.166l-16.648,64.742c11.643,29.6-11.1,69.312-11.1,69.312l-7.073-.326Z" transform="translate(-872.543 -143.883)"/><path class="bf" d="M931.482,191.6,907,201.828l14.145,59.954L910.7,294.425s24.809-6.311,28.943-23.72V191.6Z" transform="translate(-872.375 -149.997)"/><path class="bg" d="M945.47,191.609l24.156,10.228L955.7,262.553l10.772,33.3s-25.135-7.834-29.27-25.244V191.5h8.269Z" transform="translate(-869.715 -150.006)"/><g transform="translate(48.756)"><path class="bh" d="M939.893,167.3l5.005,26.441-14.8.979.544-18.606Z" transform="translate(-919.096 -152.138)"/><path class="bi" d="M930.518,180.475l-.218,5.985s10.772-5.223,11.1-11.316l-1.523-7.943Z" transform="translate(-919.078 -152.147)"/><path class="bj" d="M940.01,164.491s2.611,17.954-13.71,17.736V157.418C926.3,157.527,937.181,155.024,940.01,164.491Z" transform="translate(-919.431 -153.028)"/><path class="bk" d="M939.8,158.517s-3.482-5.005-9.358-5.114h0s-3.373-.544-7.943,2.5l1.632.326a2.184,2.184,0,0,1-3.7-.218s-2.176,5.114,3.047,5.005h3.264l9.575-.326,1.523,3.808v8.378h1.2l.544-7.4,2.5,10.99C946.007,158.952,939.8,158.517,939.8,158.517Z" transform="translate(-919.987 -153.365)"/><path class="bl" d="M938.135,164.432s1.958-1.088,2.938.326c.979,1.523-.87,5.223-3.373,5.658Z" transform="translate(-918.426 -152.426)"/></g><path class="bm" d="M929.5,191.6l8.269,63.545,8.378-63.545Z" transform="translate(-870.393 -149.997)"/><path class="bn" d="M945.261,190.2l-8.161,1.523,4.9,5.332,3.482-5.332Z" transform="translate(-869.724 -150.12)"/><path class="bo" d="M929.718,190.2l8.052,1.523-4.788,5.332-3.482-5.332Z" transform="translate(-870.393 -150.12)"/><g transform="translate(63.35 41.603)"><path class="bp" d="M941.452,195.952l-4.026-4.352-3.917,4.244,2.067,5.005L933.4,224.243l4.026,30.9,4.135-30.9-2.285-23.394Z" transform="translate(-933.4 -191.6)"/><path class="bq" d="M937.1,255.145V191.6l4.026,4.352-2.176,4.9,2.285,23.394Z" transform="translate(-933.074 -191.6)"/></g><g transform="translate(0 51.831)"><path class="br" d="M911.064,255.3s3.591-2.067,6.637-.762l3.047,1.306a2.337,2.337,0,0,1-2.72.326l5.332,2.394-3.156,7.073a6.031,6.031,0,0,1-5.223-.218c-3.047-1.415-7.182-3.155-7.182-3.155Z" transform="translate(-872.305 -196.322)"/><path class="bs" d="M909.775,201,875.5,245.068l17.954,1.306,22.2-20.891Z" transform="translate(-875.15 -201)"/><path class="bt" d="M879.99,236.221c.326-.435,11.316-2.611,34.384,19.368l-3.591,8.27s-39.716-16.1-35.254-21.871Z" transform="translate(-875.179 -197.92)"/><path class="bu" d="M911.737,254.276l-3.591,8.161-3.047-1.306,4.352-9.031Z" transform="translate(-872.543 -196.498)"/></g><g transform="translate(83.48 51.831)"><path class="bv" d="M964.2,255.3s-3.591-2.067-6.637-.762l-3.047,1.306a2.337,2.337,0,0,0,2.72.326l-5.332,2.394,3.156,7.073a6.031,6.031,0,0,0,5.223-.218c3.047-1.415,7.181-3.155,7.181-3.155Z" transform="translate(-951.9 -196.322)"/><path class="bw" d="M967.476,201l34.275,44.068L983.8,246.374l-22.2-20.891Z" transform="translate(-951.046 -201)"/><path class="bx" d="M997.184,236.221c-.326-.435-11.316-2.611-34.384,19.368l3.591,8.27s39.715-16.1,35.254-21.871Z" transform="translate(-950.94 -197.92)"/><path class="by" d="M962.8,254.276l3.591,8.161,3.047-1.306-4.352-9.031Z" transform="translate(-950.94 -196.498)"/></g><path class="bz" d="M961.6,224.557l3.155-13.057L981.4,243.272Z" transform="translate(-867.565 -148.244)"/></g></g></g></svg>