<svg id="Layer_1" data-name="Layer 1" xmlns="http://www.w3.org/2000/svg" viewBox="0 0 384 288.32"><defs><style>.cls-1{fill:#4fc3c9;}.cls-2{fill:#51c4c8;}.cls-3{fill:#45c3cf;}.cls-4{fill:#63c6be;}.cls-5{fill:#5bc5c1;}.cls-6{fill:#52c4c6;}.cls-7{fill:#58c4c3;}.cls-8{fill:#55c4c4;}.cls-9{fill:#50c3c8;}.cls-10{fill:#62c6bf;}.cls-11{fill:#41c2d2;}.cls-12{fill:#61c6c0;}.cls-13{fill:#44c3d0;}.cls-14{fill:#4ec3ca;}.cls-15{fill:#49c3cc;}.cls-16{fill:#65c6bd;}.cls-17{fill:#1dade4;}.cls-18{fill:#0dbae5;}.cls-19{fill:#62c6c0;}.cls-20{fill:#0ab9e5;}.cls-21{fill:#11c1e2;}.cls-22{fill:#3cc2d3;}.cls-23{fill:#18afe5;}.cls-24{fill:#63c6bf;}.cls-25{fill:#25c1de;}.cls-26{fill:#23c1df;}.cls-27{fill:#43c3d1;}.cls-28{fill:#11b0e6;}.cls-29{fill:#4ac3cc;}.cls-30{fill:#09bce4;}.cls-31{fill:#0abce4;}.cls-32{fill:#4fc3c8;}.cls-33{fill:#32c1d7;}.cls-34{fill:#45c3d0;}.cls-35{fill:#30c1d8;}.cls-36{fill:#13bbe5;}.cls-37{fill:#38c2d5;}.cls-38{fill:#2bc1db;}.cls-39{fill:#2ac1db;}.cls-40{fill:#4dc3ca;}.cls-41{fill:#46c3cf;}.cls-42{fill:#48c3cd;}.cls-43{fill:#00c0e4;}.cls-44{fill:#5dc5c1;}.cls-45{fill:#0bb9e5;}.cls-46{fill:#43c3d0;}.cls-47{fill:#56c4c4;}.cls-48{fill:#13b0e6;}.cls-49{fill:#01c0e4;}.cls-50{fill:#1cade4;}.cls-51{fill:#0ebae5;}.cls-52{fill:#0cbbe5;}.cls-53{fill:#0dc0e3;}.cls-54{fill:#03b4e6;}.cls-55{fill:#1fc1e0;}.cls-56{fill:#60c5c0;}.cls-57{fill:#06b3e7;}.cls-58{fill:#64c6be;}.cls-59{fill:#23c1de;}.cls-60{fill:#04b4e7;}.cls-61{fill:#24c1de;}.cls-62{fill:#5cc5c2;}.cls-63{fill:#37c2d6;}.cls-64{fill:#08b4e7;}.cls-65{fill:#14b0e6;}.cls-66{fill:#31c1d8;}.cls-67{fill:#1caee4;}.cls-68{fill:#08bce4;}.cls-69{fill:#03b7e5;}.cls-70{fill:#00b6e5;}.cls-71{fill:#60c5c1;}.cls-72{fill:#2dc1da;}.cls-73{fill:#0fb1e7;}.cls-74{fill:#09b2e7;}.cls-75{fill:#01b4e6;}.cls-76{fill:#3dc2d3;}.cls-77{fill:#04c0e4;}.cls-78{fill:#05b3e7;}.cls-79{fill:#16c1e1;}.cls-80{fill:#07b2e7;}.cls-81{fill:#11b0e7;}.cls-82{fill:#02b7e5;}.cls-83{fill:#22c1df;}.cls-84{fill:#65c6be;}.cls-85{fill:#12b0e6;}.cls-86{fill:#07b4e7;}.cls-87{fill:#23aee4;}.cls-88{fill:#22aee4;}.cls-89{fill:#40c2d2;}.cls-90{fill:#53c4c6;}.cls-91{fill:#36c2d6;}.cls-92{fill:#59c4c3;}.cls-93{fill:#54c4c5;}.cls-94{fill:#34c2d7;}.cls-95{fill:#5cc5c1;}.cls-96{fill:#37c2d5;}.cls-97{fill:#10c0e3;}.cls-98{fill:#03c0e4;}.cls-99{fill:#01b6e5;}.cls-100{fill:#17c1e1;}.cls-101{fill:#02c0e4;}</style></defs><path class="cls-1" d="M277,104.65V86.3c1.42-1.24,3.17-1.19,4.88-1.21,6.58-.06,13.17.16,19.75-.34v19.9c-.3.25-.54.63-.95.68a86.61,86.61,0,0,1-22.69,0C277.57,105.23,277.28,104.88,277,104.65Z"/><path class="cls-2" d="M106.24,77.52V95.07c-1.42,1.24-3.16,1.19-4.88,1.21-6.58.06-13.17-.16-19.74.34V75.18c6.07,2,12.34.84,18.52,1.13C102.23,76.41,104.43,76,106.24,77.52Z"/><path class="cls-3" d="M106.24,116.62v16.77c-1.43,1.24-3.18,1.17-4.91,1.19-4.11,0-8.22.1-12.33,0-3-.09-5.61.17-6,4a1.3,1.3,0,0,1-1.37,1.17V118.17a2.77,2.77,0,0,1,2.64-2.54c6.87-.31,13.76-.64,20.62.19A3.13,3.13,0,0,1,106.24,116.62Z"/><path class="cls-4" d="M120.8,86.29c0-5.83-.28-11.67-.1-17.49a12.31,12.31,0,0,1,11.46-12.07c7.21-.39,12.21,3.63,13.28,10.77A39.27,39.27,0,0,1,145.9,73q0,26.87,0,53.71c0,1.32-.2,2.63-.3,3.94-2.32-2-1.06-4.75-1.41-7.16-.11-2.36-.07-4.72,0-7.09-.11-3.91-.1-7.81,0-11.72-.09-3.2-.1-6.4,0-9.6-.09-3.64-.12-7.28,0-10.92-.26-10.52,1.62-9.41-9.49-9.48-2.63,0-5.27.09-7.9,0-3-.12-4.45,1-4.25,4.14a35.09,35.09,0,0,1,0,4.35,6.61,6.61,0,0,1-.57,2.63A.89.89,0,0,1,120.8,86.29Z"/><path class="cls-4" d="M315.53,83.9c0-5.05-.29-10.1-.09-15.14A12.24,12.24,0,0,1,327.78,56.7c7.07,0,12.08,4.57,12.42,11.74,1,21.12.24,42.25.41,63.38a8,8,0,0,1-.33,1.55l-.57-.39a3.79,3.79,0,0,1-.55-1.25,67.83,67.83,0,0,1-.22-8.19c-.12-2.36-.07-4.73,0-7.09-.12-3.92-.11-7.84,0-11.76-.1-3.45-.11-6.91,0-10.36-.09-3.63-.12-7.26,0-10.89-.19-9.5,1.34-8.72-8.75-8.75-2.65,0-5.31,0-8,0-4.54.07-4.76.29-4.93,4.67a23.73,23.73,0,0,1-.16,2.79,4,4,0,0,1-.44,1.29A.91.91,0,0,1,315.53,83.9Z"/><path class="cls-5" d="M106.24,46.39v16c-1.94,1.59-4.26,1.16-6.48,1.19-4,.07-7.94.1-11.91,0-2.89-.07-4.51.84-4.48,4,0,1.31.23,3.05-1.76,3.5V58.3c.57-3.16.14-6.34.25-9.51,0-1.35-.09-3,1.62-3.15C91.08,45.19,98.73,43.92,106.24,46.39Z"/><path class="cls-6" d="M301.59,84.75c-1,1.56-2.51,1.58-4.14,1.57-6.83,0-13.66,0-20.49,0v-16c1.42-1.23,3.17-1.22,4.89-1.23,4.64,0,9.28-.06,13.92,0,5.13.06,5.25.2,5.82,5.17Z"/><path class="cls-7" d="M301.59,74.27c-.48-3.27-2.24-4.22-5.59-4-6.33.35-12.69.1-19,.1V55.17a3.33,3.33,0,0,1,1.74-.92c7.27-.36,14.55-1,21.79.36,1.86,2.34.17,5.2,1.1,7.69Z"/><path class="cls-8" d="M81.61,71.07c.77-.73.62-1.68.65-2.6.2-6.12.2-6.12,6.14-6.12h17.84V77.52c-6.9,0-13.79-.1-20.69,0-2,.05-3.22-.6-3.93-2.39C81.61,73.81,81.61,72.44,81.61,71.07Z"/><path class="cls-3" d="M145.24,123.8c.13,2.29.25,4.59.37,6.87.1,3.43.29,6.87.29,10.3q0,27.79,0,55.59c0,1.45-.18,2.89-.28,4.33-2.33-2-1.06-4.71-1.42-7.1-.09-2.33-.07-4.65,0-7s-.07-4.74,0-7.11-.08-4.77,0-7.16-.08-4.77,0-7.16q-.1-3.23,0-6.45c-.08-2.39-.07-4.78,0-7.17s-.08-4.72,0-7.07c-.2-7.9,1.17-7.78-7.8-7.74-2.92,0-5.84,0-8.76,0-4.76,0-5,.26-5.06,4.9,0,.79,0,1.59-.05,2.39-.09,2.27.31,4.57-.57,6.77a1.36,1.36,0,0,1-1.11.72V125.32a2.61,2.61,0,0,1,2.59-2.51c6.84-.3,13.68-.6,20.51.18A2.59,2.59,0,0,1,145.24,123.8Z"/><path class="cls-9" d="M223.47,108.64v13.57a4.15,4.15,0,0,1-2.86,1.15q-9.44.3-18.88,0a4,4,0,0,1-2.86-1.15V108.64a4.08,4.08,0,0,1,2.86-1.15q9.44-.3,18.88,0A4.2,4.2,0,0,1,223.47,108.64Z"/><path class="cls-10" d="M106.24,46.39c-6.88,0-13.76.09-20.63,0-2.6-.05-3.42.83-3.43,3.41,0,2.84.79,5.79-.57,8.55q0-12.72,0-25.43c7.49-1,15-.46,22.5-.26a3.7,3.7,0,0,1,2.11,1Z"/><path class="cls-11" d="M67.68,137.3v19.14c-2.32-1-1.47-3.14-1.71-4.88-.2-5.81-.2-5.71-6.15-5.86-5.39-.13-10.82.64-16.18-.54a1.74,1.74,0,0,1-.85-1.11c.18-4.17-.53-8.37.4-12.52,2.28-1.49,4.85-.91,7.31-1q5.93-.12,11.85,0c4.79.1,5,.37,5.13,5.18A5.48,5.48,0,0,0,67.68,137.3Z"/><path class="cls-12" d="M43.22,131.79q-.06,6.36-.13,12.72h-.17c-.12-1.57-.35-3.14-.35-4.72q0-31.58,0-63.17a54.78,54.78,0,0,1,.63-9.49,3.89,3.89,0,0,1,2.51-1.08c7.16-.12,14.31-.54,21.46.21a8.42,8.42,0,0,1,.63,2.22c0,11,0,21.92-.09,32.89-1.94-.5-1.42-2.18-1.68-3.49-.14-2.82-.1-5.64-.06-8.46-.12-2.64-.08-5.28,0-7.91,0-2.46-.94-3.63-3.49-3.61-4.87,0-9.75,0-14.63,0-2.6,0-3.46,1.29-3.44,3.68,0,2.64.07,5.27,0,7.91q.15,4.36,0,8.73c.09,3.42.11,6.85,0,10.28.07,2.68.09,5.35,0,8,.07,2.43.07,4.87,0,7.3C44.2,126.53,45,129.33,43.22,131.79Z"/><path class="cls-2" d="M262.41,105.36c0,1.86,0,3.72,0,5.59-6.6-.45-13.21-.24-19.82-.32-1.7,0-3.48.18-4.87-1.19a67.91,67.91,0,0,1,.1-12.91,2.47,2.47,0,0,1,1.36-.75c7.43-.39,14.86-1,22.25.36C263.28,99.05,261.57,102.34,262.41,105.36Z"/><path class="cls-13" d="M379.57,134.83q.62,13.14,0,26.28c-1.84-.88-1.27-2.63-1.48-4.1s0-3.1,0-4.64a12,12,0,0,1,0-2.39c.36-3.38-1.32-4.44-4.47-4.3-3.58.16-7.17,0-10.75,0-6.31,0-6.31,0-6.46,6.34a12.47,12.47,0,0,1-.52,4.62l-.4.54-.67.1c-.37-8.47-.35-16.93,0-25.4,7.83.77,15.72-.28,23.54.7A1.93,1.93,0,0,1,379.57,134.83Z"/><path class="cls-1" d="M145.24,104.65v12c-1.27,1.19-2.88,1.16-4.46,1.18-3.69,0-7.38.11-11.06,0-3.33-.11-6.5,0-8.92,2.74V103.85a2.84,2.84,0,0,1,1.39-.4c5.93,0,11.85,0,17.78,0C141.81,103.47,143.71,103.27,145.24,104.65Z"/><path class="cls-14" d="M340,104.65v12a3.22,3.22,0,0,1-2.09,1c-7.45.19-14.91.7-22.35-.27q0-7.14,0-14.3a2,2,0,0,1,1.39-.11c5.77,1,11.6.28,17.39.52C336.26,103.55,338.31,103.17,340,104.65Z"/><path class="cls-15" d="M106.24,116.62c-6.83,0-13.66,0-20.48,0-1.63,0-3.15,0-4.14,1.57V105.41a3.35,3.35,0,0,1,3.23-1.87c6.17-.24,12.34-.21,18.51,0a4.66,4.66,0,0,1,2.88,1.14Z"/><path class="cls-10" d="M301.59,62.3c-1.33-2.28-.33-4.76-.64-7.13-1.26-1.41-1.23-3.16-1.22-4.86,0-2.55-1.28-3.49-3.68-3.49-4.61,0-9.22,0-13.82,0-1.84,0-3.72.12-5.26-1.21q0-5.6,0-11.17a6.35,6.35,0,0,1,4.45-1.23c5.13,0,10.25-.08,15.37,0,1.82,0,3.77-.06,4.81,2Z"/><path class="cls-16" d="M301.59,35.18c-3-1.5-6.2-.63-9.29-.72-5.11-.15-10.23,0-15.34,0-1.21-7.09,3.78-13.83,12-14.15C296.85,20,302,26.27,301.59,35.18Z"/><path class="cls-17" d="M301,259.54a12,12,0,0,1-12.46,9.32,12.23,12.23,0,0,1-11.58-11c-.08-1,0-2.1,0-3.16a6.4,6.4,0,0,1,4.45-1.25c4.86-.06,9.73-.09,14.59,0C301.31,253.54,301.79,254.17,301,259.54Z"/><path class="cls-18" d="M301.58,214.8q0,8.34,0,16.7c-.13,0-.36,0-.38-.07-1.83-4.68-5.73-4.48-9.75-4.29-3.45.16-6.92.06-10.38,0A6,6,0,0,1,277,226V214.8a5,5,0,0,1,3.27-1.19q9.06-.21,18.12,0A4.2,4.2,0,0,1,301.58,214.8Z"/><path class="cls-19" d="M262.41,105.36c-1.24-2.83-.26-5.8-.59-8.69-2.25-4-.87-8.29-1.14-12.44-.21-8.14,1.24-8-8-7.93-2.92,0-5.84,0-8.75,0-4.51,0-4.78.32-4.86,4.67,0,1.06,0,2.12,0,3.19-.26,4.18,1.08,8.49-1.08,12.5q0,6.38,0,12.77c1.63,2.2,1,4.74,1.09,7.18.08,3.15.09,6.31,0,9.47.06,3.1.09,6.21,0,9.31-.06,1.88.27,3.82-.8,5.56l-.6.38c-.11-1.44-.32-2.88-.32-4.33q0-32,0-64a18,18,0,0,1,.63-5.89,3.89,3.89,0,0,1,2.51-1.08c7.16-.11,14.31-.55,21.45.23a8.09,8.09,0,0,1,.64,2.22C262.51,80.79,262.45,93.08,262.41,105.36Z"/><path class="cls-20" d="M106.24,214.8V226c-1.29,1.13-2.88,1.17-4.47,1.18-3.29,0-6.58.09-9.87,0-3.9-.1-7.84-.48-10.28,3.56V217.14c.22-1.65.59-3.25,2.65-3.35a145.3,145.3,0,0,1,20.23.09A3.51,3.51,0,0,1,106.24,214.8Z"/><path class="cls-8" d="M223.47,108.64h-24.6V97.47a4,4,0,0,1,2.86-1.15q9.44-.3,18.89,0a4.19,4.19,0,0,1,2.86,1.15Z"/><path class="cls-21" d="M106.24,184.47v11.17c-1.43,1.24-3.18,1.18-4.9,1.19-4.36,0-8.74.09-13.1,0-2.91-.07-4.94.54-4.93,4,0,1.08,0,2.49-1.69,2.72q0-4.8,0-9.58c.56-2.5.2-5,.23-7.53,0-1.52.43-2.8,2-2.89,7.25-.37,14.51-1.11,21.73.44C105.83,184.07,106,184.31,106.24,184.47Z"/><path class="cls-22" d="M81.62,139.71c1.54-1.74-.56-4.7,1.38-5.83,2.27-1.32,5.16-.42,7.78-.47,5.15-.09,10.31,0,15.46,0v11.17a5,5,0,0,1-3.27,1.18q-9.06.22-18.11,0a4.18,4.18,0,0,1-3.24-1.18Z"/><path class="cls-16" d="M106.24,33.62h-20c-1.56,0-3.16.19-4.57-.75A12.36,12.36,0,0,1,94.16,20.22C101.31,20.22,106.32,25.77,106.24,33.62Z"/><path class="cls-23" d="M223.47,199.63c.14,7.6-5.06,13.38-12.07,13.39-7.4,0-12.63-5.58-12.52-13.39a4,4,0,0,1,2.85-1.15q9.44-.3,18.88,0A4.2,4.2,0,0,1,223.47,199.63Z"/><path class="cls-24" d="M198.88,89.49c-.11-7.79,5.31-13.58,12.52-13.37s12.22,5.73,12.07,13.37a4.22,4.22,0,0,1-2.86,1.15q-9.44.3-18.88,0A4,4,0,0,1,198.88,89.49Z"/><path class="cls-25" d="M106.24,184.47c-6.74,0-13.48.13-20.22-.06-3-.09-4,.82-3.84,3.81.12,1.89.7,4-.57,5.77q0-9.94,0-19.9c.3-.25.54-.63.94-.68a87,87,0,0,1,22.69.05c.39,0,.67.41,1,.63Z"/><path class="cls-26" d="M277,184.47V174.09a5,5,0,0,1,3.27-1.18q9.06-.22,18.12,0a4.21,4.21,0,0,1,3.23,1.18q0,9.94,0,19.89c-2.11-.59-1.83-2.46-1.77-3.89.18-3.62-1.64-4.54-4.86-4.45-4.5.14-9,.06-13.5,0C279.86,185.65,278.26,185.6,277,184.47Z"/><path class="cls-27" d="M301.58,125.37v19.19a.9.9,0,0,1-1.17-.5A4.33,4.33,0,0,1,300,143c-1.07-6.77-1.07-6.77-7.84-6.77-3.57,0-7.14,0-10.71,0-1.59,0-3.2,0-4.5-1.18V124.61a6.37,6.37,0,0,1,4.46-1.23c5.12,0,10.24-.08,15.36,0C298.6,123.43,300.55,123.34,301.58,125.37Z"/><path class="cls-17" d="M106.24,255.5c.1,7.49-4.08,12.49-11.16,13.31a12,12,0,0,1-12.84-9.27c-.65-4.37-.22-5.09,3.79-5.24,5.51-.21,11-.12,16.55,0A5.42,5.42,0,0,1,106.24,255.5Z"/><path class="cls-28" d="M301,259.54c.77-4.15-1.15-5.12-5-4.92-6.31.32-12.64.08-19,.08V244.33a5.46,5.46,0,0,1,3.7-1.2c5.57-.08,11.13-.07,16.7,0,2.41,0,4.12.81,4.22,3.55C301.49,251,302.49,255.32,301,259.54Z"/><path class="cls-29" d="M277,104.65h24.63c0,4,0,7.95,0,11.92-6.57-.49-13.16-.28-19.74-.34-1.72,0-3.46,0-4.88-1.2Z"/><path class="cls-30" d="M106.24,214.8c-6.9,0-13.79.09-20.69-.06-2-.05-3.22.61-3.93,2.4V206a3,3,0,0,1,3-2.61,188.52,188.52,0,0,1,19.46.05,3.91,3.91,0,0,1,2.12,1Z"/><path class="cls-31" d="M301.58,214.8H277V204.42a5,5,0,0,1,3.27-1.18q9.06-.23,18.11,0a4.34,4.34,0,0,1,3.24,1.19Z"/><path class="cls-32" d="M159.73,128.6V118.22a4.17,4.17,0,0,1,2.86-1.15q9.43-.3,18.88,0a4,4,0,0,1,2.86,1.15V128.6a4.06,4.06,0,0,1-2.86,1.15q-9.43.3-18.88,0A4.22,4.22,0,0,1,159.73,128.6Z"/><path class="cls-21" d="M277,184.47c6.74,0,13.49.13,20.22-.06,3-.09,4,.82,3.84,3.81-.12,1.89-.7,4,.57,5.77v9.57c-2.14-.57-1.75-2.45-1.79-3.88-.06-2.79-1.48-3.65-4-3.63q-6.75,0-13.51,0c-1.85,0-3.74.14-5.3-1.2Z"/><path class="cls-2" d="M67.08,98.26c.12,1.06-.31,2.22.6,3.12q0,4.38,0,8.78c-6.53-.47-13.08-.26-19.62-.33-1.69,0-3.44.1-4.83-1.19q0-5.19,0-10.38a4.55,4.55,0,0,1,3.25-1.18q8.67-.21,17.34,0A4.84,4.84,0,0,1,67.08,98.26Z"/><path class="cls-33" d="M81.62,164.51v-4.84c.7-6.77.7-6.77,7.81-6.78,4,0,8,0,11.93,0,1.73,0,3.47,0,4.89,1.24v10.37A5,5,0,0,1,103,165.7q-9.06.21-18.12,0A4.22,4.22,0,0,1,81.62,164.51Z"/><path class="cls-34" d="M238,135.78V126.2a5.59,5.59,0,0,1,4.09-1.21c5.3-.06,10.6-.09,15.9,0,1.7,0,3.52,0,4.44,1.93q0,14,0,27.9c-1.9-.51-1.39-2.17-1.65-3.46-.13-2.34-.08-4.68-.05-7-.21-7.37-.21-7.37-7.49-7.38-3.58,0-7.17,0-10.75,0C240.87,137,239.25,137,238,135.78Z"/><path class="cls-35" d="M301.59,161.27c0,1.08,0,2.16,0,3.24-.3.25-.54.64-.94.69a87,87,0,0,1-22.69-.06c-.38,0-.67-.4-1-.63V154.14c1.42-1.24,3.17-1.23,4.89-1.24,4.78,0,9.55-.08,14.33,0s5.1.34,5.16,5.21A8.39,8.39,0,0,0,301.59,161.27Z"/><path class="cls-36" d="M3.92,184.67c-1-2.49-.53-5-.29-7.58.4-2.73-.75-5.6.71-8.25,7.54-1.43,15.1-.83,22.67-.34,1.15.34,1.38,1.27,1.46,2.29.11,4.9.81,9.81-.37,14.68a3.87,3.87,0,0,1-1.25-3.06c0-2-1.46-2.29-3-2.33-5.25-.13-10.5-.12-15.76,0-1.48,0-2.95.29-3,2.29A3.14,3.14,0,0,1,3.92,184.67Z"/><path class="cls-37" d="M301.59,161.27c-.15-.22-.4-.42-.44-.65-1.09-6.48-1.08-6.48-7.93-6.48H277v-9.58a5.44,5.44,0,0,1,3.68-1.22q8.31-.15,16.63,0a5.28,5.28,0,0,1,3.68,1.22h.64Z"/><path class="cls-37" d="M106.24,154.14c-6.47,0-12.95.14-19.42-.06-3.18-.1-5.21.38-4.62,4.18.06.43-.38.94-.59,1.41q0-7.56,0-15.11h24.62Z"/><path class="cls-36" d="M355.11,185.47c-1.12-3.54-.51-7.13-.38-10.71.59-2-.81-4.29,1-6.06,7.72-.94,15.44-1.23,23.14.16,1.4,3,.35,6.23.64,9.33a1.54,1.54,0,0,1-.69,1.17c-5.87,1.43-11.84.29-17.74.73-1.79.13-4.22-.75-4.73,2.23A3.93,3.93,0,0,1,355.11,185.47Z"/><path class="cls-38" d="M277,164.51h24.62v9.58H277Z"/><path class="cls-39" d="M81.62,164.51h24.62v9.58H81.62Z"/><path class="cls-40" d="M106.24,104.65h-20c-1.57,0-3.17-.19-4.57.76V96.62c1-1.56,2.51-1.58,4.14-1.57,6.82,0,13.65,0,20.48,0Z"/><path class="cls-41" d="M277,115c6.83,0,13.66,0,20.48,0,1.63,0,3.15,0,4.14,1.56v8.8c-3-1.5-6.19-.63-9.28-.72-5.11-.15-10.22,0-15.34,0Z"/><path class="cls-42" d="M262.39,126.94c-3.16-1.5-6.51-.58-9.76-.69-4.89-.17-9.78,0-14.67,0v-9.58c1.27-1.2,2.88-1.2,4.46-1.21,4.88-.06,9.75-.08,14.63,0s4.95.32,5.35,5.12Z"/><path class="cls-41" d="M340,123.8v8.79c-1.54,1.39-3.45,1.17-5.29,1.19-4.5.06-9,.05-13.52,0-2.63,0-3.93,1-3.86,3.76.05,2.25.09,4.51-.06,6.76-.33,2.25,1,4.94-1.74,6.54q0-13.89,0-27.79c7.45-1,14.91-.45,22.36-.27A3.23,3.23,0,0,1,340,123.8Z"/><path class="cls-43" d="M277,194.84c6.61,0,13.22.17,19.82-.07,3.3-.12,4.57.89,4.23,4.22-.16,1.49-.58,3.18.58,4.57,0,.29,0,.58,0,.86H277Z"/><path class="cls-22" d="M301,144.56H277V135c6.59,0,13.18.15,19.75-.06,3.17-.1,4.7.68,4.28,4.11A44.32,44.32,0,0,0,301,144.56Z"/><path class="cls-44" d="M277,45.59c6.58,0,13.17.15,19.75-.06,3.17-.11,4.69.68,4.27,4.11a44.32,44.32,0,0,0,0,5.53H277Q277,50.37,277,45.59Z"/><path class="cls-45" d="M145.25,194c.12,2.29.25,4.57.37,6.86.32,6.54.78,13.1-.23,19.63-1.63-1.6-1.19-3.66-1.23-5.61-.06-2.36-.09-4.72,0-7.08-.32-4.58-.34-4.62-4.89-4.66-4.12,0-8.25.13-12.36,0-3.28-.14-4.7,1.19-4.43,4.42-.24,1.95.77,4.28-1.69,5.55V194a3.08,3.08,0,0,1,1.26-.84c6.74-.77,13.51-.31,20.27-.28A4.08,4.08,0,0,1,145.25,194Z"/><path class="cls-46" d="M198.88,139v-8.78a4,4,0,0,1,2.85-1.15q9.44-.3,18.88,0a4.2,4.2,0,0,1,2.86,1.15V139a4.11,4.11,0,0,1-2.86,1.15q-9.44.3-18.88,0A4,4,0,0,1,198.88,139Z"/><path class="cls-47" d="M184.33,118.22h-24.6v-8.78a4.2,4.2,0,0,1,2.86-1.15q9.43-.3,18.89,0a4,4,0,0,1,2.85,1.15Z"/><path class="cls-48" d="M106.24,255.5c-6.59,0-13.18.16-19.77-.07-3.19-.11-4.77.73-4.23,4.11-1.41-2.88-.61-5.91-.62-8.89.56-5,.67-5.1,5.82-5.16,4.64-.06,9.27,0,13.91,0,1.73,0,3.47,0,4.89,1.23Z"/><path class="cls-49" d="M106.24,204.42c-6.83,0-13.66,0-20.48,0-1.63,0-3.15,0-4.14,1.56,0-.79,0-1.59,0-2.39a2.89,2.89,0,0,0,.65-2.21c.26-5.72.27-5.72,6.14-5.72h17.84Z"/><path class="cls-50" d="M145.29,222c-.9,5.49-3.93,9.18-9.44,10.25a12.07,12.07,0,0,1-12.39-4.42c-1.17-1.45-2.21-3-2.12-5a1.43,1.43,0,0,1,.24-2c7-1.6,14-.9,21-.39A4.45,4.45,0,0,1,145.29,222Z"/><path class="cls-18" d="M262.39,194q0,9.53,0,19.06c-2.54-1.31-1.37-3.73-1.7-5.69.19-3.34-1.61-4.3-4.66-4.22-4.48.12-9,.07-13.45,0-1.68,0-3.46.18-4.87-1.14a27.09,27.09,0,0,1,.08-8.14,3.6,3.6,0,0,1,2.51-1c6.94-.1,13.89-.52,20.82.23A3,3,0,0,1,262.39,194Z"/><path class="cls-51" d="M67.67,194.05v19.06c-2.57-1.29-1.38-3.72-1.72-5.69.19-3.33-1.59-4.31-4.66-4.23-4.48.12-9,.07-13.46,0-1.69,0-3.47.18-4.87-1.17-.23-2.74-.52-5.48.19-8.21a5.68,5.68,0,0,1,3.76-1c5.57-.07,11.13-.08,16.7,0C65.05,192.84,66.55,192.84,67.67,194.05Z"/><path class="cls-51" d="M315.53,213.12q0-9.54,0-19.07c.19-.18.37-.49.58-.52,8-1.06,15.91-1.49,23.84.22.94,2.69.39,5.44.34,8.17-1.32,1.49-3.12,1.25-4.81,1.27-4.51.08-9,.12-13.52,0-3-.07-4.9.82-4.72,4.2C316.94,209.38,318.1,211.81,315.53,213.12Z"/><path class="cls-41" d="M43.22,131.79v-8c1.15-1.11,2.63-1.18,4.09-1.2,5.3-.06,10.6-.09,15.91,0,1.7,0,3.52,0,4.45,1.93q0,6.38,0,12.75c-1.42-5.51-1.42-5.51-7.51-5.51Z"/><path class="cls-14" d="M43.22,108.64c6.76,0,13.52,0,20.27,0,1.62,0,3.2-.12,4.18,1.53v8.77c-6-2-12.27-.79-18.4-1.11-2.07-.11-4.26.36-6.05-1.2Z"/><path class="cls-52" d="M159.73,176.49v-8a4.22,4.22,0,0,1,2.86-1.15q9.43-.3,18.88,0a4.07,4.07,0,0,1,2.86,1.16v8a4.06,4.06,0,0,1-2.86,1.15q-9.43.29-18.88,0A4.22,4.22,0,0,1,159.73,176.49Z"/><path class="cls-29" d="M223.47,130.19H198.88c0-2.66,0-5.32,0-8h24.6Z"/><path class="cls-53" d="M184.33,168.51h-24.6v-8a4.22,4.22,0,0,1,2.86-1.15q9.43-.3,18.88,0a4.11,4.11,0,0,1,2.86,1.15Z"/><path class="cls-44" d="M198.88,89.49h24.59q0,4,0,8H198.87Q198.89,93.48,198.88,89.49Z"/><path class="cls-54" d="M106.24,233.15v8a3.68,3.68,0,0,1-2.12,1c-7.5.21-15,.69-22.5-.25V234.7a2.78,2.78,0,0,1,2.64-2.55c6.87-.3,13.76-.63,20.62.2A3,3,0,0,1,106.24,233.15Z"/><path class="cls-55" d="M379.21,178.84q-.06-4.77-.1-9.54c-1.16-3.07-3.46-3.87-6.57-3.68a86.82,86.82,0,0,1-10.7,0c-3.12-.19-5.41.62-6.59,3.68-.27,1.81.47,3.72-.52,5.46a91.74,91.74,0,0,1,0-13.57c.36-1.25-.3-2.63.46-3.83l.05-.06a5.23,5.23,0,0,1,3.67-1.19q8.28-.13,16.55,0a5.12,5.12,0,0,1,3.66,1.22c.21,1.25-.29,2.59.45,3.78a125.18,125.18,0,0,1,0,17.75Z"/><path class="cls-56" d="M379.57,134.83l-.45-1.45c-1.37-1.67-1.09-3.66-1.09-5.6-.08-2.63-.08-5.27,0-7.9-.06-2.11-.08-4.22,0-6.32-.13-6.13-.13-6.14-6.19-6.15h-9.14c-6.18,0-6.18,0-6.33,6,.06,2.08.08,4.15,0,6.23,0,2.54.08,5.08-.06,7.62-.21,1.1-.05,2.41-1.56,2.78,0-8.44-.16-16.88-.05-25.33a7.88,7.88,0,0,1,1.43-4.87,5.87,5.87,0,0,1,3.72-1.19c6.13.45,12.41-1.37,18.41,1.19a10.34,10.34,0,0,1,1.48,6.07C379.81,115.57,379.64,125.2,379.57,134.83Z"/><path class="cls-57" d="M315.53,213.12c1.15-1.73.33-3.68.59-5.51a4.06,4.06,0,0,1,2.51-1.09,194.72,194.72,0,0,1,19.48,0,3.42,3.42,0,0,1,1.82.73c1,2.69.41,5.46.37,8.2-1.32,1.46-3.11,1.23-4.79,1.27-3.68.07-7.37.13-11.05,0-3.34-.12-6.49.05-8.92,2.74C315.53,217.37,315.53,215.25,315.53,213.12Z"/><path class="cls-25" d="M121.36,194h-.55V163.81c6.5.44,13,.25,19.52.31,1.72,0,3.49-.11,4.91,1.19v7.19c-1.4,1.28-3.15,1.16-4.85,1.18-3.94,0-7.88,0-11.83,0-5.81,0-5.81,0-6,5.91.07,2.42.08,4.83,0,7.25S123.08,191.85,121.36,194Z"/><path class="cls-58" d="M261.87,66.29c-1.14,1.36-2.7.81-4.09.83-6.62,0-13.25,0-19.87,0a11.6,11.6,0,0,1,10.6-10.4C255.41,56.23,259.88,59.43,261.87,66.29Z"/><path class="cls-59" d="M262.39,194h-.55c-1.71-2.17-1.08-4.7-1.15-7.13s-.08-4.83,0-7.24c-.23-5.93-.23-5.94-6.1-6-4.11,0-8.22,0-12.33,0-1.57,0-3.21.09-4.51-1.11a19,19,0,0,1,.14-7.47,5.68,5.68,0,0,1,3.76-1q8.34-.12,16.68,0c1.45,0,2.95,0,4.06,1.23Z"/><path class="cls-58" d="M67.14,66.27c-1.14,1.38-2.7.84-4.09.85-6.63,0-13.25,0-19.88,0a11.57,11.57,0,0,1,10.6-10.39C60.49,56.11,65.1,59.39,67.14,66.27Z"/><path class="cls-60" d="M67.08,207.61c.27,1.83-.56,3.77.59,5.5v4.79c-6.1-2-12.39-.77-18.59-1.11-2.08-.12-4.29.41-6.1-1.17-.25-2.76-.57-5.52.2-8.25a6.34,6.34,0,0,1,4.12-1c5.12-.06,10.23-.05,15.35,0C64.23,206.38,65.81,206.45,67.08,207.61Z"/><path class="cls-28" d="M238.6,224.57c-1-1.21-.81-2.68-.8-4.1-.37-2-.68-4,.24-6,2.3-1.42,4.87-.89,7.34-.93,4-.08,7.92-.1,11.88,0,4.63.13,5,.49,4.95,5,0,1.43.34,2.9-.35,4.28h0c-1.67,1.39-3.69,1.14-5.63,1.2C250.36,224.16,244.46,223.58,238.6,224.57Z"/><path class="cls-25" d="M315.53,190.77q0-12.72,0-25.46c.19-.18.36-.49.58-.52,7.95-1.06,15.91-1.48,23.84.22,1,2.44.42,4.94.32,7.43-1.35,1.43-3.15,1.2-4.83,1.23-4.1.07-8.21,0-12.31,0-5.62,0-5.62,0-5.88,5.76,0,2.37.08,4.73,0,7.09C317,188.08,317.68,190,315.53,190.77Z"/><path class="cls-61" d="M67.67,165.31V190c-1.92-.49-1.42-2.15-1.68-3.45-.13-2.34-.08-4.68,0-7-.25-5.78-.25-5.78-6.2-5.8-4.09,0-8.18,0-12.27,0-1.57,0-3.2.09-4.49-1.12a19.11,19.11,0,0,1,.16-7.46,5.63,5.63,0,0,1,3.77-1q8.34-.12,16.69,0C65.06,164.11,66.56,164.11,67.67,165.31Z"/><path class="cls-62" d="M28,103.06c1.32,7.37.55,14.79.45,22.2-2.25-1-1.28-3.13-1.59-4.81-.08-1.57,0-3.14,0-4.71-.23-5.08-.25-5.1-5.14-5.14q-5.71,0-11.43,0c-4.88,0-4.89.07-5.12,5.16,0,1.59.07,3.17,0,4.75,0,2.28.07,4.57-.07,6.86-.21,1.08,0,2.4-1.59,2.71.09-9-.82-18,.55-27a4.8,4.8,0,0,1,3.27-1.19q8.72-.23,17.42,0A5,5,0,0,1,28,103.06Z"/><path class="cls-4" d="M28,103.06h-24A11.93,11.93,0,0,1,16.23,92.78,11.87,11.87,0,0,1,28,103.06Z"/><path class="cls-63" d="M315.52,150.86c1.21-2,.31-4.21.6-6.3a4,4,0,0,1,2.51-1.09,194.52,194.52,0,0,1,19.47,0,3.52,3.52,0,0,1,1.82.72c1.05,2.42.41,4.93.38,7.4-1.3,1.48-3.09,1.25-4.76,1.28-4.2.07-8.41,0-12.61,0-5.34,0-5.34.05-5.73,5.5-.23,1.13-.05,2.51-1.67,2.81Q315.53,156,315.52,150.86Z"/><path class="cls-14" d="M262.4,120.53c-.33-3.44-2.26-4.15-5.52-4-6.29.31-12.61.09-18.92.09v-7.18c6.76,0,13.51,0,20.26,0,1.61,0,3.21-.15,4.18,1.52Z"/><path class="cls-64" d="M121.41,221.18c0,.56,0,1.11-.07,1.66-1.35-3.18-.57-6.48-.54-9.73,1.12-1.74.31-3.67.58-5.5a4.79,4.79,0,0,1,3.26-1.18q8.67-.23,17.34,0a4.55,4.55,0,0,1,3.25,1.18v7.19c-1.39,1.28-3.14,1.16-4.84,1.19-3.41,0-6.84.22-10.23,0C125.88,215.62,122.35,216.12,121.41,221.18Z"/><path class="cls-64" d="M261.86,222.81c-.08-8-.08-8-7.93-8H238a12.81,12.81,0,0,1,0-7.46c1.78-1.25,3.82-1,5.79-1,4.52,0,9-.05,13.56,0,1.6,0,3.21.06,4.5,1.24.27,1.82-.54,3.76.58,5.49C262.43,216.35,263.22,219.64,261.86,222.81Z"/><path class="cls-65" d="M43.23,215.59c6.85,0,13.7.09,20.54-.05,2,0,3.26.48,3.9,2.36.24,1.95.37,3.88-.66,5.67-2.26,1.27-4.66.27-7,.35-5.39.2-10.81-.26-16.18.61-1-1.21-.8-2.67-.79-4.08A6.74,6.74,0,0,1,43.23,215.59Z"/><path class="cls-66" d="M261.83,151.74c.12,1-.31,2.2.57,3.1V162c-2.65-1.73-5.57-2.05-8.67-1.94-4,.15-7.95.08-11.92,0-1.44,0-2.94,0-4.09-1.14-.22-2.5-.59-5,.22-7.47,1.61-1.18,3.49-1,5.31-1,4.71,0,9.43-.05,14.15,0C259,150.52,260.56,150.58,261.83,151.74Z"/><path class="cls-48" d="M315.54,219.5c.35-3.4,2.25-4.16,5.53-4,6.29.32,12.62.09,18.93.09.78,1.3.48,2.65.2,4-.05,1.69.31,3.46-.86,5-6.27-1.08-12.59-.4-18.89-.58-1.43,0-2.9.31-4.26-.41A5.55,5.55,0,0,1,315.54,219.5Z"/><path class="cls-29" d="M340,123.8H319.75c-1.45,0-2.92.14-4.22-.74v-5.7c3.44-1.48,7.05-.58,10.57-.71,4.62-.16,9.26,0,13.88,0Q340,120.22,340,123.8Z"/><path class="cls-29" d="M43.22,116.62c6.85,0,13.7.09,20.55-.05,2,0,3.26.48,3.9,2.36v5.62c-3.16-1.5-6.51-.59-9.77-.7-4.89-.16-9.79,0-14.68,0Z"/><path class="cls-1" d="M4.08,127.8v-7.19a4.66,4.66,0,0,1,3.26-1.18q8.67-.21,17.34,0A4.74,4.74,0,0,1,28,120.61c.24,1.54-.42,3.19.52,4.65v4.79c-6-1.91-12.24-.74-18.36-1.06C8.05,128.88,5.87,129.34,4.08,127.8Z"/><path class="cls-67" d="M238.6,224.57c.3-2.14,2-1.78,3.37-1.78q9.94,0,19.91,0a11.7,11.7,0,0,1-10.17,9.56C245.34,233,240.86,230.35,238.6,224.57Z"/><path class="cls-29" d="M120.8,120.52c.33-3.44,2.28-4.14,5.53-4,6.29.3,12.61.08,18.91.08,0,2.4,0,4.79,0,7.18-6.76,0-13.51,0-20.27,0-1.61,0-3.21-.16-4.17,1.52C120.81,123.72,120.8,122.12,120.8,120.52Z"/><path class="cls-68" d="M67.08,186.86c.12,1-.31,2.21.6,3.11,0,1.36,0,2.72,0,4.08H43.23a12.73,12.73,0,0,1,0-7.46c1.78-1.25,3.83-1,5.79-1,4.53,0,9.05-.05,13.57,0C64.18,185.63,65.79,185.68,67.08,186.86Z"/><path class="cls-35" d="M67.08,151.74c.23,1.57-.51,3.25.6,4.7,0,1.34,0,2.67,0,4-6.58-.46-13.17-.25-19.76-.33-1.7,0-3.47.17-4.9-1.1a17.66,17.66,0,0,1,.18-7.52,6.39,6.39,0,0,1,4.12-1c5.12-.06,10.23-.05,15.34,0C64.23,150.51,65.81,150.58,67.08,151.74Z"/><path class="cls-17" d="M316.19,223.56c7.21-1.67,14.5-.46,21.75-.68,1,0,1.22.87,1.4,1.67q-3.12,8.08-11.92,7.87C322,232.27,317.85,229,316.19,223.56Z"/><path class="cls-69" d="M106.24,233.15c-6.83,0-13.65,0-20.48,0-1.63,0-3.15,0-4.14,1.57,0-1.33,0-2.66,0-4,.11-4.67,3-5,6.79-4.82,5.93.3,11.89.08,17.84.08Z"/><path class="cls-30" d="M315.53,190.77c1-1.18.41-2.6.59-3.91a4,4,0,0,1,2.51-1.09,194.72,194.72,0,0,1,19.48,0,3.49,3.49,0,0,1,1.83.73A12.43,12.43,0,0,1,340,194H315.54C315.53,193,315.53,191.86,315.53,190.77Z"/><path class="cls-67" d="M43.85,224.53c.42-.87,1-1.69,2-1.66,7.05.18,14.14-.9,21.14.7-1.68,5.46-5.81,8.71-11.25,8.85Q47,232.65,43.85,224.53Z"/><path class="cls-70" d="M277,226c6.48,0,13,.14,19.43-.06,3.18-.1,5.21.38,4.62,4.19-.07.42.37.93.58,1.4,0,.8,0,1.61,0,2.41-7.49.94-15,.46-22.5.25a3.69,3.69,0,0,1-2.12-1Z"/><path class="cls-3" d="M28.47,135.66a177.11,177.11,0,0,1,0,19.14c-1.5-.37-1.32-1.67-1.54-2.76-.15-2.49-.11-5-.08-7.48-.22-5.19-.22-5.2-5.48-5.23-3.56,0-7.13,0-10.69,0-5.28,0-5.28,0-5.51,5.21.06,2.49.06,5,0,7.45a17.29,17.29,0,0,1-.31,4c-.24.64-.5,1.26-1.34,1.26l.13-20.06c.05-5.63.15-5.76,5.69-5.81,5,0,10,0,15,0C27.3,131.39,28.75,132.63,28.47,135.66Z"/><path class="cls-71" d="M184.33,109.44h-24.6c-.18-2.54-.37-5.09,1.39-7.26a136.4,136.4,0,0,1,21.77,0C184.5,104.4,184.59,106.89,184.33,109.44Z"/><path class="cls-72" d="M159.73,156.53v-6.38a4.13,4.13,0,0,1,2.86-1.15q9.43-.3,18.88,0a4,4,0,0,1,2.86,1.15v6.38a4,4,0,0,1-2.86,1.15q-9.43.3-18.88,0A4.17,4.17,0,0,1,159.73,156.53Z"/><path class="cls-3" d="M159.73,139v-6.38a4.17,4.17,0,0,1,2.86-1.15q9.43-.3,18.88,0a4,4,0,0,1,2.86,1.15V139a4,4,0,0,1-2.86,1.15q-9.43.3-18.88,0A4.13,4.13,0,0,1,159.73,139Z"/><path class="cls-31" d="M198.88,183.67v-6.39a4,4,0,0,1,2.85-1.15q9.44-.28,18.88,0a4.2,4.2,0,0,1,2.86,1.15v6.39a4.2,4.2,0,0,1-2.86,1.15q-9.44.3-18.88,0A4,4,0,0,1,198.88,183.67Z"/><path class="cls-38" d="M43.23,158.92c6.75,0,13.51,0,20.26,0,1.62,0,3.2-.12,4.18,1.53v4.87H43.23c-.86-1-.31-2.13-.47-3.19C42.92,161.05,42.37,159.89,43.23,158.92Z"/><path class="cls-39" d="M315.53,161.25c.74-.64.55-1.51.59-2.32a4,4,0,0,1,2.51-1.1c6.49-.26,13-.33,19.46,0a3.56,3.56,0,0,1,1.83.72,9.68,9.68,0,0,1,.06,6.71H315.54C315.53,164,315.53,162.6,315.53,161.25Z"/><path class="cls-38" d="M238,158.92c6.7,0,13.4.17,20.1-.07,2.61-.1,3.84.8,4.33,3.17,0,1.1,0,2.2,0,3.3H238A9.36,9.36,0,0,1,238,158.92Z"/><path class="cls-73" d="M121.41,221.18a21.19,21.19,0,0,0-.06-2.39c-.43-3.09.73-4.19,4-4.07,6.63.25,13.28.08,19.92.08.06,1.91.11,3.82.16,5.73,0,.49-.07,1-.1,1.45C137.37,220.41,129.37,221.51,121.41,221.18Z"/><path class="cls-38" d="M145.24,165.31c-6.75,0-13.5,0-20.25,0-1.61,0-3.21.16-4.18-1.51,0-.6,0-1.19,0-1.78.51-1.25-.47-3,1.33-3.82,6.85-1.05,13.74-.43,20.61-.37a3.66,3.66,0,0,1,2.5,1.08Z"/><path class="cls-74" d="M81.62,241.89c3-1.49,6.19-.62,9.29-.71,5.11-.15,10.22,0,15.33,0v5.58c-6.35,0-12.71.24-19-.09-3.32-.18-5.1.76-5.58,4Z"/><path class="cls-75" d="M277,233.15H297c1.57,0,3.16-.19,4.57.76v7.17c-6.07-2-12.34-.84-18.52-1.14-2.09-.1-4.29.32-6.1-1.2Z"/><path class="cls-35" d="M223.47,150.15v5.58a4.11,4.11,0,0,1-2.86,1.15q-9.44.3-18.88,0a4,4,0,0,1-2.85-1.15v-5.58a4,4,0,0,1,2.85-1.15q9.44-.3,18.88,0A4.11,4.11,0,0,1,223.47,150.15Z"/><path class="cls-18" d="M198.88,183.67h24.59v5.59a4.2,4.2,0,0,1-2.86,1.15q-9.44.3-18.88,0a4,4,0,0,1-2.85-1.15Z"/><path class="cls-76" d="M159.73,139h24.6v5.59a4,4,0,0,1-2.86,1.15q-9.43.3-18.88,0a4.17,4.17,0,0,1-2.86-1.15Z"/><path class="cls-77" d="M223.47,177.28H198.88V171.7a4,4,0,0,1,2.85-1.15q9.44-.3,18.88,0a4.11,4.11,0,0,1,2.86,1.15Z"/><path class="cls-78" d="M223.47,199.63H198.88v-5.58a4.05,4.05,0,0,1,2.85-1.16q9.44-.28,18.88,0a4.16,4.16,0,0,1,2.86,1.16Z"/><path class="cls-76" d="M198.88,139h24.59v5.59a4.15,4.15,0,0,1-2.86,1.15q-9.44.3-18.88,0a4,4,0,0,1-2.85-1.15Z"/><path class="cls-79" d="M223.47,171.7H198.88v-5.59a4,4,0,0,1,2.85-1.15q9.44-.3,18.88,0a4.15,4.15,0,0,1,2.86,1.15Z"/><path class="cls-63" d="M159.73,144.56h24.6v5.59h-24.6Z"/><path class="cls-39" d="M198.88,155.73h24.59v5.59a4.15,4.15,0,0,1-2.86,1.15q-9.44.3-18.88,0a4,4,0,0,1-2.85-1.15Z"/><path class="cls-63" d="M198.88,144.56h24.59v5.59H198.88Z"/><path class="cls-80" d="M277,238.74c6.9,0,13.8.1,20.69-.06,2,0,3.22.6,3.93,2.4v5.59c-.7-1.79-1.89-2.45-3.93-2.4-6.89.15-13.79.06-20.69.06Z"/><path class="cls-29" d="M379.12,127.8v5.58H358.91c-1.58,0-3.23.27-4.17-1.47,0-.62,0-1.24,0-1.85.64-.65.45-1.5.52-2.28a4.79,4.79,0,0,1,3.26-1.18q8.67-.21,17.35,0A4.66,4.66,0,0,1,379.12,127.8Z"/><path class="cls-81" d="M162,188.48a4.26,4.26,0,0,1-1.54-3.18c-.79-2.75,1.23-3.34,3.07-3.48a129.81,129.81,0,0,1,17.53,0c1.51.09,3.47.35,2.64,2.86a4.84,4.84,0,0,1-1.68,3.8A34.48,34.48,0,0,1,162,188.48Z"/><path class="cls-4" d="M182.89,102.22a56.75,56.75,0,0,1-21.77,0c1.95-4.79,6-6.73,10.68-6.77C176.64,95.37,180.8,97.35,182.89,102.22Z"/><path class="cls-29" d="M28.47,135.66c-.36-2.53-1.76-3.27-4.32-3.14a118.37,118.37,0,0,1-14.59,0c-3.76-.28-6,.52-5.93,4.69q-.06-3.56-.13-7.11c.7-.63.48-1.5.58-2.28,6.84,0,13.67.06,20.51,0,1.89,0,3.36.21,3.88,2.29Z"/><path class="cls-61" d="M198.88,161.32h24.59v4.79H198.88Z"/><path class="cls-82" d="M223.47,194.05h-24.6c0-1.6,0-3.2,0-4.79h24.59Z"/><path class="cls-83" d="M3.5,157.25l.59-.72c1.39-1.29,3.14-1.24,4.85-1.25,4.62-.05,9.25-.07,13.87,0,5.42.08,5.76.49,5.39,6a3.14,3.14,0,0,1-2.44,1.13c-7,.12-13.94.67-20.89-.32C3,161.3,4,159.51,3.5,158.23Z"/><path class="cls-84" d="M378.24,99.86H356.11c2-5,6.2-7,11.06-7S376.2,94.92,378.24,99.86Z"/><path class="cls-85" d="M28,186.06a6.94,6.94,0,0,1-1.82,4.79,35.43,35.43,0,0,1-20.35,0A6.94,6.94,0,0,1,4,186.06a4.9,4.9,0,0,1,3.28-1.19q8.72-.21,17.43,0A5.13,5.13,0,0,1,28,186.06Z"/><path class="cls-85" d="M379.16,186.06a6.89,6.89,0,0,1-1.82,4.79c-1.82,1.37-4,1.38-6,1.22-4.77-.38-9.71,1.16-14.3-1.22a6.9,6.9,0,0,1-1.83-4.79,5.55,5.55,0,0,1,3.68-1.22q8.32-.14,16.64,0A5.35,5.35,0,0,1,379.16,186.06Z"/><path class="cls-38" d="M28,161.32c.75-3.87-.86-5-4.71-4.87-6.38.3-12.77.08-19.16.08,0-1.33,0-2.66,0-4a4.62,4.62,0,0,1,3.26-1.19q8.67-.21,17.34,0A4.71,4.71,0,0,1,28,152.54c.08.78-.12,1.62.52,2.26a125.62,125.62,0,0,1,0,16c-.17-.5-.34-1-.52-1.5A7.12,7.12,0,0,1,28,161.32Z"/><path class="cls-26" d="M159.73,156.53h24.6v4h-24.6Z"/><path class="cls-29" d="M184.33,132.59h-24.6v-4h24.6Z"/><path class="cls-78" d="M379.16,186.06h-24a.62.62,0,0,1-.06-.59l.15-3.4a3.86,3.86,0,0,1,2.49-1.09c6.47-.25,12.95-.33,19.42.05a3.56,3.56,0,0,1,1.83.7,2.65,2.65,0,0,1,.25,2.94Z"/><path class="cls-57" d="M28,186.06H4l-.12-1.39c.06-.86.12-1.73.17-2.6a4.63,4.63,0,0,1,3.26-1.18q8.67-.22,17.34,0A4.74,4.74,0,0,1,28,182.07c.05,1.13.1,2.26.14,3.4A.62.62,0,0,1,28,186.06Z"/><path class="cls-86" d="M183.7,184.66c-.21-1.84-1.57-1.79-2.93-1.79-5.66,0-11.31,0-17,0-1.76,0-3.17.32-3.34,2.44-1.27-1.74-.78-3.71-.73-5.62a4.17,4.17,0,0,1,2.86-1.15q9.43-.3,18.88,0a4,4,0,0,1,2.86,1.15C184.4,181.38,184.84,183.12,183.7,184.66Z"/><path class="cls-87" d="M5.86,190.85H26.21C20.78,198.16,11.28,198.16,5.86,190.85Z"/><path class="cls-87" d="M357,190.85h20.34C371.92,198.16,362.43,198.16,357,190.85Z"/><path class="cls-82" d="M184.33,179.68h-24.6v-3.19h24.6Z"/><path class="cls-88" d="M162,188.48l20,0C176.6,195.59,167.56,195.6,162,188.48Z"/><path class="cls-41" d="M340,165.31v-6.39a6.24,6.24,0,0,1,0-7.17v-7.19c-1.67-3.75-2-7.49.19-11.18h.11a27.75,27.75,0,0,1,.35,3.13q0,40,0,80c0,1,.2,2.13-.45,3.09-.06-1.33-.12-2.67-.19-4q0-4,0-8a4.41,4.41,0,0,1,0-5.57v-8q0-3.6,0-7.18c-1.62-2.21-1-4.74-1.07-7.18s-.55-5,1.07-7.18Z"/><path class="cls-59" d="M238,207.61c0,2.39,0,4.79,0,7.18-.05,1.9-.1,3.79-.16,5.68-1-2-.5-4.17-.48-6.25.14-11.25-.47-22.5.32-33.75l.59.4c1.14,2,.69,4.13.78,6.24,0,2.35.52,4.8-1,6.93v8A4.45,4.45,0,0,1,238,207.61Z"/><path class="cls-34" d="M237.8,180.47h-.16c-.6-13-.56-26.08,0-39.13l.17,0c1.1.86,1.14,2.1,1.21,3.33,0,2.4.55,4.88-1,7.05v13.57q0,3.58,0,7.19c1.5,2.15,1.14,4.5.7,6.86A2.31,2.31,0,0,1,237.8,180.47Z"/><path class="cls-61" d="M43.23,186.86V202a4.47,4.47,0,0,1,0,5.58v8c-.06,1.62-.11,3.24-.17,4.86-1.08-3.9-.48-7.88-.45-11.81,0-8.06-.51-16.13.32-24.18.16.1.32.2.49.29A1.76,1.76,0,0,1,43.23,186.86Z"/><path class="cls-11" d="M43,184.46h-.1a134.27,134.27,0,0,1,0-22.33H43c.06,1.06.12,2.12.19,3.19,0,2.39,0,4.79,0,7.19,1.61,2.19,1,4.7,1.07,7.12C44.24,181.33,44.55,183.14,43,184.46Z"/><path class="cls-44" d="M316.1,103.05h-.57V83.9h.57c2.19,3.24.9,6.87,1.17,10.33C317.09,97.2,318.12,100.33,316.1,103.05Z"/><path class="cls-41" d="M43,162.12h-.11a85.66,85.66,0,0,1,0-17.61h.17l.11.1a6.16,6.16,0,0,1,0,7.13v7.18C43.16,160,43.1,161.05,43,162.12Z"/><path class="cls-44" d="M121.36,103.85h-.55q0-8.79,0-17.57h.55c2,2.71,1,5.82,1.17,8.77C122.35,98,123.36,101.14,121.36,103.85Z"/><path class="cls-83" d="M4.09,169.3c-.33,2.59.44,5.24-.46,7.8a79,79,0,0,1,0-14.18,1.24,1.24,0,0,1,1,.76C5.21,165.63,5.39,167.54,4.09,169.3Z"/><path class="cls-63" d="M121.38,158.93c-.12,1,.3,2.19-.58,3.1q0-5.15,0-10.29h.54l.49.51C122.68,154.53,122.88,156.79,121.38,158.93Z"/><path class="cls-36" d="M379.25,184.67c-.05-.87-.09-1.73-.14-2.6a2.36,2.36,0,0,1,0-3.15l.09-.08.34,0C379.84,180.82,380.24,182.78,379.25,184.67Z"/><path class="cls-38" d="M4,162.92H3.66c-.05-1.56-.1-3.13-.16-4.69.84.91.42,2.06.59,3.09A1.11,1.11,0,0,1,4,162.92Z"/><path class="cls-38" d="M355.19,157.36c-.09,1.28.4,2.64-.46,3.83,0-1.29,0-2.58,0-3.87Z"/><path class="cls-8" d="M121.38,95.07l0-8.78,0-2.39a4.78,4.78,0,0,1,3.26-1.19q8.67-.21,17.35,0a4.56,4.56,0,0,1,3.25,1.19V95.07A4.59,4.59,0,0,1,142,96.26q-8.67.21-17.34,0A4.8,4.8,0,0,1,121.38,95.07Z"/><path class="cls-44" d="M145.24,83.91H121.38c-.06-10.38-.06-10.38,10.18-10.38,3.3,0,6.61.16,9.9,0,2.84-.18,4.22.6,3.89,3.7C145.11,79.4,145.26,81.66,145.24,83.91Z"/><path class="cls-6" d="M121.38,95.07h23.86v9.58c-6.73,0-13.45,0-20.18,0-1.26,0-2.67.44-3.7-.78C121.37,100.92,121.37,98,121.38,95.07Z"/><path class="cls-89" d="M340.17,133.38c-.06,3.73-.13,7.46-.19,11.18H316.12c0-2.79.14-5.59-.05-8.37s.77-3.73,3.59-3.66c6.78.18,13.56.06,20.33.06Z"/><path class="cls-47" d="M316.12,94.28q0-5.19,0-10.38c0-.26,0-.53,0-.8a4.85,4.85,0,0,1,3.26-1.18q8.69-.23,17.35,0A4.51,4.51,0,0,1,340,83.11V94.27a4.51,4.51,0,0,1-3.25,1.19q-8.67.23-17.35,0A4.85,4.85,0,0,1,316.12,94.28Z"/><path class="cls-90" d="M316.12,94.28H340v10.38c-6.82,0-13.63,0-20.45,0-1.32,0-3,.61-3.43-1.58C316.11,100.13,316.12,97.2,316.12,94.28Z"/><path class="cls-44" d="M340,83.11H316.12c0-9.58,0-9.58,9.39-9.58,3.57,0,7.14.16,10.69,0,2.84-.17,4.24.59,3.89,3.7A58.51,58.51,0,0,0,340,83.11Z"/><path class="cls-76" d="M121.38,144.56c0-8.78,0-8.78,8.59-8.78,3.83,0,7.67.22,11.48-.07,3.3-.24,4.21,1.13,3.88,4.11-.17,1.56-.07,3.16-.09,4.74a4.59,4.59,0,0,1-3.26,1.19q-8.67.21-17.34,0A4.8,4.8,0,0,1,121.38,144.56Z"/><path class="cls-77" d="M121.38,186.86v-7.18a4.8,4.8,0,0,1,3.26-1.19q8.67-.21,17.35,0a4.56,4.56,0,0,1,3.25,1.19q0,3.58,0,7.18a4.64,4.64,0,0,1-3.26,1.19q-8.67.21-17.35,0A4.8,4.8,0,0,1,121.38,186.86Z"/><path class="cls-63" d="M121.38,144.56h23.86v7.19a4.59,4.59,0,0,1-3.26,1.18q-8.67.21-17.33,0a4.83,4.83,0,0,1-3.27-1.17l0,0Z"/><path class="cls-35" d="M121.38,151.76h23.86v7.17H121.38Z"/><path class="cls-79" d="M145.24,179.68H121.38c0-7.19,0-7.19,7.12-7.19h16.74Z"/><path class="cls-30" d="M121.38,186.86h23.87V194H121.36C121.37,191.64,121.37,189.25,121.38,186.86Z"/><path class="cls-91" d="M43.23,151.74l0-7.13c6.38,0,12.78.2,19.14-.13,3.88-.21,5.38,1.06,4.77,4.87a14.66,14.66,0,0,0,0,2.39Z"/><path class="cls-92" d="M43.23,89.49c0-3.3,0-6.6-.1-9.9-.05-1.94.52-2.93,2.68-2.9q9.3.14,18.62,0c2.15,0,2.73,1,2.68,2.89-.08,3.3,0,6.61,0,9.91a4.84,4.84,0,0,1-3.26,1.18q-8.67.22-17.34,0A4.5,4.5,0,0,1,43.23,89.49Z"/><path class="cls-93" d="M43.23,89.49H67.08v8.77H43.23Z"/><path class="cls-8" d="M261.82,83.9V96.67H238q0-6.39,0-12.76a4.59,4.59,0,0,1,3.26-1.19q8.67-.23,17.34,0A4.83,4.83,0,0,1,261.82,83.9Z"/><path class="cls-94" d="M355.25,152.54c-.09-8-.09-8,7.79-8,3.82,0,7.67.26,11.46-.07s5.25,1.18,4.69,4.89a22.14,22.14,0,0,0-.07,3.16,4.7,4.7,0,0,1-3.26,1.19q-8.67.21-17.35,0A4.75,4.75,0,0,1,355.25,152.54Z"/><path class="cls-38" d="M355.25,152.54h23.87v4.79l-23.88,0C355.25,155.71,355.25,154.13,355.25,152.54Z"/><path class="cls-95" d="M261.82,83.9H238c-.24-8.79-.24-8.79,8.54-8.79,3.83,0,7.67.22,11.47-.07,3.31-.24,4.22,1.12,3.9,4.11A46.78,46.78,0,0,0,261.82,83.9Z"/><path class="cls-76" d="M238,144.56l-.18-3.2c.06-1.86.11-3.72.17-5.58,6.51,0,13,.21,19.53-.08,3.58-.16,4.87,1,4.38,4.48a33.64,33.64,0,0,0-.05,4.38,4.78,4.78,0,0,1-3.26,1.19q-8.67.21-17.34,0A4.56,4.56,0,0,1,238,144.56Z"/><path class="cls-96" d="M238,144.56h23.85c0,2.39,0,4.79,0,7.18H238Q238,148.15,238,144.56Z"/><path class="cls-97" d="M4,162.92l.12-1.6H28v8H4.09Z"/><path class="cls-70" d="M28,182.07H4.09c-.38-2.38.56-3.29,3-3.23,5.92.13,11.86.13,17.78,0C27.38,178.78,28.3,179.71,28,182.07Z"/><path class="cls-98" d="M355.25,169.3c-.7-3.77.73-5.14,4.64-4.87a106.32,106.32,0,0,0,14.61,0c3.9-.26,5.37,1.07,4.61,4.87Z"/><path class="cls-70" d="M379.12,178.92c0,1.05,0,2.1,0,3.15H355.25c-.33-2.34.55-3.28,3-3.23C365.22,179,372.17,178.91,379.12,178.92Z"/><path class="cls-99" d="M145.23,207.61H121.38c0-5.58,0-5.58,5.43-5.58h13.05C145.39,202,145.39,202,145.23,207.61Z"/><path class="cls-30" d="M238,194v-7.18a4.55,4.55,0,0,1,3.25-1.18q8.67-.23,17.34,0a4.77,4.77,0,0,1,3.26,1.18c0,2.39,0,4.78,0,7.17Z"/><path class="cls-99" d="M238,207.61V202H256.3c5.55,0,5.55,0,5.52,5.58Z"/><path class="cls-99" d="M43.23,207.61V202H61.56c5.54,0,5.54,0,5.52,5.58Z"/><path class="cls-82" d="M340,202v5.58H316.12c0-5.58,0-5.58,5.53-5.58Z"/><path class="cls-1" d="M379.12,127.8H355.25v-8a4.74,4.74,0,0,1,3.26-1.18q8.67-.21,17.35,0a4.65,4.65,0,0,1,3.25,1.18Q379.13,123.8,379.12,127.8Z"/><path class="cls-7" d="M355.25,113.43c0-8.57-.92-7,7-7.17,4.09-.07,8.19.25,12.25-.09s5.27,1.18,4.68,4.89a17,17,0,0,0-.07,2.37,4.62,4.62,0,0,1-3.25,1.19q-8.67.21-17.35,0A4.75,4.75,0,0,1,355.25,113.43Z"/><path class="cls-90" d="M355.25,113.43h23.87c0,2.13,0,4.26,0,6.38H355.25Z"/><path class="cls-98" d="M261.82,186.86H238c-.06-2.13-.11-4.26-.17-6.39,0-.26.11-.53.16-.79a4.59,4.59,0,0,1,3.26-1.19q8.67-.21,17.34,0a4.78,4.78,0,0,1,3.26,1.19Z"/><path class="cls-100" d="M261.82,179.68H238V172.5c6.38,0,12.77.23,19.13-.09,3.89-.2,5.38,1.07,4.76,4.88A17.29,17.29,0,0,0,261.82,179.68Z"/><path class="cls-77" d="M340,179.68v7.18H316.12v-7.18a4.82,4.82,0,0,1,3.27-1.19q8.67-.21,17.34,0A4.56,4.56,0,0,1,340,179.68Z"/><path class="cls-100" d="M340,179.68H316.12c0-7.19,0-7.19,7.12-7.19H340Z"/><path class="cls-101" d="M43,184.46l.19-4.78a4.55,4.55,0,0,1,3.26-1.19q8.67-.21,17.34,0a4.8,4.8,0,0,1,3.26,1.19v7.18H43.23C43.16,186.06,43.09,185.26,43,184.46Z"/><path class="cls-79" d="M67.08,179.68H43.22V172.5c6.38,0,12.77.23,19.13-.09,3.89-.2,5.37,1.07,4.76,4.88A14.65,14.65,0,0,0,67.08,179.68Z"/><path class="cls-47" d="M4.09,115.83c0-.4,0-.79,0-1.19,0-5.19,0-5.2,5-5.2,4.22,0,8.44,0,12.65,0,6.78.09,6.26-1.13,6.21,6.38A4.72,4.72,0,0,1,24.69,117q-8.67.22-17.34,0A4.66,4.66,0,0,1,4.09,115.83Z"/><path class="cls-6" d="M4.09,115.83H28v4.78H4.09Z"/><path class="cls-66" d="M340,151.75v7.17H316.12c0-7.19,0-7.19,7.12-7.19Z"/><path class="cls-94" d="M28,152.54H4.09v-8a4.67,4.67,0,0,1,3.26-1.19q8.67-.21,17.34,0A4.75,4.75,0,0,1,28,144.56Z"/><path class="cls-76" d="M28,144.56H4.09c0-.39,0-.79,0-1.18,0-5.2,0-5.2,5-5.2,4.22,0,8.44-.05,12.65,0C28.5,138.27,28,137,28,144.56Z"/></svg>