<svg id="Layer_1" data-name="Layer 1" xmlns="http://www.w3.org/2000/svg" viewBox="0 0 384 390.64"><defs><style>.cls-1{fill:#fce5ef;}.cls-2{fill:#fce0ec;}.cls-3{fill:#fdecf3;}.cls-4{fill:#fdeff5;}.cls-5{fill:#8897cc;}.cls-6{fill:#fad1e3;}.cls-7{fill:#f9cee1;}.cls-8{fill:#fce2ed;}.cls-9{fill:#fde9f2;}.cls-10{fill:#fce7f0;}.cls-11{fill:#fef2f7;}.cls-12{fill:#95a1d2;}.cls-13{fill:#fbdcea;}.cls-14{fill:#fef7fa;}.cls-15{fill:#99a5d4;}.cls-16{fill:#fef6f9;}.cls-17{fill:#7ccab1;}.cls-18{fill:#fbdae8;}.cls-19{fill:#7ecbb5;}.cls-20{fill:#8595cb;}.cls-21{fill:#8393ca;}.cls-22{fill:#7ac9ae;}.cls-23{fill:#f27fb2;}.cls-24{fill:#697cbc;}.cls-25{fill:#61c196;}.cls-26{fill:#8494ca;}.cls-27{fill:#81cdbb;}.cls-28{fill:#bec4e4;}.cls-29{fill:#c3cae6;}.cls-30{fill:#7d8dc7;}.cls-31{fill:#8091c9;}.cls-32{fill:#c2c9e6;}.cls-33{fill:#7fcdc3;}.cls-34{fill:#7284c1;}.cls-35{fill:#59c7d7;}.cls-36{fill:#80cdbf;}.cls-37{fill:#798ac5;}.cls-38{fill:#7587c3;}.cls-39{fill:#79ccc8;}.cls-40{fill:#6ecace;}.cls-41{fill:#73cbcb;}.cls-42{fill:#61c8d4;}.cls-43{fill:#8e9bce;}.cls-44{fill:#68c9d1;}.cls-45{fill:#8998cc;}.cls-46{fill:#8796cc;}.cls-47{fill:#d6a3cb;}.cls-48{fill:#8493ca;}.cls-49{fill:#7f90c8;}.cls-50{fill:#7a8ac5;}.cls-51{fill:#bf97c6;}.cls-52{fill:#cd9fc9;}.cls-53{fill:#8d9ace;}.cls-54{fill:#71c6a0;}.cls-55{fill:#71c59d;}.cls-56{fill:#b2badf;}.cls-57{fill:#74c7a3;}.cls-58{fill:#72c6a1;}.cls-59{fill:#798ac4;}.cls-60{fill:#7687c3;}.cls-61{fill:#7385c2;}.cls-62{fill:#f6f7fc;}.cls-63{fill:#f0f1f9;}.cls-64{fill:#7c8fc8;}.cls-65{fill:#8594cb;}.cls-66{fill:#e6e9f6;}.cls-67{fill:#ebeef8;}.cls-68{fill:#e1e5f4;}.cls-69{fill:#dce0f1;}.cls-70{fill:#c8cfe9;}.cls-71{fill:#f8bbd5;}.cls-72{fill:#f8c0d8;}.cls-73{fill:#fffeff;}.cls-74{fill:#f7bad5;}.cls-75{fill:#8292c9;}.cls-76{fill:#8997cc;}.cls-77{fill:#7d8dc6;}.cls-78{fill:#8090c8;}.cls-79{fill:#ba94c4;}.cls-80{fill:#c4cbe7;}.cls-81{fill:#78c8ab;}.cls-82{fill:#cad1ea;}.cls-83{fill:#76c8ae;}.cls-84{fill:#80ccb8;}.cls-85{fill:#e3f3ef;}.cls-86{fill:#c9e3f1;}.cls-87{fill:#9ad6cf;}.cls-88{fill:#b1dfde;}.cls-89{fill:#dce2f3;}.cls-90{fill:#7a8cc6;}.cls-91{fill:#f074ac;}.cls-92{fill:#b7c1e3;}.cls-93{fill:#c9cfe9;}.cls-94{fill:#cdd3eb;}.cls-95{fill:#697dbd;}.cls-96{fill:#7688c4;}.cls-97{fill:#7184c2;}.cls-98{fill:#6c80bf;}.cls-99{fill:#62c8d4;}.cls-100{fill:#b9d0ec;}.cls-101{fill:#81d1de;}.cls-102{fill:#8796cb;}.cls-103{fill:#a4aed8;}.cls-104{fill:#fef8fa;}.cls-105{fill:#f2f3fa;}.cls-106{fill:#eceff8;}.cls-107{fill:#e5e8f5;}.cls-108{fill:#e8ebf6;}.cls-109{fill:#e0e3f3;}.cls-110{fill:#d1a1ca;}.cls-111{fill:#c89dc8;}.cls-112{fill:#c49ac7;}.cls-113{fill:#dbdff1;}.cls-114{fill:#d0d6ed;}.cls-115{fill:#d6daef;}.cls-116{fill:#ccd2eb;}.cls-117{fill:#c5abd2;}.cls-118{fill:#c89cc8;}.cls-119{fill:#cdb0d4;}.cls-120{fill:#b7bfe1;}.cls-121{fill:#b5bde0;}.cls-122{fill:#8191c9;}.cls-123{fill:#74c7a6;}.cls-124{fill:#75c7a6;}.cls-125{fill:#ea96c0;}.cls-126{fill:#ed95bf;}.cls-127{fill:#f094be;}.cls-128{fill:#e296c1;}.cls-129{fill:#e796c0;}.cls-130{fill:#d7dbef;}.cls-131{fill:#d994c1;}.cls-132{fill:#de96c1;}.cls-133{fill:#f499c1;}.cls-134{fill:#7c8ec7;}.cls-135{fill:#f394be;}.cls-136{fill:#f497c0;}.cls-137{fill:#fdf1f7;}.cls-138{fill:#8392c9;}.cls-139{fill:#9da9d6;}.cls-140{fill:#f280b3;}.cls-141{fill:#a5afd9;}.cls-142{fill:#677ebe;}.cls-143{fill:#637abc;}.cls-144{fill:#9ba6d4;}.cls-145{fill:#657cbd;}.cls-146{fill:#a5aed9;}.cls-147{fill:#919fd0;}.cls-148{fill:#96a2d2;}.cls-149{fill:#9aa6d4;}.cls-150{fill:#95a2d2;}.cls-151{fill:#80cdc2;}.cls-152{fill:#7ccdc6;}.cls-153{fill:#80cdbe;}.cls-154{fill:#75cbca;}.cls-155{fill:#6ccace;}.cls-156{fill:#919ed0;}.cls-157{fill:#e0f2f3;}.cls-158{fill:#d5eaf4;}.cls-159{fill:#d8eff3;}.cls-160{fill:#bcd6ef;}.cls-161{fill:#c5dff2;}.cls-162{fill:#c78ebf;}.cls-163{fill:#bec7e5;}.cls-164{fill:#bec7e6;}.cls-165{fill:#d1d6ed;}.cls-166{fill:#c4dbf2;}.cls-167{fill:#d493c1;}.cls-168{fill:#cf90c0;}.cls-169{fill:#9ca7d5;}.cls-170{fill:#facee1;}.cls-171{fill:#f9cbdf;}.cls-172{fill:#a1acd7;}.cls-173{fill:#788ac5;}.cls-174{fill:#f17db1;}.cls-175{fill:#abb5dc;}.cls-176{fill:#a7b2da;}.cls-177{fill:#a2add8;}.cls-178{fill:#9ea8d5;}.cls-179{fill:#97a2d2;}.cls-180{fill:#cb8fbf;}.cls-181{fill:#9fa9d6;}.cls-182{fill:#fcfcfe;}</style></defs><path class="cls-1" d="M309.3,92.86c-2.72,4.77-4.66,9.63-1.45,15a4.42,4.42,0,0,0,.77.79c-.87,3.69.33,7.69-1.71,11.2a3.26,3.26,0,0,1-2.71,1c-11-12.34-22.95-23.67-34.79-35.15A7.46,7.46,0,0,1,267.14,80c-.56-4.18.94-8.24.7-12.4,0-.74,0-1.49,0-2.23-.17-4-1.65-5.13-5.71-4.86-5.44.36-10.83,1.55-16.31,1-2.57-1-3.71-3.58-5.53-5.38q-17.35-17.16-34.49-34.51c-1.26-1.27-4-2.59-1.23-5,7-1.14,14-2.29,21-3.4,1.21-.2,2.44-.24,3.66-.35,8.24,9.53,17.55,18,26.39,27,13.23,13.38,26.58,26.64,39.9,39.93C300,84.18,304.33,88.87,309.3,92.86Z"/><path class="cls-2" d="M334,62.92c-4.42,6.92-10.16,12.74-15.7,18.71-2.24,1.14-3.16-.86-4.28-2C306.39,72.18,298.86,64.59,291.3,57L252,17.73a17.72,17.72,0,0,1-2.95-3.35c-.79-1.33-1.48-2.72.39-3.81,9.66-1,19.36-.76,29.05-.74,1.31,0,2.77-.49,3.89.71.88,1.84,2.47,3.1,3.86,4.5C302.14,31,318.2,46.84,334,62.92Z"/><path class="cls-3" d="M129.74,37.49C140.43,33.89,151,29.94,161.91,27a18,18,0,0,0,4.22,5.62Q193.33,59.77,220.45,87c1.29,1.29,3,2.36,3.26,4.4-1.82,4.1-5.45,6.58-8.6,9.44-1.46,1.32-2.73-.12-3.81-1.11-3-2.75-5.59-5.92-8.82-8.42-2.93-3.21-5.89-6.41-9.07-9.37-4.54-4.22-8.61-4.12-13.08.16-1.5,1.44-2.71,3.28-4.9,3.88-1.86.18-2.92-1.12-4.09-2.21a90.5,90.5,0,0,1-13.57-15.67c-.59-3.36.85-5.49,4-6.59.59-.21,1.19-.36,1.76-.62,1.19-.55,2.18-1.3,2.21-2.73s-1.13-2.19-2.34-2.52c-3.15-.85-5.28-2.6-6-5.92-.31-1.38-1-2.65-2.74-2.53a3.08,3.08,0,0,0-2.79,2.64c-1.09,4.62-4.27,6.05-8.6,5.9-4.06-4.68-8.89-8.64-12.74-13.51C129.38,40.74,128.43,39.32,129.74,37.49Z"/><path class="cls-4" d="M158.27,68.17c2.34,1.33,3.35,3.81,5,5.72,3.64,4.18,7.07,8.58,12,11.46.31,3-2.72,3.76-3.93,5.74-4.4,4.3-8.69,8.72-13.09,13-1.1,1.08-2,2.59-3.9,2.43-2.69-2.43-3.05-6.32-5.56-8.86a34.07,34.07,0,0,0-9.24-9.6c-5-3.31-10.18-6-16.15-7.06a2.89,2.89,0,0,1-1.95-.93c-.42-2.08-2-3.37-3.37-4.76-6.47-6.5-13-12.93-19.39-19.48-1-1-3.23-2.11-1.1-4.13a342.67,342.67,0,0,1,32.17-14.22c.36,4.49,3.64,7,6.64,9.66a26.41,26.41,0,0,1,6.88,8.42c0,3.4,1.56,5.43,5,6.21,1.61.37,2.5,1.89,3.17,3.45C153.41,69.89,153.49,69.9,158.27,68.17Z"/><path class="cls-5" d="M32.56,288.92c3.36-17.05,7-34,11.12-50.92,10,.73,20.08.18,30.11.37,2,0,4-.27,5.8.84,1.77,2.42,1.21,5.18,1,7.8s-.54,5.36-.62,8.05c-.49,4.72-.66,9.47-1,14.21-1,3.44-.08,7-.66,10.49-.91,3.35-.32,6.84-.83,10.23a2.81,2.81,0,0,1-.59,1.12,1,1,0,0,1-1.16.07c-1.33-1.81-3.23-2-5.3-2s-4,.22-5.42-1.71c-.85-4.09.33-8.11.52-12.16a24.26,24.26,0,0,0,.21-4.82c-.18-1.18-.66-2.19-2-2.32a2.62,2.62,0,0,0-2.61,1.74c-.63,1.26-.44,2.68-.68,4-.87,5-.3,10.18-2.67,14.88A4.86,4.86,0,0,1,55,289.86c-6.82.36-13.65.34-20.48,0A2.67,2.67,0,0,1,32.56,288.92Z"/><path class="cls-6" d="M89.33,206.61c.84-8-.07-14.49-8.26-19.62-8.46-5.3-12.64-14.7-14.95-24.53,1-1.57,2.63-1.79,4.25-1.82,4.82-.08,9.65-.27,14.46.12,3.76,2.24,7.52,2.66,11.3,0,8.72-.49,17.44-.2,26.16-.17a5,5,0,0,1,3.79,1.33,3.94,3.94,0,0,1,.84,1.86c.32,3.71.15,7.43.17,11.14,0,7.26.09,7.32,7.18,7.37a16,16,0,0,1,5.16.41c2.3,1.75.15,2.87-.75,3.83a37.74,37.74,0,0,1-17.43,10.29,16.43,16.43,0,0,1-1.8.47c-5.11,1.13-5.11,1.13-6.09,6.29a2.72,2.72,0,0,1-.82,1.62c-2-.33-1.69-2-1.72-3.23-.07-2.33-1-3.29-3.41-3.37a39.7,39.7,0,0,1-13.87-2.75c-1.84-.75-2.39-.36-2.46,1.62-.1,3.2.65,6.48-.64,9.61C89.74,207.67,89.4,207.46,89.33,206.61Z"/><path class="cls-7" d="M85.6,161.7c-6.49.36-13-.79-19.48.76-8.2-1.3-12.74-6.35-13.48-15-1.72-3.71-.4-6.95,1.55-10.09,4.6-5.59,9.83-6.85,15.66-2.78,3.71,2.58,7.46,3,11.6,2.88s4.42-.36,4.63-4.44a14.28,14.28,0,0,1,.15-1.86c1.86-4,3.18-.28,4.73.32a23.81,23.81,0,0,0,16.71,5.94q7-.1,14.09,0c1.69,0,3.53-.26,4.76,1.41,1.24,7.32.68,14.67.34,22a2.26,2.26,0,0,1-.9,1.56c-1.33-.86-2.82-.75-4.31-.75H95.32C91.48,157.29,90.06,157.29,85.6,161.7Z"/><path class="cls-8" d="M249.45,10.57c-1.45,2.76.79,4.1,2.29,5.59q27,27.06,54,54.06,4.74,4.74,9.49,9.48c.87.86,1.61,2,3.05,1.93q-4.5,5.61-9,11.23c-2-.2-3.35-1.48-4.68-2.81q-36.27-36.3-72.56-72.57c-1.34-1.33-2.61-2.68-2.81-4.68A165.06,165.06,0,0,1,249.45,10.57Z"/><path class="cls-9" d="M223.33,91.55c-1-1.13-1.85-2.32-2.89-3.37q-28.08-28.12-56.18-56.24c-1.31-1.32-3.41-2.41-2.35-4.93a183.2,183.2,0,0,1,20.2-5.24,62.09,62.09,0,0,0,6,6.65c16,15.9,31.84,32,48,47.8a3.18,3.18,0,0,1,1,1.52c-.07,2.1-1.79,3.1-3,4.38-2.63,2.73-5.33,5.38-8,8C225.26,90.85,224.55,91.71,223.33,91.55Z"/><path class="cls-10" d="M236.8,78.09q-26.64-26.54-53.3-53a3.83,3.83,0,0,1-1.39-3.28l22.45-5.22c-1.38,2,.31,2.9,1.39,4q17.87,17.91,35.77,35.77A12,12,0,0,1,245,60.76c-.81,1.68-2.4,1.47-3.84,1.56a17,17,0,0,0-4,.42c-3.47,1-4.28,3.6-2,6.48a27.59,27.59,0,0,0,2.06,2.13C241,75.47,240.9,76.41,236.8,78.09Z"/><path class="cls-11" d="M97.57,51.71c-1,1.77.6,2.43,1.47,3.3,6.8,6.87,13.67,13.68,20.48,20.55,1,1,2.65,1.9,1.92,3.86-1.3,1.28-3,1-4.55,1.06-5.57,0-11.15.27-16.7,0-7.85-.44-15.2,1.39-22.46,4-2.1,0-3.16-1.71-4.45-3-2.2-2.13-4.44-4.24-6.46-6.54-1.08-1.24-2.53-2.5-1.43-4.5l1.5-.75c2-1.11,3.26.4,4.48,1.56,2.75,2.62,5.4,5.35,8.51,8.48-2.91-3-5.54-5.48-8-8.1-1.28-1.37-2.57-2.85-1.27-4.93,8.12-5,16.39-9.83,25-14.12C96.22,52.23,96.9,52,97.57,51.71Z"/><path class="cls-12" d="M261.42,339.76H209.05l-22.44,0c-2.27,1.47-4.9,1.08-7.38,1.47V336c.72-1.43,2-1.72,3.44-1.84s3-.1,4.49-.1q82.59,0,165.17,0c2.45,0,5-.48,7.24,1.14a13.26,13.26,0,0,1-.07,8.4c-1.6-1-.25-4.17-3.17-4.27s-2.18,3.1-3.68,4.29c-.22-3.75-2.53-4.06-5.72-4.05C318.43,339.76,289.93,339.74,261.42,339.76Z"/><path class="cls-13" d="M334,62.92c-1.44,0-2.18-1.07-3-1.94q-23.65-23.62-47.24-47.3c-.76-.76-2.77-1.32-1.32-3.14a60,60,0,0,1,18.7,2.24c8,8,16.25,15.62,23.81,23.93,4.66,5.14,10.48,9.13,14.34,15A24.88,24.88,0,0,1,334,62.92Z"/><path class="cls-14" d="M55,137.58a16.77,16.77,0,0,0-2.37,9.9A81.24,81.24,0,0,1,41.2,134.91c-5-6.75-8.25-14-8-22.66.21-8,3.78-14.43,9-20.14.12,0,.33-.09.35-.06,3.3,6.44,9.46,10.4,13.81,15.93A3.65,3.65,0,0,1,57,109.3c-.12,4.81-1.49,9.54-1,14.39.08,2.43.07,4.85,0,7.27A14.15,14.15,0,0,1,55,137.58Z"/><path class="cls-15" d="M359.57,335.25l-175.25.06c-1.72,0-3.5-.32-5.09.72-.15-3.39,2.15-4.2,4.81-4.34,3.1-.17,6.2-.09,9.31-.12a5.08,5.08,0,0,1,1.21-.77c5.3-.87,10.64-.32,16-.38,6.58-.07,13.15-.14,19.72.05h1.41c5.82,0,11.64-.22,17.45.1a10.8,10.8,0,0,1,1.39.19,361.56,361.56,0,0,0,36.81,0,11,11,0,0,1,1.4-.21c6.18-.32,12.36-.17,18.54-.11,11-.21,22.06-.07,33.1-.07a5.91,5.91,0,0,1,4.19,1.18c3.46,0,6.93,0,10.39.1C357.3,331.72,359.4,332.26,359.57,335.25Z"/><path class="cls-16" d="M56.4,108.57c-5.06-5.2-11.67-9.07-14.2-16.46C45.12,86.9,49.86,83.34,54,79.34c3.47-3.31,7.55-6,11.35-8.93.37,3.15,3,4.67,4.86,6.71,2.08,2.26,4.24,4.44,6.36,6.66-.61,2.52-3,3.14-4.72,4.55a42.62,42.62,0,0,0-9,9.45c-2.31,3-3.66,6.54-5.2,10A1.92,1.92,0,0,1,56.4,108.57Z"/><path class="cls-1" d="M323.63,112.31c.14.2.44.42.41.59-.85,5.61,2.74,8.33,6.56,11.58,13.89,11.83,21.36,26.78,19.8,45.41A52.29,52.29,0,0,1,345.62,187c-1-3.78.43-7.18-1-10.3-1.38-1-1.28-2.61-1.3-4.06-.05-3.7-.13-7.4,0-11.1,0-3.11.05-6.22,0-9.33,0-1.81-.32-3.49-2.05-4.51-4-1.34-8.15-.33-12.21-.64-1.95-.15-4,.4-5.79-.89-1.48-2.42-.84-5.1-.91-7.69-.11-6.18-.13-12.36,0-18.53C322.58,117.34,321.65,114.59,323.63,112.31Z"/><path class="cls-17" d="M323.6,146.1c5.3,0,10.6-.06,15.9-.06,1,0,2-.19,2.75.69-2.8,2-6,1-9,1.1-8.69.18-7.72-.62-7.79,7.9,0,1.74.05,3.48-.05,5.22.13,3.22,0,6.44.05,9.66,0,5.63,0,5.63,5.49,5.65,3.1,0,6.19,0,9.29,0,1.48,0,3,0,4.18,1.12q0,11.6,0,23.2c-1.2,1.13-2.71,1-4.19,1.09-5.68.13-11.47-.69-16.9,1.79-1.58-2.77-.72-5.8-.89-8.72-.13-2.34,0-4.69-.24-7,.44-7.71.05-15.43.26-23.15-.17-4.79-.08-9.59-.05-14.39C322.39,148.75,322.34,147.21,323.6,146.1Z"/><path class="cls-18" d="M339.24,51.7c-4.48-4.42-9.41-8.29-13.64-13.08a112.34,112.34,0,0,0-12.84-12.68c-4.12-3.37-7.13-8-11.4-11.37-.35-.27-.19-1.18-.27-1.79,9.27,1.78,18.43,3.9,26.3,9.55,9.6,6.88,14.35,15.85,11.89,27.88A9.21,9.21,0,0,0,339.24,51.7Z"/><path class="cls-19" d="M323.53,203.61c1.48-2.48,3.63-3.2,6.49-3.06,4.78.23,9.58.06,14.37.06v22.45c-3.14,1.82-6.35,1.41-9.59.35-1.66-1.89-1-4.2-1.07-6.35-.13-2.81.11-5.64-.16-8.45-.55-1.64-1.1-3.44-3.2-3.52-1.58-.07-2.21,1.29-2.64,2.64a55.67,55.67,0,0,0-.21,6.19c-.06,1.32,0,2.7-1.26,3.63-6.4,1-12.79,1.34-19.17-.16-1.88-3.81-1.09-7.76-.63-11.69,1.06-1.61,2.45-.52,3.72-.45C314.73,205.52,319.38,206.59,323.53,203.61Z"/><path class="cls-20" d="M79.6,239.52c-10.77,0-21.54,0-32.31,0-1.32,0-3.15.79-3.61-1.49a35.87,35.87,0,0,1,2.12-9.75,5.65,5.65,0,0,1,3.5-1.1c9.34-.07,18.68-.1,28,0a6.38,6.38,0,0,1,2.54.52c1.21.65,1.36,1.8,1.43,3a7,7,0,0,1-.2,1.93,15.19,15.19,0,0,0-.55,4.75A2.93,2.93,0,0,1,79.6,239.52Z"/><path class="cls-21" d="M80.27,228.3l-34.47-.05c.7-7.26.87-7.41,8.28-9.11s14.51-3.4,21.76-5.11c2.62-.8,3.19,1.51,4.3,2.9a8.48,8.48,0,0,1,1.79,3.52C82.14,223.22,82.07,225.94,80.27,228.3Z"/><path class="cls-22" d="M344.38,177.41c-5.6,0-11.2-.12-16.8.06-2.69.08-3.45-.91-3.35-3.46.18-4.35.06-8.71.07-13.07a4.51,4.51,0,0,1,3.05-1.1q7-.19,14,0a4.18,4.18,0,0,1,3,1.1q.12,7.86.26,15.72Z"/><path class="cls-23" d="M159.25,356.43a3.72,3.72,0,0,1,3.51,3.26c.5,3.22,2.15,5.15,5.55,5.53a3.29,3.29,0,0,1,3.11,3.58,3.53,3.53,0,0,1-3.22,3.6c-3.44.36-5.06,2.22-5.48,5.5a3.2,3.2,0,0,1-3.26,3,3.34,3.34,0,0,1-3.78-2.91c-.53-3.47-2.28-5.25-5.77-5.74a3.23,3.23,0,0,1-2.87-3.43c.07-1.91,1-3.39,3.06-3.64,3.31-.4,5.07-2.13,5.45-5.53C155.77,357.72,157.29,356.73,159.25,356.43Z"/><path class="cls-24" d="M136.49,360.5a3.31,3.31,0,0,1-2.93,3.27c-3.23.43-5.23,1.87-5.56,5.38a3.39,3.39,0,0,1-3.52,3.24,3.53,3.53,0,0,1-3.77-3.38c-.37-3.21-2.24-4.8-5.36-5.2a3.65,3.65,0,0,1,0-7.21c3.4-.35,5.09-2.08,5.45-5.45a3.31,3.31,0,0,1,3.62-3,3.45,3.45,0,0,1,3.6,3.17c.36,3.24,1.94,4.85,5.14,5.31A3.63,3.63,0,0,1,136.49,360.5Z"/><path class="cls-25" d="M356.6,88.67c0,2.36-1.29,3.71-3.36,3.93-3.11.34-4.66,1.94-5,5a3.51,3.51,0,0,1-3.7,3.45,3.58,3.58,0,0,1-3.69-3.49c-.32-2.9-1.77-4.44-4.67-4.87-2.14-.32-3.77-1.43-3.7-3.9.06-2.25,1.43-3.23,3.55-3.56,2.72-.43,4.53-1.88,4.78-4.85a3.58,3.58,0,0,1,3.58-3.61c2.25-.07,3.66,1.3,3.89,3.67.27,2.94,2.11,4.39,4.84,4.8C355.25,85.52,356.46,86.6,356.6,88.67Z"/><path class="cls-25" d="M52,188.78a3.31,3.31,0,0,1-3.06,3.54c-3.18.35-5,1.82-5.35,5.11a3.4,3.4,0,0,1-3.78,3.32c-2.23-.07-3.38-1.31-3.61-3.48-.34-3.07-2.09-4.6-5.12-4.91a3.32,3.32,0,0,1-3.23-3.45A3.36,3.36,0,0,1,31,185c3.25-.38,4.87-2,5.21-5.26a3.29,3.29,0,0,1,3.51-3.16,3.33,3.33,0,0,1,3.73,2.95c.41,3.36,2,5.12,5.41,5.5C50.81,185.28,51.92,186.68,52,188.78Z"/><path class="cls-26" d="M32.56,288.92c6.39,0,12.79-.05,19.18,0a19.44,19.44,0,0,0,6.17-.77c1.3,1.56.18,3.27.3,4.91-.16,2.69.1,5.49-2.15,7.59-6.47,1.4-13,.4-19.53.63-2.16.07-4.49.52-6.37-1.17A56.3,56.3,0,0,1,32.56,288.92Z"/><path class="cls-27" d="M334.76,223.06h9.63v28.43a10.44,10.44,0,0,1-9.9.07,5.62,5.62,0,0,1-.77-3.56q-.06-10.56,0-21.14C333.73,225.52,333.62,224.11,334.76,223.06Z"/><path class="cls-28" d="M81.17,220.12c-1.87-1.94-2.24-5.21-5.33-6.09,4.1-3.18,8.41-6,13.49-7.42l.76.65c.36-.11.81-.2,1.06,0,4,3.76,7.89,7.57,9.81,12.89-1.06,2.31-3.6,2.4-5.4,3.61-.46.2-.93.35-1.39.55C86.47,227.66,85.37,227.3,81.17,220.12Z"/><path class="cls-29" d="M153.73,332.41c-4.19,1.43-8.53.24-12.77.71-20.6-1.07-41.23-1.31-61.82-.61-16.15.56-32.27.28-48.41.54-1.43,0-3,.49-4.28-.67,1.11-1.26,2.64-1.22,4.1-1.22,7.5,0,15-.16,22.5.06,2.5-.05,5-.11,7.49,0,2.35,0,4.7,0,7.05,0,4.72,0,4.74-.06,5-4.7a6.72,6.72,0,0,1,.71-3.76,1,1,0,0,1,1.17-.28,2.83,2.83,0,0,1,.68,1.08c.16,2.87,1.56,4.07,4.54,3.95,5.94-.24,11.89.19,17.83-.28,2.64,1.31,5.16-.5,7.77-.32,5.77,1,11.6.28,17.39.52,2,.08,4-.28,5.76.93,1.18,2.27,3.11,2.87,5.55,2.82,5-.1,9.92-.07,14.87,0C150.56,331.22,152.39,330.91,153.73,332.41Z"/><path class="cls-30" d="M26.63,315.86a27.29,27.29,0,0,1,1.48-6.79,2.61,2.61,0,0,1,2.48-2.37c8.26-.16,16.53-.92,24.77.43,2.39,2.28.7,4.85.53,7.32a4,4,0,0,1-.9,1.93c-1.26,1.24-2.88,1.32-4.49,1.34q-9.44.09-18.88,0C29.74,317.7,27.88,317.58,26.63,315.86Z"/><path class="cls-31" d="M55.66,307.62c-7.88,0-15.77,0-23.66,0-1.54,0-2.95,0-3.89,1.47a39.81,39.81,0,0,1,2.05-8.95H56.41a3,3,0,0,1,.91,2.27C57.16,304.26,57,306.14,55.66,307.62Z"/><path class="cls-32" d="M323.63,112.31c0,2.49-.07,5-.1,7.49-5.27,2.15-10.7,1-16.09.78a2.56,2.56,0,0,1-1.16-.81c1.25-1.9.78-4,.74-6.09a6.61,6.61,0,0,1,1.6-5.06c3.55,0,7.11,0,10.66-.08C321.94,108.48,323.5,109.52,323.63,112.31Z"/><path class="cls-33" d="M344.39,268.7v18.71a10.65,10.65,0,0,1-9.88.12,46.26,46.26,0,0,1,0-18.86A10.39,10.39,0,0,1,344.39,268.7Z"/><path class="cls-34" d="M53.43,332.25l-27,.13c-2.08-1.22-3.47-2.73-2.15-5.32,1.1-2,3.08-1.82,4.9-1.84,5.82-.07,11.63-.06,17.45,0a44.29,44.29,0,0,0,7-.6c2,1,.77,2.67.89,4.06A5.43,5.43,0,0,1,53.43,332.25Z"/><path class="cls-35" d="M344.53,331.57h-37.6a3.9,3.9,0,0,1,0-4.66c1.77-1.27,3.82-.86,5.79-1,5-.25,10,.57,14.89-.63a13.42,13.42,0,0,1,5.24.31c2.45.54,4.93.26,7.39.35,1.48.06,3,0,4.2,1.1Z"/><path class="cls-36" d="M344.39,268.7h-9.62c-1.15-1-1.15-2.46-1-3.79.42-4.46-1.19-9.09,1-13.42h9.62Z"/><path class="cls-37" d="M26.63,315.86a110.16,110.16,0,0,0,28.28,0c1.64,2.39.75,4.42-.91,6.34-1.59.92-3.36.76-5.09.78-7.94.11-15.89-.24-23.83.34A31.66,31.66,0,0,1,26.63,315.86Z"/><path class="cls-38" d="M25.08,323.31c1-1.67,2.65-1.49,4.26-1.48H54.17c.13.14.25.28.39.41a2.13,2.13,0,0,1-.39,2.59c-1.07,1.55-2.65,1.52-4.3,1.51-7.08,0-14.16,0-21.24,0-1.49,0-3-.12-4.33.74A5.93,5.93,0,0,1,25.08,323.31Z"/><path class="cls-39" d="M334.76,287.41h9.64v11.23c-3.14,1.79-6.36,1.4-9.59.32a3,3,0,0,1-1-1.88C334,293.84,332.81,290.48,334.76,287.41Z"/><path class="cls-40" d="M344.4,306.87v9c-3.24,1.76-6.52,1.54-9.82.18a11.78,11.78,0,0,1-.06-9.28A10.65,10.65,0,0,1,344.4,306.87Z"/><path class="cls-41" d="M344.4,306.87h-9.64a7.86,7.86,0,0,1,0-8.23h9.64Z"/><path class="cls-42" d="M344.4,327.08c-4-.46-8,.92-11.91-.83-.37-1.4.76-2.35,1.08-3.54.41-.93.78-1.88,1.83-2.29,3.05-.46,6.12-1.13,9,.67Z"/><path class="cls-43" d="M352.65,343.67c.47-2.09-1.14-5.05,3-5.45,4.94-.48,3.6,2.91,3.85,5.43a3.18,3.18,0,0,1-3.61,2.85A3.09,3.09,0,0,1,352.65,343.67Z"/><path class="cls-44" d="M344.4,321.09h-9.64a3.9,3.9,0,0,1,0-5.24h9.64Z"/><path class="cls-16" d="M70.63,66.67c-.13,2.51,1.46,4.08,3.05,5.68,2.63,2.66,5.2,5.37,7.79,8.05l-1,1c-2.89-2.88-5.79-5.75-8.66-8.65-1.41-1.41-2.78-2.85-4.93-3C67.7,68.12,69.4,67.68,70.63,66.67Z"/><path class="cls-45" d="M149.24,246.29c.83,6.51.77,13.11,2.14,19.56q.33,6.27.67,12.55c-6.42.92-12.87.16-19.31.38-2.36.08-4.73-.09-7,.65a2.14,2.14,0,0,1-1.32-.12,3.25,3.25,0,0,1-.82-1.8c-.35-3,.14-6.09-.65-9.08-.46-7.13-.74-14.28-1.46-21.4-.22-1.63-.48-3.26.79-4.62,2.71,3,6.25,2.8,9.83,2.73,4.21-.08,8.42-.06,12.63,0C146.3,245.17,148,245,149.24,246.29Z"/><path class="cls-46" d="M125.2,279.29a1.59,1.59,0,0,1,1.7-1.58c7.93,0,15.86.06,23.79.13a3.85,3.85,0,0,1,1.36.56q.75,8.22,1.51,16.45c-2.6-1.63-5.44-1.94-8.46-1.86-5,.14-9.92.06-14.89,0a8.45,8.45,0,0,1-4-.65,5.15,5.15,0,0,1-1.71-2.94C124.25,286,123.44,282.56,125.2,279.29Z"/><path class="cls-47" d="M193.26,302.38c.25-5.85,1.15-6.68,7.22-6.7l15.3-.06c3.09-2,6.53-.78,9.81-1.07,4.8.63,6.68,2.18,6.89,6.7.43,9.09.21,18.18.11,27.27a4.24,4.24,0,0,1-1.19,3.06c-.23,0-.45,0-.67,0a5.14,5.14,0,0,1-1-3.69c-.05-1.5-.05-3,0-4.5-.05-1.29,0-2.58,0-3.87-.07-1.74,0-3.49,0-5.23-.09-2-.06-3.95,0-5.93.21-3-1.17-4.16-4.19-4.12q-13,.17-26.06,0c-3,0-4.45,1-4.26,4.07-.32,1.85.86,4.18-1.73,5.29Q193.34,308,193.26,302.38Z"/><path class="cls-48" d="M126,291.9c7.69,0,15.38.14,23.06-.08,2.54-.07,3.87.71,4.49,3,.1,3,1.22,5.93.75,9-4.93-1.73-10.05-.87-15.1-1.09-4.07-.19-8.19.53-12.23-.55a3.43,3.43,0,0,1-1.75-2.12C124.92,297.3,124.19,294.48,126,291.9Z"/><path class="cls-30" d="M155.06,312.07l.22,3.69a3.63,3.63,0,0,1-3,1.19c-7.41.15-14.82.18-22.22,0a4.72,4.72,0,0,1-2.46-.74c-1.45-1.4-1.06-3.23-1.12-4.95-.06-2.87,1.6-3.95,4.21-4,6.8-.12,13.6,0,20.41-.05C154.67,307.17,154.85,309.55,155.06,312.07Z"/><path class="cls-49" d="M155.06,312.07c-.5-3-2.11-4-5.28-3.8-6.34.33-12.71.18-19.06.05-2.36-.05-3.58.61-3.26,3.13a.9.9,0,0,1-1.11-.37,7.83,7.83,0,0,1-.63-3.79c0-1.94-.45-4,1-5.66,7.85,0,15.69.07,23.53-.05,2,0,3.33.4,4.07,2.26C154.42,306.6,155.5,309.26,155.06,312.07Z"/><path class="cls-50" d="M127.57,315.85l27.71-.09-.05,0c.75,1.43-.11,3.07.58,4.51l0,1.54a4.64,4.64,0,0,1-3.46,1.12c-7.83,0-15.66.31-23.49-.18a4.12,4.12,0,0,1-1.31-.56,3.57,3.57,0,0,1-1.06-2.54C126.48,318.3,126.38,316.9,127.57,315.85Z"/><path class="cls-34" d="M153.73,332.41c-7.16,0-14.33-.22-21.48,0-3,.09-4.37-.81-4.1-3.84a1.84,1.84,0,0,1,.33-2.64c1.6-.92,3.37-.77,5.09-.77,6,0,11.93-.09,17.89,0,4.81.08,5.28.73,4.44,5.56A2.53,2.53,0,0,1,153.73,332.41Z"/><path class="cls-51" d="M230.71,323.34c0,1.5,0,3,0,4.49-1.55,1.37-3.47,1.13-5.3,1.13-8.52,0-17,.06-25.56,0-2.41,0-4.37.57-5.75,2.62h-.74l.09-4.53c.81-1.29-.47-3.12,1.08-4.23,5.75-1.14,11.53-.63,17.31-.31a2.12,2.12,0,0,1,.69.25c4.21,2.87,4.21,2.87,8.48-.14C224.28,322.25,227.6,321.44,230.71,323.34Z"/><path class="cls-52" d="M194.09,323.33c-.17,1.25.45,2.63-.65,3.71q0-6.74,0-13.47c1.27-1.6.39-3.48.66-5.2,1.32-1.19,3-1.14,4.58-1.15,3.73,0,7.45-.09,11.18,0a4.86,4.86,0,0,1,3.73,1.38c1,2.33.46,4.5-.64,6.63-4.43,1.86-9.07.6-13.61.88-2.38.14-4.25.46-4.17,3.41A5.24,5.24,0,0,1,194.09,323.33Z"/><path class="cls-38" d="M155.9,330.73c.71-3.7-1-4.6-4.48-4.48-7.7.25-15.41.08-23.11.08-1.35-1.45-1.21-2.95-.14-4.47l27.68,0C156.33,324.8,157.54,327.76,155.9,330.73Z"/><path class="cls-53" d="M179.23,341.26c2-2.63,4.91-1,7.38-1.47,0,.5,0,1,0,1.48.12,2.73-.51,5.19-3.75,5.15S178.84,344.12,179.23,341.26Z"/><path class="cls-30" d="M155.81,320.3c-1.16-1.38-.46-3-.58-4.51C156.27,317.18,155.83,318.77,155.81,320.3Z"/><path class="cls-10" d="M268.09,80.74c-.06,1.83.69,3,2.11,4.34,10.9,10.57,21.59,21.35,32.32,32.09a5.35,5.35,0,0,1,1.55,3.32c-6,4.1-12,8.22-19.82,7.34-9.68-11.31-20.81-21.19-31.1-31.9-1.34-1.4-3.14-2.6-2.68-5,1.35-2.81,3.19-2.78,5.33-.89.94.83,1.79,1.73,2.69,2.6,1.28,1.24,2.62,2.4,4.6,1.79s2.42-2.28,2.74-4.07a47.57,47.57,0,0,0,.67-6.3C266.55,82.8,266.2,81.19,268.09,80.74Z"/><path class="cls-54" d="M268.09,80.74c-1.27,3.4-.6,7.05-1.34,10.55-.44,2.07-1.26,3.34-3.15,4.1a3.88,3.88,0,0,1-4.88-1.25c-1-1.13-2.19-2-3.11-3.17-1.77-2.21-3.28-2.3-4.71.26a3.92,3.92,0,0,1-1.14.84c-6.9.87-13.82.42-20.73.27-1.53,0-3.31-.31-3.53-2.49l11.3-11.76c4-2.07,2.06-4.13,0-6.2,1.41-1.35,3.21-1.09,4.91-1.11,5.8,0,11.6-.13,17.4,0,3.71.1,7.27.18,9.67-3.34Z"/><path class="cls-55" d="M268.78,67.46c-.14,4.31-2.76,4.64-6.35,4.53-8.54-.26-17.09-.09-25.63-.1-.66-.55-1.35-1.07-2-1.67-1.43-1.37-2.51-2.76-1.9-5.06.68-2.56,2.65-3.12,4.7-3.54,2.41-.49,5,.2,7.34-.86,5.3-.37,10.64-.52,15.91-1.16C267.92,58.74,269.59,60.25,268.78,67.46Z"/><path class="cls-56" d="M283.87,127.3c7.08.67,12.46-3.75,18.52-6.16l1.68-.65,2.21-.72.78,0c1.5,1.87,1.07,4,.79,6.08-.92,3.37-.31,6.82-.49,10.23-.1,1.68.27,3.46-1,4.92-6.14,1.52-12.31,1.24-18.48.2-1.8-1.52-1.08-3.64-1.32-5.55s.79-4.25-1-6c-2-1-4.19-.41-6.28-.56-1.47-.1-3,.09-4.28-.94a.82.82,0,0,1,.09-1.2C278.09,125.85,281,125.57,283.87,127.3Z"/><path class="cls-57" d="M225.5,89.85c1.25,1.54,3,1.52,4.73,1.52,6.66,0,13.33,0,20,0,.35,1.8-1.1,2.61-2.07,3.61-3.41,3.52-6.93,6.92-10.34,10.44-1.94,1.89-3.82,3.85-5.78,5.73a5.28,5.28,0,0,1-3.88,1.86,250.76,250.76,0,0,0-28.36,0c-1.94.12-3.21-1.07-4.46-2.3-2.21-2.17-4.43-4.33-6.56-6.58-1.52-1.62-2.81-1.65-4.34,0-1.69,1.81-3.47,3.53-5.25,5.26-1.17,1.13-2.37,2.21-4.17,2.12-6.21-.81-12.46.16-18.66-.63A3.51,3.51,0,0,1,154,108a1.87,1.87,0,0,1,.53-1.78L170.8,90.36c9.25,1.29,18.55.35,27.83.57a13.47,13.47,0,0,0,4.43-.19c3.51,2.37,6.07,5.75,9.08,8.64,1.24,1.19,2.06,1.82,3.49.2,2.46-2.78,5.12-5.36,7.7-8C224.06,91,224.78,90.42,225.5,89.85Z"/><path class="cls-23" d="M158.27,68.17c-1,1.53-2.3,2.65-4.32,2.13a4.19,4.19,0,0,1-3.08-3.81A4.91,4.91,0,0,0,146.63,62c-4.06-.95-4.66-2.31-3.37-6.47a20.65,20.65,0,0,1,2.76-1c2.69-.54,4.53-1.74,4.84-4.76.22-2.19,1.53-3.82,3.8-3.88s3.48,1.46,3.76,3.77c.34,2.83,2.1,4.37,4.86,4.8,2.08.32,3.63,1.4,3.66,3.53A3.82,3.82,0,0,1,163.22,62C159.4,62.42,158.36,64.86,158.27,68.17Z"/><path class="cls-58" d="M203.06,90.74c-.37,1.83-1.85,1.35-3,1.35-8.71,0-17.43,0-26.15,0-1.35,0-2.87.26-3.11-1.75l4.45-5c1.53-1.42,3.07-2.83,4.6-4.27,4.56-4.3,9.55-4.36,14.07.06C197.07,84.23,200,87.53,203.06,90.74Z"/><path class="cls-59" d="M154.49,106.22l.08,1.54c-1.37,1.44-3.18,1.25-4.89,1.26q-43.8,0-87.6,0c-1.72,0-3.52.18-4.93-1.2a25.65,25.65,0,0,1,5.2-10.56c27.13.89,54.27.17,81.4.4,1.88,0,3.7-.52,5.57-.52C151.92,99.67,152.8,103.17,154.49,106.22Z"/><path class="cls-60" d="M149.32,97.14c-.72,1.74-2.22,1.71-3.76,1.71H66.71c-1.66,0-3.24-.13-4.36-1.59a30.54,30.54,0,0,1,9.08-9.51,38,38,0,0,1,7.76-.58q26.81,0,53.61,0a47.13,47.13,0,0,1,7.41.47A27.53,27.53,0,0,1,149.32,97.14Z"/><path class="cls-61" d="M140.21,87.64c-.86,1-2.06.72-3.14.72q-31.41,0-62.82,0c-1,0-2,.23-2.82-.61l5.18-4c14.43-6.77,29.79-4,44.83-4.36C128.19,81,134.79,83,140.21,87.64Z"/><path class="cls-62" d="M79.6,239.52l.06-2.1c.78-1.46-.06-3.12.58-4.59l.23-1.54c.87-1.64,2-.83,2.56,0,2.49,3.52,5.36,5.25,9.59,2.84a1.27,1.27,0,0,1,1.81.75,15.13,15.13,0,0,1,.15,6.76c-.58,3.54-.78,7.12-1.23,10.67,0,1.64-.33,3.17-1.87,4.14-4.28.58-8.64,1.93-12.54-1.25C78.58,250,80.1,244.79,79.6,239.52Z"/><path class="cls-63" d="M78.94,255.23c4.11,1.38,8.35.52,12.53.75,1.67,1.66,1.08,3.68.91,5.63-.68,2-.37,4.2-.83,6.26-.54,1.41-.35,3.05-1.39,4.3-3.67,1.67-7.42.63-11.1.13-1.53-.21-1.55-1.65-1-2.94A79.55,79.55,0,0,1,78.94,255.23Z"/><path class="cls-64" d="M57.17,292.65c.24-1.49.49-3,.74-4.49-.13-5.83,1.61-11.47,1.6-17.31a3.9,3.9,0,0,1,4.27-4.19c2.59.16,3.37,2.11,3.12,4.56-.54,5.4-1,10.8-1.5,16.19a4.06,4.06,0,0,1-.84,5.65C62,294,59.55,294.26,57.17,292.65Z"/><path class="cls-65" d="M64.64,292.65a14.12,14.12,0,0,0,.76-5.24c2.32,1.31,4.85.76,7.28.69s3.53.66,3.23,3.14c1.4,1.64.81,3.64,1,5.51a15.22,15.22,0,0,1,0,1.91,4.72,4.72,0,0,1-.85,3,1.93,1.93,0,0,1-1.27.16,20.5,20.5,0,0,0-6.61-.67c-2.77,0-4.56-1-4.55-4.05C63.54,295.55,63.51,294,64.64,292.65Z"/><path class="cls-66" d="M76.59,290.41c.2-3.5-.47-7.05.73-10.48,1.68-1.42,3.73-1.09,5.66-1,2.11.06,4.14-.52,6.22-.63a2.59,2.59,0,0,1,.9,2.32c-.51,2.49-.34,5.07-.86,7.58a4.37,4.37,0,0,1-1.76,2.78C83.81,291.67,80.13,292.29,76.59,290.41Z"/><path class="cls-67" d="M89.22,278.43c-1.19,2-3.15,1.47-4.93,1.49-2.32,0-4.65,0-7,0,.26-3.52-.52-7.12.75-10.57.13.95,0,2.21,1.35,2.25,3.51.1,7,.07,10.55.09C91.61,274.15,90.73,276.33,89.22,278.43Z"/><path class="cls-68" d="M76.59,290.41h11.2c2,2.74.52,5.26-.5,7.8-3.7,2.36-7.5,2.16-11.36.43l0-1.53c.78-2-.23-4.11.59-6.07A1.09,1.09,0,0,1,76.59,290.41Z"/><path class="cls-69" d="M76.56,291c-.19,2,.7,4.16-.59,6.07l-.06-5.86C76.13,291.18,76.35,291.1,76.56,291Z"/><path class="cls-70" d="M126,162.45q0-12,0-23.92c-1.31-3.57-.23-6.14,3.14-6.77a24.93,24.93,0,0,1,8.91,0c2.51.46,3.77,2.24,4.17,4.68a5.38,5.38,0,0,1,.07,1.33,33.23,33.23,0,0,0-.27,6.54c0,5.32.06,10.63,0,15.94-.07,4.67-1.55,6.12-6.29,6.29a53.15,53.15,0,0,1-5.92-.07A4.24,4.24,0,0,1,126,163.9Z"/><path class="cls-71" d="M126,163.9c4.08,2.81,8.61,1.48,12.94,1.19,1.79-.12,2.05-2.14,2-3.88,0-5.84,0-11.67.07-17.5a.79.79,0,0,1,1.07.36,5.56,5.56,0,0,1,.6,2.47c.1,3,.1,5.94,0,8.91-.38,3,.52,4.73,4,4.63a5.81,5.81,0,0,1,4.77,1.67c-1.64,8.32-4.78,15.86-11.23,21.69-3.47,0-6.94-.05-10.42,0-2.62,0-3.86-1.26-3.85-3.87C126,174.32,126,169.11,126,163.9Z"/><path class="cls-72" d="M100.65,220.09c-3.18-4.55-6.36-9.11-10.56-12.83V193.41a45.27,45.27,0,0,0,19.71,4.22c1.75,0,1.92,1.07,2,2.46.12,1.68-.63,3.5.67,5a1.58,1.58,0,0,1,.55,1.44c-3.86,4.48-7.2,9.4-11.38,13.63A1.11,1.11,0,0,1,100.65,220.09Z"/><path class="cls-73" d="M108.8,175.39a6.07,6.07,0,0,1-5.79,6.47c-3.44.2-6.08-2.33-6.21-6-.14-3.92,2.23-6.6,5.89-6.66A6.13,6.13,0,0,1,108.8,175.39Z"/><path class="cls-74" d="M85.6,161.7c.38-3,2.63-4.33,5.17-4.23,2.25.09,4.76,1,4.55,4.23C91.88,164.87,89.7,164.87,85.6,161.7Z"/><path class="cls-49" d="M55,131v-7.49c1.41-1.35,3.22-1.18,4.94-1.18q45.89,0,91.78,0a9.07,9.07,0,0,1,4.73.78c1.95,2.17,1.34,4.67.91,7.14a2.85,2.85,0,0,1-.9,1.18c-5.63,1.5-11.35.77-17,.55-4-.16-7.93-.11-11.9,0-12.54.33-25.09.58-37.63-.12-1.12.19-1.29-2.92-3-.84-1.06,1.08-2.45,1.13-3.82,1.16-8.11.15-16.21-.06-24.31,0A5,5,0,0,1,55,131Z"/><path class="cls-75" d="M89.93,131.86c1.57-1,3.34-.84,5.08-.84h61.7c1.32,1.65,1.14,3.39.3,5.17a3,3,0,0,1-1.75.95c-2.57.36-5.22-.23-7.75.65-2,.27-4,.64-5.85-.59-1-1.52-.7-4.19-3.3-4.36-3.66-.25-7.46-1.12-10.91.63-1.92,1-1.42,3.23-1.47,5.06-8.51-.32-17.09,1-25.53-.81A18.82,18.82,0,0,1,89.93,131.86Z"/><path class="cls-75" d="M55,131H87c.35,7.54.35,7.51-7.26,7.55-3.6,0-6.74-.12-9.92-2.84-5-4.23-9.92-3.18-14.8,1.85Q55,134.29,55,131Z"/><path class="cls-76" d="M105.1,151.92c0,2.52-1.53,3.59-3.75,3.69-3.82.17-8.25-2.75-8-5.21a3.76,3.76,0,0,1,3.75-3.5C101.06,146.63,105.08,149.25,105.1,151.92Z"/><path class="cls-77" d="M156.64,123.53H55c-.6-5.08.56-10,1.38-15l.75-.75,97.42-.06,1.22,2.4A13.9,13.9,0,0,1,156.64,123.53Z"/><path class="cls-4" d="M288.37,331.43h-.62c-1.87-1.93-1.07-4.34-1.21-6.58s-.07-4.56,0-6.84c-.08-3.43-.09-6.86,0-10.29-.06-2.52-.08-5,0-7.54-.09-2.08-.07-4.15,0-6.23-.13-4.92-.12-9.85,0-14.77-.16-16.05,0-32.11-.07-48.16,0-1.5,0-3-.05-4.48,0-3.09-1.62-4.47-4.66-4.55-5.59-.15-11.2.3-16.78-.27-1.44-.27-2.29-1.32-3.18-2.37-3.22-3.76-7-7-10.29-10.67-.59-.65-1.89-1-1.18-2.34,2.21-1.25,4.63-.51,6.94-.74,1.65-.16,3.49-.24,3.57-2.41.06-2-1.6-2.69-3.26-2.94-3.44-.52-6.73-.36-9.13,2.7-2.29,1-3.45-.76-4.72-2-7.45-7.3-14.68-14.81-22.22-22-.47-1.11-.05-2.19.14-3.28.4-1.64,1-3.23,1.46-4.86.88-2,.85-4.41,2.81-5.89,3.74-.93,7.32.07,10.9,1,2,3,4.77,3.84,8.26,3.8,5.41-.06,10.85-.46,16.25.28,4.82,5.76,10,11.21,15.28,16.56,7.51,7.56,15.37,14.77,22.66,22.57,1.94,2.07,3.83,4.26,6.64,5.27.65.24.81.88.8,1.55a32.39,32.39,0,0,1,.14,13.12c-3.9,4.18-8.17,8-11.73,12.53A24.88,24.88,0,0,0,289.35,258c.3,22.57.13,45.14.1,67.71C289.45,327.66,289.86,329.74,288.37,331.43Z"/><path class="cls-78" d="M250.19,331.55l.13-4.47c1.54-1.42,3.48-1.07,5.31-1.13,5.2-.17,10.42.36,15.59-.53a21.62,21.62,0,0,0,6.34-1.48c3.39-.09,6.86-1.06,10.06.89.05,2.2.09,4.41.13,6.61-.7.93-1.72.86-2.72.86H252.57A2.63,2.63,0,0,1,250.19,331.55Z"/><path class="cls-79" d="M194.09,331.57c-.41-2.8.56-3.87,3.62-3.82,11,.19,22,.08,33,.08l0,3.72Z"/><path class="cls-70" d="M323.6,146.1q-.06,9.3-.11,18.59a27,27,0,0,1-16.6.18,5,5,0,0,1-1-3.51c.45-7.63-.73-15.33,1-22.89a25.42,25.42,0,0,1,16.61,0C323.55,141,323.58,143.57,323.6,146.1Z"/><path class="cls-80" d="M323.53,138.5H307.07a45.62,45.62,0,0,1,0-12.73v-6h16.47Z"/><path class="cls-81" d="M344.39,161H324.3c0-3.82.07-7.65-.05-11.47-.06-2.11.78-2.8,2.83-2.76,5.05.09,10.11,0,15.17,0,1.82.64,2.29,2.07,2.26,3.82C344.45,154,344.43,157.48,344.39,161Z"/><path class="cls-82" d="M307.07,164.7h16.42c0,6.55.05,13.09.11,19.63a6.21,6.21,0,0,1-.91,3.52c-.15.32-.23.71-.56.92-3.13,1.92-11.89,1.26-15-1.11-1.78-2.8-.89-6-1.15-9-.18-3.42-.13-6.84-.07-10.25C306,167.1,306,165.72,307.07,164.7Z"/><path class="cls-83" d="M307.8,187.17c4.86,2.63,9.87,1.67,14.89.67,1.71,2.75.58,5.78.8,8.68.18,2.35,0,4.72,0,7.09-.12,1.57-1.09,2.89-2.48,2.84-4.63-.15-9.47,1.41-13.85-1.37a3,3,0,0,1-1.12-2.61c-.11-4.18-.13-8.36,0-12.54C306.13,188.79,306.06,187.36,307.8,187.17Z"/><path class="cls-84" d="M307.1,230.54l-.13-1.42c-.3-4-.71-8.05.22-12.05h19.34c1.8,4.52,1.4,9.08.17,13.64C320.15,232.28,313.61,232.54,307.1,230.54Z"/><path class="cls-85" d="M327.24,206.58c.21-2.12,1.87-2.57,3.45-2.5a3.47,3.47,0,0,1,3.42,3.26c.46,9.73.35,19.46.05,29.19-2.34,1.63-4.71,1.45-7.1.14a4.1,4.1,0,0,1-.77-3.17c1.26-8.6.31-17.25.63-25.87A3.13,3.13,0,0,1,327.24,206.58Z"/><path class="cls-86" d="M327.24,206.58l.06,29.95a5.87,5.87,0,0,1,1.13,4.18c0,6,.13,12.08-.06,18.11.09,4.69.13,9.39,0,14.08.07,4.06.17,8.13,0,12.18-.16,3.28.76,5.25,4.35,5.23a2.27,2.27,0,0,1,1.32.63c.74,2,.2,4,.36,6-.07.9.22,1.86-.39,2.68a7,7,0,0,1-6.72.05c-1.75-2.17-.49-5-1.56-7.29-.55-4.17-.27-8.36-.26-12.55q-.18-8.54,0-17.06-.17-6.42,0-12.85c-.18-5.07-.07-10.14-.06-15.2a5.77,5.77,0,0,1,1.17-4.18V217.08C327,213.6,325.81,210,327.24,206.58Z"/><path class="cls-87" d="M334.08,297.14l-.12-6c-1.25-1.44-1.12-3.21-1.12-4.92,0-4.32-.11-8.63.06-12.94-.11-4.79-.12-9.58,0-14.37-.18-6.05-.06-12.11-.06-18.17,0-1.48,0-3,1.09-4.21l.18-29.19c1.38,5.19.26,10.49.65,15.72q0,14.22,0,28.43V268.7q0,9.36,0,18.71c0,3.24,0,6.49,0,9.73C334.53,297.49,334.31,297.47,334.08,297.14Z"/><path class="cls-88" d="M307.19,217.07q-.1,6-.22,12.05a4.14,4.14,0,0,0-.6-.09q0-7.11,0-14.2a5,5,0,0,1-1.15-3.47c-.07-9.83-.12-19.67,0-29.5a5.42,5.42,0,0,1,.61-2.52.88.88,0,0,1,1.23-.42c.26,2.75-.59,5.6.75,8.25-1.63,3.28-.47,6.75-.7,10.13-.18,2.58,0,5.19.1,7.78C307.2,209.08,307.19,213.07,307.19,217.07Z"/><path class="cls-89" d="M93.88,234.28c-6.66,3.26-6.68,3.28-11.3-2.39-.68-.83-1.18-1.18-2.11-.6-.07-1-.13-2-.2-3l.9-8.18c.12,0,.28.07.33.15,3.62,5.82,8.32,6.29,13.81,2.79,2,3.32,0,6.62-.07,9.93A2,2,0,0,1,93.88,234.28Z"/><path class="cls-5" d="M80.24,232.83c0,1.55.4,3.16-.58,4.59C79.79,235.88,79.08,234.24,80.24,232.83Z"/><path class="cls-90" d="M64.64,292.65v4.49c-1.3,2.6,1.38,5.36-.32,7.93a1,1,0,0,1-1,.52c-1.67-2.43-4.77-1.77-6.9-3.21,0-.75,0-1.5,0-2.25-.1-2.53,1.19-4.91.76-7.48Z"/><path class="cls-91" d="M94.5,233.53l.81-10.47,5.33-3a3,3,0,0,0,.6,0,5.71,5.71,0,0,1,6.06,3.22c.59,3,1.47,6.07.72,9.21-.46,1.28-1.5,1.85-2.61,1.26-3-1.59-5.89-1.09-8.84.12A1.89,1.89,0,0,1,94.5,233.53Z"/><path class="cls-92" d="M104.3,327.07c-1.83,1.56-3.64,3.29-6,.75-2.46-1-3.84-3.29-5.78-4.91-.8-1.08-2.32-1.81-1.72-3.56,1.62-1.57,4-1.32,5.81-2.27a1.62,1.62,0,0,1,1.39.27c2,2.07,4,1.73,6-.08a2,2,0,0,1,1.39-.31c2.23.5,5.08-.32,6.08,2.82-.16,1.4-1.25,2.16-2.09,3.09C107.63,324.22,106.54,326.34,104.3,327.07Z"/><path class="cls-70" d="M104.3,327.07a16.54,16.54,0,0,1,4.49-4.49c4.15-.72,8.34-.25,12.52-.32a59.22,59.22,0,0,0,6.24-.53l.62.13c0,1.49.09,3,.14,4.47-.05.74-.11,1.49-.16,2.23h-20C106.66,328.57,105.09,328.81,104.3,327.07Z"/><path class="cls-93" d="M93.08,322.58a22.09,22.09,0,0,1,5.24,5.24c-3.59,1.5-7.35.51-11,.72-2.59.15-5.2,0-7.8,0-5.17,0-5.17,0-5.08-5.25a4.63,4.63,0,0,1,3.46-1.09C83,322.33,88,321.77,93.08,322.58Z"/><path class="cls-34" d="M73.58,326.33c.12,6,.12,6-5.7,6-2.33,0-4.66-.07-7-.1-1.15-1.36-1-2.91-.68-4.5a3.35,3.35,0,0,1,1.8-2C65.91,325.14,69.82,324.39,73.58,326.33Z"/><path class="cls-37" d="M74.33,322.5l-.64.17c-2.78.6-5.58.24-8.37.22-2.44,0-3.92-1.14-3.95-3.75a25.21,25.21,0,0,1,.14-5.42c.27-.84.48-1.74,1.65-1.71a5.45,5.45,0,0,0,5.56,2.84c1.94-.13,4-.4,5.81.82a5.63,5.63,0,0,1,.85,3.77A3.78,3.78,0,0,1,74.33,322.5Z"/><path class="cls-94" d="M74.33,322.5l.12-2.91c2.19-1.72,4.76-1,7.17-1.07s4.71-.06,7.06-.08a1.92,1.92,0,0,1,2.14,1.15l2.26,3c-2.77,1.57-5.77.55-8.66.71-3.32.18-6.67,0-10,0Z"/><path class="cls-60" d="M62.4,318.84c-.35,2.49.89,3,3.17,3.07,2.7.08,5.56-1,8.12.76,0,1.22-.07,2.44-.11,3.66H61.65c-1.38-1.49-1-3.31-1-5.08C60.91,320.2,60.79,318.9,62.4,318.84Z"/><path class="cls-95" d="M60.9,327.82c0,1.47,0,2.94,0,4.41l-7.46,0c0-1.22,0-2.45,0-3.68C55.69,326.07,58.23,326.25,60.9,327.82Z"/><path class="cls-96" d="M63.15,312.11a1.52,1.52,0,0,0-.75,1.49c-2.37,1.49-4.9,1.34-7.48.75.16-2.25,1.12-4.42.74-6.73.25-1.75.51-3.49.76-5.24,1.34,0,2.68,0,4,0,2.08-.05,2.82,1.08,2.72,3C64.55,307.62,64.75,309.86,63.15,312.11Z"/><path class="cls-97" d="M54.92,314.35c2.39-1.32,5-.53,7.48-.75v5.24c-.88.54-.72,1.43-.75,2.25-2.37,1.48-4.9,1.34-7.48.74h0c0-2,1.12-3.91.74-6C54.92,315.35,54.92,314.85,54.92,314.35Z"/><path class="cls-98" d="M54.17,321.83c2.39-1.32,5-.53,7.48-.74v5.23l-.75,1.5c-2.49.22-5.09-.58-7.48.75l.75-3.74Z"/><path class="cls-99" d="M307.08,327.08v-6a4.71,4.71,0,0,1,3.47-1.11c5.09.14,10.21-.59,15.27.46,1.75,1.3,2.74,2.93,2.18,5.2-.39,2.05-2,1.4-3.25,1.41C318.86,327.1,313,327.08,307.08,327.08Z"/><path class="cls-100" d="M328,325.64c-.72-1.44-1.56-2.84-1.47-4.54l.54-.26c2.35.09,4.77-.43,7,.8a1.53,1.53,0,0,1,0,1.69c0,1.27-1.07,1.95-1.59,2.92A7,7,0,0,1,328,325.64Z"/><path class="cls-101" d="M334.08,323.33c0-.5-.09-1-.13-1.5-1.42-1.82-1-3.95-1-6-.09-2.75-.08-5.5,0-8.25s-.72-5.64,1.05-8.18c0-.75.08-1.5.11-2.25h.66c0,.5,0,1,0,1.5v22.45C334.72,321.89,334.88,322.76,334.08,323.33Z"/><path class="cls-102" d="M177.63,244.65l-1.48.21a10.25,10.25,0,0,1-8.25.67l-6,.1c-1.69.5-3.43.13-5.13.24-2.51.22-5.07-.48-7.54.44l0,0c-7.09,0-14.18-.17-21.26,0-3,.09-5.28-.25-5.6-3.82a19.3,19.3,0,0,1-1.52-12.09,2.52,2.52,0,0,1,.9-1.09c1.74-.88,3.63-.69,5.48-.71,16.5-.18,33,.34,49.51-.28a4.29,4.29,0,0,1,2.83.66c1.32,1.18.93,2.69.77,4.15-.32,2.94-1,5.87-.23,8.84C180.65,244.11,179.14,244.41,177.63,244.65Z"/><path class="cls-103" d="M194.09,274c1.58,0,3.17,0,4.74.07,4.28.27,5.68,2.48,4.21,6.57l-1.52.91a35.37,35.37,0,0,1-9.64,0,3.86,3.86,0,0,1-2-4.69C190.4,274.66,192.06,274,194.09,274Z"/><path class="cls-104" d="M191.88,281.51h9.64A14.88,14.88,0,0,1,191.88,281.51Z"/><path class="cls-45" d="M149.2,246.31c2.4-1.67,5.08-.45,7.61-.74.15.32.07.53-.27.64Z"/><path class="cls-104" d="M156.54,246.21l.27-.64,5.06.06C160.2,246.85,158.32,246,156.54,246.21Z"/><path class="cls-105" d="M122.32,246.87a161,161,0,0,1,1.53,21.82c-3.77,2-7.69,1.21-11.6.65a3.57,3.57,0,0,1-1.76-2c-.84-2.24-.11-4.69-.94-6.93-.25-2.75-.77-5.47-.84-8.24a2.82,2.82,0,0,1,.82-1.7c2.18-1.23,4.59-.86,6.89-.75C119,249.84,121,249.19,122.32,246.87Z"/><path class="cls-62" d="M122.32,246.87c.34,2.92-.7,4.24-3.87,3.94-2.91-.28-5.87-.06-8.81-.06-2.7-2.78-1.33-6.53-2.33-9.71a13,13,0,0,1,.13-6.16c.94-1.54,2.21-.77,3.21-.25,2.83,1.47,4.81.4,6.83-1.66,1-1.06,1.56-3.37,3.92-2.4q.5,6,1,11.94Z"/><path class="cls-106" d="M111.8,268.71l12,0c1.13,2.93.49,6,.66,9-3.91,1.9-7.89,1.46-11.89.36C110.91,275.06,109.85,272,111.8,268.71Z"/><path class="cls-107" d="M125.2,279.29l.09,10.28c1,2.72-.12,4.13-2.84,4.1-3,0-6.27,1.1-8.67-1.82a5.29,5.29,0,0,1-.7-1.92c0-1.88-1.31-3.8.13-5.64,1.91-.65,3.88-.19,5.8-.14,2.62.07,4.67-.27,4.67-3.55a2,2,0,0,1,.88-1.54A4.88,4.88,0,0,1,125.2,279.29Z"/><path class="cls-108" d="M124.56,279.06c-.15,6.12-.15,6.13-6.51,6.1-1.58,0-3.22.27-4.65-.74-1.27-1-1.15-2.55-1.55-3.89-.12-1.06-.19-2.1.8-2.85h11.86Z"/><path class="cls-109" d="M114.14,291.15c3,3,6.75,1.21,10.15,1.25,1.33,0,.8-1.8,1-2.83.72.63.56,1.53.72,2.33l0,8.24c-4.61,2.17-9.54,1.49-11.73-1.62a7.46,7.46,0,0,1-.51-1.92C113.87,294.79,112.38,292.86,114.14,291.15Z"/><path class="cls-110" d="M213.55,309.12c-4.06-1.57-8.29-.45-12.44-.73-2.33-.15-4.68,0-7,0,0-5.24,0-5.24,5.13-5.24h26.4c5.15,0,5.15,0,5.1,5.24-3.35,2.05-7.16.54-10.66,1.37C217.91,309.29,215.65,310.07,213.55,309.12Z"/><path class="cls-52" d="M219.52,309.12c3.65-1.51,7.47-.43,11.2-.75q0,3,0,6c-3.3,1.82-6.72,1.32-10.15.47C218.91,313.17,218.89,311.2,219.52,309.12Z"/><path class="cls-111" d="M220.28,314.35h10.43v5.24c-3.15,1.82-6.47,1.07-9.77.66a2.52,2.52,0,0,1-1.06-.82C219.16,317.68,218.92,316,220.28,314.35Z"/><path class="cls-112" d="M220.28,319.59h10.43v3.74H220.28A2.57,2.57,0,0,1,220.28,319.59Z"/><path class="cls-113" d="M114.89,297.89a3.3,3.3,0,0,0,3.68,2.3c2.47-.22,5-.05,7.47-.05.23.49.45,1,.67,1.49,0,2,0,4,0,6-3.6,1.87-7.29,1.39-11,.4-1.18-1-1.15-2.45-1.25-3.84C114.93,302.11,113,299.85,114.89,297.89Z"/><path class="cls-114" d="M127.57,315.85c0,1.25-.07,2.49-.11,3.74-4.65,2-9.43,1.17-14.19.66-1.23-.59-1-1.53-.47-2.41,1-1.53,1.48-3.34,2.83-4.62,1.74-.91,3.63-.69,5.47-.65a10.44,10.44,0,0,0,5.7-1.32,4.15,4.15,0,0,1,.66.2C127.49,312.91,127.53,314.38,127.57,315.85Z"/><path class="cls-115" d="M126.8,311.25c0,1.66-.65,2.44-2.42,2.38-2.95-.1-5.9,0-8.85,0-1.25-1.43-1.28-3.19-1.31-5,.18-.6.47-1.08,1.19-1.07l11.26,0C126.71,308.82,126.76,310,126.8,311.25Z"/><path class="cls-116" d="M112.52,319.59h14.94l.09,2.14c-.13.61-.32,1.43-1,1.42-5.94-.06-11.91,1-17.8-.57a4.84,4.84,0,0,1,2.24-2.25C111.44,319.92,111.68,319.15,112.52,319.59Z"/><path class="cls-112" d="M194.09,323.33v-3.74a5.42,5.42,0,0,1,4.2-1.14c4.79.29,9.66-.9,14.36.85a2.81,2.81,0,0,1,.14,4Z"/><path class="cls-117" d="M212.79,323.33c0-1.25,0-2.49,0-3.74l.49-.46c2.39-.78,4.75-1.06,7,.46h0v3.74c-.3,2-1.52,2.84-3.51,3C214.41,326.57,213.53,325.11,212.79,323.33Z"/><path class="cls-118" d="M212.78,319.59H194.09c-.59-3.45.65-4.81,4.33-4.57,4.77.32,9.57.08,14.36.08,1.3,1.49,1.12,3,0,4.49Z"/><path class="cls-119" d="M212.8,319.59c0-1.5,0-3,0-4.49a15.37,15.37,0,0,1,.77-6c2-.51,4-1.37,6,0,1,1.63.69,3.46.76,5.23s0,3.49,0,5.24Z"/><path class="cls-9" d="M237.43,104.73l12.8-13.36a5.32,5.32,0,0,0,.67-.14c0,1.73,1.39,2.58,2.43,3.61q13.71,13.77,27.48,27.5c1.42,1.41,2.87,2.79,3.06,5H275c-2.58,1.8-5.51.82-8.28,1a36.7,36.7,0,0,1-7-.13c-2-.48-2.82-2.34-4.12-3.63-5.3-5.25-10.59-10.51-15.82-15.85C238.66,107.59,237,106.75,237.43,104.73Z"/><path class="cls-120" d="M307.05,178.92h-.7c-1.86.34-3.33-.71-4.91-1.36-3.89-1.6-7.69-3.41-11.55-5.09-1.23-.54-2.5-1.14-3-2.58-.27-4.05-1-8.12.53-12.09,2.37-1.55,5-.82,7.58-1,1.24-.08,2.48,0,3.71,0,6.45,0,6.46,0,6.47-6.3,0-1.86,0-3.71,0-5.57,0-1.49.05-3,1.13-4.19.46-5-.95-10.05.74-15q0,6.36,0,12.73V164.7Q307.06,171.81,307.05,178.92Z"/><path class="cls-121" d="M306.32,140.75c0,4.58-.08,9.16,0,13.73.06,2.55-.92,3.57-3.49,3.51-5.07-.11-10.15,0-15.22,0-1.21-1.1-1-2.59-1.07-4,0-3.16,0-6.33,0-9.49,0-1.32-.1-2.71,1-3.73Z"/><path class="cls-122" d="M274.87,128l12,.12a22,22,0,0,1,.15,8.24c-3.27,1.79-6.72,1-10.12.66-1.37-.16-2-1.32-2.5-2.5a9,9,0,0,1,.06-6Z"/><path class="cls-10" d="M258.43,127.27l16.54,0c0,.23-.07.46-.1.69l0,.05a6,6,0,0,1-4.23,1.15q-13.47.06-26.94,0a5.73,5.73,0,0,1-3.9-1,1.1,1.1,0,0,1,1-1.59C246.73,126.09,252.65,125.06,258.43,127.27Z"/><path class="cls-43" d="M286.86,136.26l0-8.14c1.71,4.12.29,8.44.8,12.63q0,6.72,0,13.44a.78.78,0,0,1-1.14-.3c-1-1.92-.58-4-.65-6C286.05,144,284.75,140,286.86,136.26Z"/><path class="cls-4" d="M176.29,110.88c2.48-2.4,5.21-4.59,7.39-7.24,2.4-2.93,4-2.49,6.28.12,2.67,3,5.8,5.69,8.74,8.51,2.53,1.91,5.33,3.56,6.28,6.9-.22,1.36-1.34,2-2.28,2.76a13.88,13.88,0,0,0-5,7.9c-.53,1.38-.18,3-1.09,4.28a7.9,7.9,0,0,1-3.16,1.26,4.19,4.19,0,0,1-2.75-.18,11.14,11.14,0,0,0-3.73-6c-3.87-3.67-7.58-7.49-11.32-11.28-1.12-1.14-2.43-2.2-2.3-4.06C173.6,112.13,174.9,111.46,176.29,110.88Z"/><path class="cls-3" d="M258.43,127.27c-5.06,0-10.12,0-15.18,0-1.2,0-2.5-.38-3.53.62-.27,1.25-1.31,1.83-2.18,2.56a1.74,1.74,0,0,1-1,0,2.72,2.72,0,0,1-1.08-1.1c-1.74-5.81-6.19-8.77-11.45-10.88.12-3.46,3-4.58,5.29-6.16l8.14-7.6c5.77,6.72,12.43,12.57,18.53,19C257,124.75,258.4,125.53,258.43,127.27Z"/><path class="cls-123" d="M176.29,110.88l-2.39,3a15.69,15.69,0,0,1-3.22,4c-.61.61-1.22,1.21-1.81,1.83-2.87,2.86-5.7,5.76-8.6,8.58-.94.92-1.74,2.14-3.32,2.05-.1-2.26-.21-4.51-.31-6.77a53.05,53.05,0,0,0-.85-13.37C162.62,110.34,169.5,109.27,176.29,110.88Z"/><path class="cls-124" d="M229.29,112.33c-1.82,2-3.63,3.93-5.44,5.89a3.32,3.32,0,0,1-2.66,1.12c-4.84.25-9.7-.07-14.53.43a2.1,2.1,0,0,1-1.95-.89q-3-3.31-6-6.61c7.34-1.5,14.77-.39,22.16-.68C223.68,111.47,226.54,111.31,229.29,112.33Z"/><path class="cls-125" d="M109.49,252.24a28.1,28.1,0,0,1,.82,8.17c.72,1.57.28,2.86-1.39,3.08a58.15,58.15,0,0,1-16.19-.05,1.35,1.35,0,0,1-1.23-1.57l0-5.89a8.1,8.1,0,0,0,.94-3.74A26.63,26.63,0,0,1,109.49,252.24Z"/><path class="cls-126" d="M109.49,252.24H92.41a55.3,55.3,0,0,1,1.34-10.57c4.76-.67,9.61.32,14.35-.78,1.18,3.18.64,6.63,1.54,9.86Z"/><path class="cls-127" d="M108.1,240.89c-.21.43-.39,1.22-.64,1.23-4.58.33-9.19,1.23-13.71-.45,0-2.46.09-4.92.13-7.39l.62-.75a12.84,12.84,0,0,0,2.81-.81c2.68-1.48,5.26-1.81,7.88.11.7.51,1.54.9,2.21-.16,1,.22,1.22.76.63,1.61Z"/><path class="cls-128" d="M112.65,277.68c0,1,0,2-.05,3-.28.24-.5.61-.89.66a86.42,86.42,0,0,1-21.5,0c-.39-.05-.61-.41-.89-.65,0-.75-.06-1.5-.1-2.25L90,271.7c.36-1.26-.22-2.71.83-3.81a7,7,0,0,0,5.74,2c2.85-.11,5.72-.15,8.57,0,2.56.15,4.64-.43,6-2.79.24.53.48,1.06.73,1.59C111.44,271.76,112.5,274.68,112.65,277.68Z"/><path class="cls-129" d="M111.07,267.12c.45,3.13-.93,4.07-4,3.89-4.33-.25-8.69-.16-13,0-2.35.08-3.59-.58-3.25-3.1.18-2-.46-4.12.7-6,2.33,1.74,5,.64,7.49.8,2.94.2,5.91,0,8.87.07,1.71.05,2.56-.58,2.45-2.33C111.54,262.54,110.88,264.88,111.07,267.12Z"/><path class="cls-130" d="M75.18,301.74l.65-.2c1.09,3.52,3.73,3.94,6.86,3.49a6.34,6.34,0,0,1,3.61.08,5.34,5.34,0,0,1,1.57,3.4c-.05,2.05-.14,4.08-1.84,5.59-3.91.61-7.9,1.93-11.48-1.09C74.17,309.22,73,305.38,75.18,301.74Z"/><path class="cls-78" d="M75.18,301.74q-.08,5.5-.13,11a.68.68,0,0,1-1-.19c-.57-3.66-3.1-4-6.18-4-1.86,0-5,.74-3.92-3.21.39-2.73-.85-5.61.74-8.23-.27,2.19.56,3.23,2.9,3,1.72-.15,3.46,0,5.19,0C73.94,300.11,75,300.25,75.18,301.74Z"/><path class="cls-69" d="M86.24,305.37a28.77,28.77,0,0,1-5.77.82c-3.77.46-5.25-.94-4.64-4.65,0-1,.06-1.94.1-2.91,3.68-.32,7.46.75,11.07-.7l.44.37c1,2.15-.11,4.15-.45,6.2A1.82,1.82,0,0,1,86.24,305.37Z"/><path class="cls-131" d="M114.14,291.15l.48,5.2c-5.69.94-11.41.19-17.12.38-3.46.12-7-.21-10.28,1.06l-.22.13c.14-2.51,1.18-4.94.79-7.52.17-.78,0-1.67.72-2.27A5.79,5.79,0,0,1,92.37,287c5.72,0,11.43-.08,17.15,0,1.89,0,3.83.15,4.35,2.57Z"/><path class="cls-132" d="M113.87,289.6c-.93-1.46-2.37-1.46-3.89-1.46-7.16,0-14.31,0-21.47,0,.22-2.49-.35-5.06.81-7.45l23.28,0c1,1.09.43,2.53.79,3.76Z"/><path class="cls-31" d="M209.81,217.83l-.86,1.45a1.65,1.65,0,0,1-1.71.45c-5-1.81-10-1.59-15-.42a4.18,4.18,0,0,1-1.85-.16c-11.17-.32-22.33-.07-33.49-.13-9.42,0-18.85,0-28.28-.05-2,0-4.37.47-5.43-2.12.33-4.41.54-4.55,4.8-4.65,3.1-.07,6.22.39,9.3-.28,13.14-.26,26.29-.69,39.43-.7,3.46,0,5.35-.87,5.93-4.29a9.1,9.1,0,0,1,.88-2c7.5,1.07,15,.31,22.56.54,2.2.07,4.47-.19,6.42,1.22C214.17,211,211.6,214.33,209.81,217.83Z"/><path class="cls-133" d="M196.36,163.84q-17.79-1-35.6-2c-1.61-.09-3.22,0-4.84,0l-4.43-.06c-2.58,0-5.06-.79-7.67-.89-3.83-.14-1.45-3.38-2.12-5.14,1.45-1.28,3.23-1.19,5-1.2q22.43,0,44.85,0c1.62,0,3.26-.07,4.72.84A7.71,7.71,0,0,1,196.36,163.84Z"/><path class="cls-134" d="M186.65,194c.2-.08.42-.16.63-.22,9.57,1.05,19.18.18,28.77.53.52.16,1,.55.87,1.05-.77,4.23-1,8.66-4.29,12-4.61-1.43-9.35-.55-14-.71-4-.14-7.94,0-11.91,0-1.32,0-2.87.33-3.16-1.66Q185.08,199.46,186.65,194Z"/><path class="cls-28" d="M137.28,211.92c-2.69,1.28-5.56.67-8.31.57-3-.12-4.9.61-5.22,3.84a8.64,8.64,0,0,1-2.74,4.42c-.51.54-1,1.05-1.52,1.61-4.55,5.34-7.3,5.49-12.89.7l-5.36-3c3.55-4.67,6.76-9.6,11.28-13.45a15.29,15.29,0,0,1,6.47,2.54,16.85,16.85,0,0,0,12.24,2.57Z"/><path class="cls-135" d="M190.38,134.65l2.94,0c2.79-.92,4,.27,4,3,0,2,.07,4,0,6a3.56,3.56,0,0,1-1.11,2.68c-1.71,1-3.62.82-5.47.82q-21.66,0-43.33,0c-2,0-4,.25-5.71-1.19v-2.23a11.26,11.26,0,0,1,0-6c0-.18,0-.35,0-.52l6.08-.3c2.48-.73,5.09.27,7.55-.6l1.53,0a3.39,3.39,0,0,1,2.69-1c5.33.23,10.57-1,15.89-.83a31.27,31.27,0,0,0,6.7-.09,6.86,6.86,0,0,1,1.16-.31,27.4,27.4,0,0,1,3.62-.24C188.11,133.82,189.39,133.69,190.38,134.65Z"/><path class="cls-136" d="M141.68,137.72c0,2,0,4,0,6l-.64,0C141.27,141.71,140.34,139.6,141.68,137.72Z"/><path class="cls-136" d="M141.7,146h54.61c1.89,2.72,1,5.69.79,8.61a2.47,2.47,0,0,1-.79,1.12H141.7Z"/><path class="cls-137" d="M176.17,135.41c-6.45.18-12.87,1.21-19.35.86,0-1.75-.07-3.5-.11-5.25l.24-.72L168.63,119c5.37,3.67,9.47,8.66,13.83,13.37a2.06,2.06,0,0,1,.44,2.41h0C180.72,135.68,178.36,134.61,176.17,135.41Z"/><path class="cls-138" d="M155.29,136.3c-2.44,1.16-5,.51-7.55.6C150.17,135.61,152.78,136.51,155.29,136.3Z"/><path class="cls-139" d="M250.3,280.68c-.06-3.5-.13-7-.19-10.52a3.56,3.56,0,0,1-.26-1.08c0-13-1.24-26-.88-39.07.26-9.65,5.6-13.15,14.69-9.21,6.22,0,12.44,0,18.66.08,4.17,0,5.35,1.16,5.35,5.3q0,26.5-.05,53c-1.45,1.28-3.26,1.17-5,1.08-2.78-.13-3.74,1.16-3.67,3.81.08,3.24.11,6.48,0,9.72a5.44,5.44,0,0,1-.77,3.2.92.92,0,0,1-1.23.1,4.28,4.28,0,0,1-.82-2.6c-.2-5.47-.15-10.94-.05-16.41,0-7.43.08-14.86-.06-22.29,0-1.37-.18-2.83-1.73-3.41-1.39-.53-2.38.12-3,1.4-1.12,3-.45,6.17-.53,9.25-.14,5.11,0,10.21-.07,15.32a3.85,3.85,0,0,1-1,2.64C263.17,282.22,256.72,282.75,250.3,280.68Z"/><path class="cls-3" d="M287.59,170.62l18.76,8.31q0,17.94,0,35.9c-1.91.28-3.26-.58-4.58-1.91-11.1-11.18-22.42-22.15-33.28-33.57-2.37-2.49-6.44-4.19-6.3-8.67.45-.22-.2-.14.28-.23A67.26,67.26,0,0,1,287.59,170.62Z"/><path class="cls-140" d="M196.31,155.72l0-.75c6.07,2.86,12.54,1.66,18.87,1.81,5.56.13,11.12,0,16.69,0,1.71,0,3.48-.15,5,1,1.13,2.82,1.54,5.61-.24,8.35l-11.16-.6a5.28,5.28,0,0,1-4.25,1c-7.17-1-14.44-.31-21.59-1.48a4.36,4.36,0,0,1-2.74-1,1.35,1.35,0,0,1-.57-.2Q196.34,159.77,196.31,155.72Z"/><path class="cls-141" d="M236.67,166.14l0-8.18c-.5-.91-.68-1.76.44-2.37,1.62.88,1.55,2.5,1.5,3.93-.11,3.14,1.44,4.07,4.34,4,8.7-.06,17.4,0,26.1,0,1.85,0,3.74-.19,5.51.6a2,2,0,0,1,1.06,1.46c.3,3,2.3,3.33,4.8,3.3,5.32-.06,5.32,0,5.41-5.39.18-3.12-.91-6.38,1.07-9.29l.72,0c0,1.25,0,2.51.05,3.76q0,6.33-.05,12.66l-25.42.06c-6.6,0-13.2,0-19.81-.06C239.33,170.6,236.91,169.73,236.67,166.14Z"/><path class="cls-142" d="M221.85,178.91l-1.63,3.73c-2.43,1.87-5.29,1.27-7.94,1.12-5.71-.31-11.41-.76-17.14-.78-1.9,0-4.36-.08-3.3-3.32a11.09,11.09,0,0,1,1.55-4.49,5.33,5.33,0,0,1,3.8-1.15c7-.05,14-.08,21.06,0,1.6,0,3.26.11,4.14,1.85Z"/><path class="cls-143" d="M196.93,164l28.58,1.5-1.67,5.84c-7.13,1-14.3.28-21.45.41-2.51.05-5.22.75-7.49-1.11C195.58,168.47,196.25,166.25,196.93,164Z"/><path class="cls-144" d="M277.89,294.15c0-4.06.07-8.12,0-12.18-.05-2,.65-2.92,2.75-2.81,2.34.12,4.68,0,7,0v15A9.92,9.92,0,0,1,277.89,294.15Z"/><path class="cls-145" d="M194.9,170.68h24.61c1.48,0,3-.2,4.33.7l-1.45,4.51c-1.34-.9-2.86-.72-4.35-.72H193.39A10.29,10.29,0,0,1,194.9,170.68Z"/><path class="cls-53" d="M287.61,307.62q0,5.24,0,10.47a3.53,3.53,0,0,1-3.05,1c-3.58-.58-5.79.84-6.75,4.29a.78.78,0,0,1-1.06-.3c-.84-1.59-.61-3.31-.65-5a20.06,20.06,0,0,1,.3-4.51c.89-2-.21-4.56,1.64-6.32C281.29,306.22,284.5,305.83,287.61,307.62Z"/><path class="cls-146" d="M250.2,206.65a5.2,5.2,0,0,1-2.29-3.79c2.06-3.67,9.81-5.11,12.94-2.43a3.41,3.41,0,0,1,1.2,3.68,3.17,3.17,0,0,1-3.27,2.52C255.92,206.66,253.06,206.64,250.2,206.65Z"/><path class="cls-147" d="M287.61,307.62h-9.72c-1.32-1.31-.92-3-1-4.57a4.24,4.24,0,0,1,1.08-3.26c3.26-1.11,6.5-1.43,9.66.34Z"/><path class="cls-102" d="M277.14,323.33c1.91-5.24,1.91-5.24,8.25-5.24h2.23v6.74H277.13A1,1,0,0,1,277.14,323.33Z"/><path class="cls-148" d="M287.62,300.13h-9.73a2.11,2.11,0,0,1,0-3v-3h9.73Z"/><path class="cls-139" d="M191.1,218.59a26,26,0,0,1,17.86.69c-1.65,5.57-3.07,11.22-5,16.69-2.23,6.28-7.36,8.28-13.62,8.13l-2.29,0c-1.45.68-3.1-.23-4.53.61l-5.89-.08c.51-.76,2.22-.49,1.59-2.28-1.49-4.24.24-8.39.65-12.57C181.49,223.93,185.42,220.38,191.1,218.59Z"/><path class="cls-149" d="M250.3,280.68h19.35c1.84,5,1.41,10.06.21,15.12a36.3,36.3,0,0,1-19.56-.15Z"/><path class="cls-43" d="M250.31,315.11v-7.49a3.5,3.5,0,0,1,2.67-1.06c5.5.13,11-.88,16.49.65a3.5,3.5,0,0,1,1.21,2.59c-.14,1.91.44,4-1.05,5.62C263.17,316.63,256.72,317.18,250.31,315.11Z"/><path class="cls-147" d="M269.65,307.62H250.31v-6.73a3.14,3.14,0,0,1,2.29-1c5.71.09,11.47-1.07,17.1.74A6.25,6.25,0,0,1,269.65,307.62Z"/><path class="cls-48" d="M271.9,326.33c-7.15,1.54-14.39.38-21.58.75v-6a4.35,4.35,0,0,1,3.42-1.1c5,.09,10.11-.5,15.13.36A8.1,8.1,0,0,1,271.9,326.33Z"/><path class="cls-76" d="M269.65,321.09H250.32c0-2,0-4,0-6h19.34a3.76,3.76,0,0,1,1,3A3.7,3.7,0,0,1,269.65,321.09Z"/><path class="cls-150" d="M269.65,300.89H250.31c0-1.75,0-3.49,0-5.24h19.35c1.19,1.24,1,2.71.72,4.2A2.23,2.23,0,0,1,269.65,300.89Z"/><path class="cls-27" d="M326.53,230.55V250a4.18,4.18,0,0,1-3.06,1.1c-5.46-.33-11,1.26-16.37-1.1q0-9.74,0-19.46Z"/><path class="cls-151" d="M326.52,262.72v17.21a4.1,4.1,0,0,1-3.06,1.1c-5.46-.33-11,1.26-16.38-1.1q0-8.61,0-17.21a4.48,4.48,0,0,1,3.06-1.11q6.64-.19,13.31,0A4.6,4.6,0,0,1,326.52,262.72Z"/><path class="cls-152" d="M307.08,279.93h19.44q.11,6.4.19,12.82c.18.94.43,1.9-.54,2.61-6.38.9-12.77,1.67-19.09-.46Z"/><path class="cls-153" d="M326.52,262.72H307.09V250h19.43Z"/><path class="cls-154" d="M307.08,294.9h19.44c.16,4.05,2.22,8.09.15,12.17-6.55,1.5-13.08,1.8-19.59-.2Z"/><path class="cls-155" d="M307.08,306.87h19.44a11.75,11.75,0,0,1,.13,9.94c-6.54,1.48-13.07,1.8-19.57-.21Z"/><path class="cls-44" d="M307.08,316.6h19.44a3.58,3.58,0,0,1,.23,4.62l-.22-.11H307.08Z"/><path class="cls-16" d="M183.52,244.73c1.39-1.09,3-.56,4.53-.61C186.67,245.3,185,244.56,183.52,244.73Z"/><path class="cls-156" d="M269.65,321.09c0-1,0-2,0-3l.52-.22a1.79,1.79,0,0,1,.78.76c.26,2.52,1.36,4.09,4.2,3.85a2.52,2.52,0,0,1,2,.85h0c0,.5,0,1,0,1.5a6.24,6.24,0,0,1-5.23,1.5C270.83,324.72,269.11,323.39,269.65,321.09Z"/><path class="cls-157" d="M333.93,236.53q0,11.22,0,22.44a5.45,5.45,0,0,1-6.64,0V236.53Z"/><path class="cls-158" d="M334,273.2q0,9,0,17.94c-6.68,0-6.69,0-6.68-6.73q0-5.6,0-11.21A5.46,5.46,0,0,1,334,273.2Z"/><path class="cls-159" d="M334,273.2h-6.66q0-7.11,0-14.23h6.64Q333.94,266.08,334,273.2Z"/><path class="cls-160" d="M326.75,321.21c-.07-1.54-.15-3.08-.23-4.62V294.9c.06-.72.12-1.44.19-2.15,1.17,2.13.26,4.44.57,6.64,1.75,2.44,1,5.21,1.06,7.87,0,.48,0,1,0,1.45,0,5,0,5,4.69,6.53a3,3,0,0,1,.9.6v6C331.55,321.62,329.07,322.37,326.75,321.21Z"/><path class="cls-161" d="M327.29,307.62c0-2.74,0-5.49,0-8.23H334q0,4.11,0,8.23A5.51,5.51,0,0,1,327.29,307.62Z"/><path class="cls-30" d="M63.9,305.37c-.09,1.51.49,2.35,2.13,2.25,1-.05,2,0,3,0,6.62,0,5.16-.1,5.42,5.33.62,1,.89,2-.08,2.9-2.55,0-5.13-.2-7.66,0-3.08.31-3.88-1.1-3.52-3.79v-6.74Z"/><path class="cls-89" d="M106.6,223.06c5.68,3.71,10.39,2.81,14.07-3a8.91,8.91,0,0,1,1,9.69c-.08.26-.15.52-.23.78-1.25,0-1.51,1.13-2.14,1.83-4.6,5.12-4.7,5.15-11.23,1.88-.21-.54-.43-1.07-.64-1.61C107.13,229.47,106.86,226.27,106.6,223.06Z"/><path class="cls-162" d="M105.09,317.42q-4.17,4.93-8.29,0c-1.64-.43-2.7-1.67-3.86-2.75-.76-.71-1.26-1.59-.09-2.46a25.55,25.55,0,0,1,16.19,0C109.73,314.93,108.72,316.26,105.09,317.42Z"/><path class="cls-163" d="M92.41,312.84c1.07,1.9,3.53,2.45,4.39,4.55-1.41,2.31-4.1,1.17-6,2.2l-1.49-.74c-2.15-1.09-4.34-2.16-3-5.25l.8-5.31a1.22,1.22,0,0,1,1-.08C89.86,309.49,91.57,310.76,92.41,312.84Z"/><path class="cls-164" d="M105.09,317.42a22.22,22.22,0,0,0,4.41-4.57c.8-2.11,2.52-3.38,4.24-4.66a1.15,1.15,0,0,1,1,.13,14.37,14.37,0,0,1,.77,5.28c.26,2.63-1.8,4.1-3,6l-1.49.74C110.26,316.88,106.74,319.05,105.09,317.42Z"/><path class="cls-165" d="M86.33,313.6c-.41,2.55,2.17,3.4,3,5.25-4.89,1.68-9.93.28-14.88.74l-.12-3.74c0-1,.06-1.93.08-2.9l.64-.18C78.7,314.62,82.59,313.12,86.33,313.6Z"/><path class="cls-166" d="M327.29,307.62H334c0,2.74,0,5.48,0,8.22C327.23,315.86,327.23,315.86,327.29,307.62Z"/><path class="cls-21" d="M121.63,229.79q-.48-4.84-.95-9.69l3.07-3.77c.61,2.46,2.63,1.44,4,1.45,19.7.06,39.39,0,59.09.07,1.42,0,3-.58,4.24.74a30.06,30.06,0,0,0-11.23,11.21c-2.28-1.55-4.56.1-6.85.08C155.89,229.72,138.76,229.79,121.63,229.79Z"/><path class="cls-167" d="M87.22,297.79c.81-.78.85-2.21,2.6-2.19,7.69.12,15.38.06,23.08.11a5.48,5.48,0,0,1,1.72.64l.27,1.54.54,5.95c-6.51-.57-13-.29-19.56-.36-3.19,0-6.38-.1-9.43,1.1Z"/><path class="cls-168" d="M86.44,304.58a3.51,3.51,0,0,1,3.72-2.26c7.23.15,14.46.1,21.7,0a3.93,3.93,0,0,1,3.57,1.49c0,1.25,0,2.5,0,3.74l-.65.74-.72.07a180.27,180.27,0,0,1-26.19,0l-.72-.06c-.3-1-.59-2-.89-2.92C86.31,305.11,86.38,304.84,86.44,304.58Z"/><path class="cls-169" d="M237.43,130.16c.14-1.39,1.38-1.64,2.29-2.23l35.19.12v6a1.3,1.3,0,0,1-.34,1.93,8.44,8.44,0,0,1-4.37.73q-14,0-28,0c-1.61,0-3.26.08-4.7-.89A4.64,4.64,0,0,1,237.43,130.16Z"/><path class="cls-48" d="M274.87,135.51c0-.49,0-1,0-1.49a3.76,3.76,0,0,0,4.1,2.3c2.6-.24,5.23-.06,7.85-.06,0,4,0,8,0,12-4.68,2.15-10.11,1.5-12.34-1.49a5.14,5.14,0,0,1-.46-1.28C274,142.11,273,138.7,274.87,135.51Z"/><path class="cls-76" d="M274.91,146a3.64,3.64,0,0,0,3.95,2.31c2.64-.24,5.33-.06,8-.06q0,3,0,6V164c-5.4,2.47-10.2,1.24-12.7-3.25C273.84,155.76,272.71,150.79,274.91,146Z"/><path class="cls-170" d="M236,129.5l.75.8c.16,3.58,1.36,7.08.8,10.71a19.86,19.86,0,0,1-.7,2.65c-1.43,4.06-4.35,5.75-8.59,5.7-8.09-.08-16.17.09-24.25-.07-4.51-.09-6.2-1.47-7.29-5.37-.21-3.3.43-6.64-.4-9.92.25-1.49-.58-3.17.75-4.49Q216.54,130.43,236,129.5Z"/><path class="cls-171" d="M236,129.5c-.8,1.77-2.38,1.52-3.87,1.52-10.6,0-21.19,0-31.79,0-1.25,0-2.91.6-3.27-1.49.24-3.91,2.75-6.41,5.54-8.67.75-.62,1.7-1,2.1-2,6.36-.95,12.75-.68,19.14-.66C230.48,119.38,234.91,123.49,236,129.5Z"/><path class="cls-137" d="M190.38,134.65l-3.79.07c-5.56-5.66-11.74-10.73-16.48-17.18a15.06,15.06,0,0,1,3.79-3.68c0,1.57,1.26,2.32,2.19,3.26q7,7.09,14.12,14.11C191.37,132.39,192.33,133.41,190.38,134.65Z"/><path class="cls-171" d="M196.32,134c1.66,3.15.34,6.53.75,9.77-.29.31-.53.28-.73-.1,0-1.94-.14-3.89,0-5.81.2-2.36-.69-3.41-3.05-3.18C194.15,133.72,195.29,134.11,196.32,134Z"/><path class="cls-172" d="M236.71,141.5q0-5.61,0-11.2c.23,0,.46-.08.68-.14l.06,5.35C238.53,137.67,239.74,139.86,236.71,141.5Z"/><path class="cls-4" d="M170.11,117.54c5.77,5.46,11.94,10.54,16.48,17.18l-3.69.08c-2.2-4.42-6.39-7.07-9.54-10.65-1.54-1.74-3.15-3.42-4.73-5.13A2.34,2.34,0,0,1,170.11,117.54Z"/><path class="cls-90" d="M219.44,184.91a57.86,57.86,0,0,1-3,9.73c-1.45,1-3.08.73-4.67.73H191.42c-1.58,0-3.3.32-4.14-1.61a36.7,36.7,0,0,1,3-8.95A236.43,236.43,0,0,1,219.44,184.91Z"/><path class="cls-173" d="M219.44,184.91a6.69,6.69,0,0,1-3.93.74c-7.26,0-14.53,0-21.8,0-1.19,0-2.51.38-3.42-.82a13.16,13.16,0,0,1,1.55-5.15c-.14,1.85.87,2.23,2.51,2.27,8.63.19,17.25.47,25.87.71Z"/><path class="cls-174" d="M196.34,143.67l.73.1c.82,3.09,3.13,4.44,6,4.48,8.91.12,17.82,0,26.73.05,3.57,0,5.19-2.28,6.23-5.27,2,.43,1.54,2.13,1.67,3.45s0,2.65.1,4c-.05,1.82.32,3.72-1,5.32-.07.73-.14,1.46-.22,2.19-10.89,0-21.77-.1-32.66.06-3.11,0-5.82-.2-7.63-3.05,0-3,0-6,0-9Z"/><path class="cls-4" d="M176.17,135.41c2.14-1.31,4.49-.38,6.73-.62C180.75,136,178.42,135.32,176.17,135.41Z"/><path class="cls-175" d="M270.4,253c.27-2.59,2.21-2.38,3.93-2.17,2.08.25,2.82,1.72,2.82,3.72,0,7.72,0,15.43,0,23.15-1.48,1.26-3.2,1.24-5,.92-1.17-.21-2.14-.74-2.11-2.17C270.23,268.63,269.6,260.8,270.4,253Z"/><path class="cls-176" d="M270.4,253v20c0,4.71,0,4.71,4.89,4.72h1.85v17.2a5.13,5.13,0,0,1-3.85,1.07c-2.22-.08-3.28-1-3.31-3.44,0-4.69.56-9.41-.32-14.09,0-7.19,0-14.39,0-21.58C269.69,255.55,269.18,254.09,270.4,253Z"/><path class="cls-177" d="M269.66,278.43c1.63,3.17.59,6.56.69,9.82.19,6.65,0,6.65,6.79,6.64v2.25c.74,2,.19,4,.36,6-.16,1.57.38,3.2-.38,4.72a5,5,0,0,1-3.16.84c-2.6.05-4.27-.71-4-3.83.14-1.55.44-3.2-.33-4.73,0-1.49,0-3,0-4.48v-15C269.65,279.93,269.66,279.18,269.66,278.43Z"/><path class="cls-144" d="M277.14,303.13v-6h.75v6Q277.52,303.63,277.14,303.13Z"/><path class="cls-172" d="M236.86,155.77c0-1.78,0-3.57,0-5.35.62-5.58.62-5.6,6.59-5.62q13,0,26.1,0c1.84,0,3.76-.19,5.32,1.18h0v15c.47,1.26,1.06,2.51,0,3.75-11.17,0-22.33-.11-33.49.06-3.09.05-4.24-.83-4-4C237.56,159.16,238.05,157.33,236.86,155.77Z"/><path class="cls-43" d="M274.88,164.7l0-3.75c1.84,3,4.77,3.18,7.84,3,1.37-.08,2.75,0,4.12,0,0,6.88.7,5.9-5.8,6h-.74C274.15,169.91,275,170.44,274.88,164.7Z"/><path class="cls-178" d="M269.66,300.13a2.6,2.6,0,0,1,.71,2.74c-.67,4,1.13,5.36,4.91,4.76a11.42,11.42,0,0,1,1.85,0,10.36,10.36,0,0,1,0,6c0,1.49,0,3,0,4.48a5.57,5.57,0,0,1-6.73,0c-1-2.67.3-5.56-.74-8.23,0-.75,0-1.49,0-2.24v-6.73C269.65,300.63,269.66,300.38,269.66,300.13Z"/><path class="cls-179" d="M270.4,318.09h6.73v5.24h-1.45C270.41,323.33,270.41,323.33,270.4,318.09Z"/><path class="cls-148" d="M277.14,313.61q0-3,0-6c0-1.5,0-3,0-4.49h.75v4.49C277.56,309.6,278.63,311.77,277.14,313.61Z"/><path class="cls-179" d="M269.66,309.86c1.59,2.62.36,5.5.74,8.23h-.74c0-1,0-2,0-3C269.65,313.36,269.66,311.61,269.66,309.86Z"/><path class="cls-180" d="M87.85,308.35c.85-1,2-.72,3.1-.72q10,0,20,0c1.08,0,2.26-.3,3.09.76a17.2,17.2,0,0,1-4.54,4.46,44.67,44.67,0,0,0-17.09,0A16.12,16.12,0,0,1,87.85,308.35Z"/><path class="cls-181" d="M274.88,146c-10.55,0-21.09.14-31.63-.08-3.57-.08-6.26.15-6.38,4.51-.57-2.43.65-5.06-.81-7.39-.05-.63,0-1.21.65-1.53,1.55-1.83.43-4,.78-6h37.38Q274.87,140.76,274.88,146Z"/><path class="cls-182" d="M255.28,161.05c-2.9-.05-6.38.75-6.87-3.58-.32-2.8,2-3.95,7.06-3.93a18.25,18.25,0,0,1,2.22,0c2.5.3,4.39,1.55,4.26,4.2s-2,3.5-4.45,3.29C256.76,161,256,161.05,255.28,161.05Z"/></svg>