<svg id="Layer_1" data-name="Layer 1" xmlns="http://www.w3.org/2000/svg" viewBox="0 0 384 390.64"><defs><style>.cls-1{fill:#559bd4;}.cls-2{fill:#e4eff8;}.cls-3{fill:#ecb320;}.cls-4{fill:#ffcb2a;}.cls-5{fill:#c5dcef;}.cls-6{fill:#3788c8;}.cls-7{fill:#e6eff8;}.cls-8{fill:#f5c029;}.cls-9{fill:#d7e6f4;}.cls-10{fill:#fcecc8;}.cls-11{fill:#559ad4;}</style></defs><path class="cls-1" d="M105.58,254.06c-11.9-12.06-21-26-26.31-42.05-16.11-48.71-6.12-91.73,30.19-127.88C128.78,64.9,152.84,54.46,180.1,52c34-3.13,63.92,6.64,90,28.58.57.48,1.18.91,1.77,1.37.29,1.79-1.08,2.7-2.09,3.72q-9.87,10-19.83,19.84c-3.1,3.06-3.66,3-7.23.3-16.47-12.67-35.14-18.71-55.84-17.49a80.91,80.91,0,0,0-47.59,18.62C121,121.87,111,141.28,109,164.54c-1.73,20,3.7,38.26,15.24,54.68,1.15,1.63,2.4,3.19,3.57,4.8a79.85,79.85,0,0,0,21.29,18.27c1.42.86,3.29,1.47,3,3.75-1.25,2.73-3.65,4.64-5.5,7.47,5.38.49,10.44.13,15.48.23,2.49,0,5-.05,7.48,0,4.24.12,5.26.93,5.07,5a133.57,133.57,0,0,1-2.3,19.63,2.73,2.73,0,0,1-1.08,1.89c-2.52-1.57-5.44-1.29-8.2-1.71C141.81,275.37,122.47,267.57,105.58,254.06Z"/><path class="cls-2" d="M127.43,224.84c-28.76-34.05-25.54-85.66,7.38-115.47,17.77-16.1,38.83-23.53,62.73-22a81.86,81.86,0,0,1,46.57,18.25c1,.83,1.92,2.63,3.66.81,7.92-8.27,16.54-15.86,24.06-24.52a12.12,12.12,0,0,0,3.62-3.72c12.57-12.81,25.35-25.4,38-38.1a3.86,3.86,0,0,1,2.47-1.54c1.76-1,2.71-3.09,5.27-3.07s4.54.73,5.83,3,.83,4.5-.83,6.49c-.47.56-.93,1.14-1.39,1.72-.26,1.62-1.58,2.47-2.6,3.5q-16.94,17-33.9,33.94a16.42,16.42,0,0,1-3.78,3,11.32,11.32,0,0,0-3.86,3.77c-.31,1.6-1.61,2.46-2.64,3.5-7.44,7.49-14.93,14.92-22.36,22.42q-12.8,12.66-25.46,25.46c-11.41,11.25-22.61,22.71-34,33.94-4.19,2.37-7.66,2-10-1.06-2.21-2.89-1.9-6.62,1.19-9.79,9.4-9.64,19-19.07,28.51-28.6,3.59-3.61,3.51-4.11-1-6.57-30.41-16.56-66.35,2.11-70,36.57-1.24,11.69,1.93,22.48,9,32,5.15,7.44,12.23,12.42,20.44,15.94,1.12.49,2.37.74,3.22,1.74,0,3-2.53,4.46-4.12,6.32-4.2,4.9-8.58,9.64-12.82,14.51-1.11,1.28-2.22,2.74-4.17,2.9C145.54,237.34,135.69,232.59,127.43,224.84Z"/><path class="cls-3" d="M244.74,338.64c11.37,11.69,25,20,40,26.12,11.67,4.8,23.88,7.47,36.36,9,.34.05.66.2,1.88.57-1.79.1-2.67.18-3.56.18H68.92c-1,0-2-.07-3-.11a.59.59,0,0,1,.38-.94c22.57-1.78,45.21-3.1,67.07-9.79,14.25-4.36,27.32-10.87,37.91-21.6,10.22-10.35,16.43-23,20.46-36.85a207.34,207.34,0,0,0,7.13-40.39c1.38-16,2-32,2.19-48.07a8.6,8.6,0,0,1,.45-3.3c2.91-1.71,3.46,1.3,4.94,2.46,6.83,7.9,13.84,15.64,20.8,23.43,1.74,1.95,3.34,4,5.22,5.86a46.08,46.08,0,0,1,5.94,6.7c2,2.6,1.53,3.71-1.8,3.85-6.1.26-12.2,0-18.3.11-6.53.1-8.3-1.62-7.16,7.63a176.62,176.62,0,0,0,4.21,24.23c4.19,15.68,11.93,29.46,22.12,42C239.9,332.71,243,335.09,244.74,338.64Z"/><path class="cls-4" d="M202.11,212.85c.51,11.45-.36,22.89-.91,34.3-1,21.53-3.16,42.94-10.12,63.62-8.32,24.7-24.45,41.64-48.74,50.92-14.1,5.39-28.77,8.19-43.73,9.91A315.08,315.08,0,0,1,66,373.91a.63.63,0,0,1-1-.21c10.77-1.83,21.45-4,31.66-8.05,15.77-6.23,30.08-14.7,42-27,1.74-3.82,5.47-6,7.72-9.45.6-.92,1.48-1.66,2.08-2.62,8.87-11.58,15.69-24.2,19.44-38.37,1.18-2.6.95-5.71,2.89-8,2.09-7.59,2.45-15.4,2.93-23.2.14-2.37-1.19-2.22-2.77-2.21-7.59,0-15.19,0-22.79,0H143.9L152,245.1c1.06-2.09,2.07-4.23,4.53-5.1,7.2-7.48,14-15.32,20.73-23.25,1.67-4.64,6.2-7,8.66-11.05.51-.55,1.06-1,1.58-1.56,4.15-4.16,4.15-4.16,8.22,0C198,206.93,201.09,209.15,202.11,212.85Z"/><path class="cls-5" d="M244.74,338.64c-14.5-14-24.77-30.51-29.93-50.09a4.71,4.71,0,0,1,4.84-1.4c1.63.64,1.9,2.18,2.3,3.61a89.27,89.27,0,0,0,3.34,9.1c.49,1.22,1.13,2.53,2.69,1.49,9.47-6.29,18-13.41,20.92-25.14,2.83-2.79,5.74-5.45,10-5.83,2.89,6.24,7.18,11.57,11.37,16.9a144.74,144.74,0,0,0,37.59,34c14.43,8.93,29.88,14.95,46.89,16.58.26.16.34.31.26.46s-.17.24-.26.24Z"/><path class="cls-6" d="M220.06,287.73l-5.25.82c-2.77-7.06-3.6-14.52-4.46-22-.35-3-.34-5.95-.71-8.9-.28-2.28.36-3,2.74-2.94,8.32.15,16.65.06,25,.06h2.24c-3-3.53-5.62-6.6-8.24-9.66.61-1.83,2.13-2.16,3.76-2.3a4.09,4.09,0,0,1,3.14,1.8c2.32,3.1,5.48,5.46,7.69,8.64,1.59,2.29,3.18,2.13,5.29.56a117.26,117.26,0,0,0,28.28-30.52,118,118,0,0,0,7.4-114.84c-1-2.13-2.09-4.24-3.18-6.34-1.84-3.58-2.13-3.65-4.92-.88-5.39,5.35-10.74,10.74-16.12,16.1a14.09,14.09,0,0,1-3.39,2.91c-2.64,0-3.69-1.57-4-3.91,8.15-8.81,16.75-17.16,25.41-25.46,22.45,25.42,33,55.22,30.37,88.9-2.9,37.6-20.32,67.54-51.08,89.57a12.92,12.92,0,0,0-1.09,1l-9.81,6a2.43,2.43,0,0,1-1.18,1.39,101.75,101.75,0,0,1-26,10A6.83,6.83,0,0,1,220.06,287.73Z"/><path class="cls-2" d="M168.62,288.58a102.1,102.1,0,0,1-19.81,38.79c-3.72,2.12-7.93,2-12,2.48-21.47,2.57-43,4.27-64.64,4.89-8.38.24-16.93-.49-25.24,1.63a3.45,3.45,0,0,1-3.49-.74c7-2.73,14.26-4.78,21-8.2a145.32,145.32,0,0,0,29.12-19.76c11.61-9.95,21-21.7,29.28-34.39.6-.92,1.46-1.72,1.46-2.95,1.54-.67,2.6.39,3.72,1.09A120.17,120.17,0,0,0,164,286.56C165.6,287,167.44,287.05,168.62,288.58Z"/><path class="cls-4" d="M315.94,38.55Q296.77,57.74,277.6,76.9c-.6.6-1.11,1.39-2.15,1.29-1.12-8.27-2.15-16.55-3.41-24.79-.43-2.83,0-5.13,2-7.17Q288.39,32,302.66,17.66c1.8-1.8,3.84-2.82,6.39-2a6.27,6.27,0,0,1,4.41,5.52C314.32,27,315.12,32.76,315.94,38.55Z"/><path class="cls-4" d="M330.08,47.67l11.07,1.44c2.68.34,4.71,1.55,5.68,4.18s0,4.82-1.92,6.73q-14.15,14.13-28.26,28.3c-1.56,1.57-3.32,2.8-5.59,2.48-6.4-.91-12.79-2-19.18-3-.22-2.11,1.54-3,2.7-4.15q15.74-15.84,31.55-31.59A35.41,35.41,0,0,0,330.08,47.67Z"/><path class="cls-5" d="M43.48,335.63c14.26-2.2,28.65-1.79,43-2.38,12.71-.52,25.39-1.76,38.07-2.93,8.11-.75,16.17-1.95,24.26-2.95a62.92,62.92,0,0,1-10.19,11.31l-110.83-.09c-.27-.16-.35-.31-.27-.47s.18-.23.27-.23A56.69,56.69,0,0,0,43.48,335.63Z"/><path class="cls-6" d="M168.62,288.58a119.7,119.7,0,0,1-41-16.43c-1-.67-2.14-1.22-3.21-1.82-6.49-5.16-13.35-9.9-18.79-16.27,4.84,1.33,8.15,5.17,12.35,7.59a123.13,123.13,0,0,0,43.54,15.66,31.82,31.82,0,0,0,7,.69c1.63-.11,2.25.72,2.27,2.21A25.81,25.81,0,0,1,168.62,288.58Z"/><path class="cls-3" d="M330.08,47.67c1,1.84-.77,2.42-1.61,3.26q-16.87,17-33.83,33.89c-1,1-1.84,2-2.76,3-2.51.49-4.88-.59-7.34-.71,3.66-4.57,8.07-8.41,12.19-12.54C306,65.26,315.45,56,324.82,46.73Z"/><path class="cls-7" d="M27.79,337.89a4.09,4.09,0,0,0,0,.7h-4.4l0-.7Z"/><path class="cls-8" d="M65,373.7l1,.21a2.14,2.14,0,0,0-.06.5H61.26l-.07-.53Z"/><path class="cls-9" d="M354.73,338.59c0-.24,0-.47,0-.7h3.65l0,.7Z"/><path class="cls-10" d="M329.44,374.31a4.79,4.79,0,0,1,3.6-.3C332.06,374.9,331.09,374.44,329.44,374.31Z"/><path class="cls-5" d="M156.57,240a21.22,21.22,0,0,1-4.53,5.1,88.54,88.54,0,0,1-22.29-17.39c-.83-.91-1.55-1.91-2.32-2.87,5.52,3.28,10.66,7.13,16.49,10C148.05,236.83,152.68,237.5,156.57,240Z"/><path class="cls-1" d="M195.31,204.72c-3.53-3.37-3.53-3.37-8.73,1.51a10.42,10.42,0,0,1-6.66,1.76c-7.37-.22-14.48-1.45-21.19-4.72-2-1-3.58-2.58-5.41-3.8-17.39-21.41-10.41-56.12,14.26-69.83,17.2-9.56,34.26-8.72,51,1.65,2.22,1.39,2.27,2.16.41,4-10.32,10.13-20.52,20.38-30.73,30.62-4,4-3.23,9.19,1.5,10.83,2.37.82,4.39-.06,6.32-1.33,3.71,1,6.49-.5,9-3.06q9-9,18-18c1-1,2-2.58,3.72-2,1.9.64,1.64,2.58,1.7,4.17a48.75,48.75,0,0,1-29.23,47.24A7.42,7.42,0,0,1,195.31,204.72Z"/><path class="cls-5" d="M234.86,243.47l-3.51,1.68-25.26-28.41a4.47,4.47,0,0,1,5.08-1.85c3.77,3.62,7.14,7.63,10.61,11.53,1.74,2,3.32,2.09,5.45.53,19.82-14.54,31.46-33.85,34.64-58.32,1.77-13.7-.36-26.79-5.05-39.61-1.38-3.77-1.84-3.9-4.64-1.13C247,133,242,138.11,236.83,143.2c-1.14,1.13-2.14,2.47-3.88,2.79a3.67,3.67,0,0,1-3.17-4.14q12.25-13.23,25.49-25.48c1.22,1.3,2.43,2.61,3.64,3.91,4.63,4.35,7.54,9.84,10,15.54,11,25.18,10.35,50.17-2.11,74.64a80.5,80.5,0,0,1-28,31A17.78,17.78,0,0,1,234.86,243.47Z"/><path class="cls-6" d="M229.78,141.85l2.86,3.76c2.31,1.59,3,4.2,4.08,6.54,9.63,21.73.54,49.15-20.17,60.91-1.69,1-3.35,2.2-5.49,2l-5,1.64-4-3.89q-3.39-4.07-6.8-8.12c6.77-3.35,13.5-6.68,18.78-12.37,9.82-10.57,14.18-23,13.45-37.35,0-.87,0-1.94-1-2.2s-1.47.79-2.06,1.38c-6.61,6.58-13.16,13.21-19.8,19.76-3.44,3.38-5.49,3.65-8.68,1.44C207.09,164,218.19,152.68,229.78,141.85Z"/><path class="cls-6" d="M153.32,199.47c5.17,2.23,10,5.33,15.69,6.27s11.66,1.95,17.57.49a106.57,106.57,0,0,1-9.28,10.52C167.52,213.47,159.25,208.1,153.32,199.47Z"/><path class="cls-2" d="M220.06,287.73a173.54,173.54,0,0,0,29-11.36c1.59,1.28.26,2.62-.19,3.66-4.29,9.84-11.85,16.7-20.7,22.37-1.89,1.21-2.6.61-3.41-1.33C223,296.7,221.45,292.24,220.06,287.73Z"/><path class="cls-1" d="M234.86,243.47c6.21-4.93,12.84-9.32,18.23-15.27,11.84-13.06,19.28-28.14,21.61-45.68q4.43-33.26-15-60.59a11.39,11.39,0,0,1-.79-1.65c6.76-7.84,14.53-14.69,21.67-22.15,1.2-1.25,1.78-.7,2.46.54,7.15,12.94,12.43,26.56,14.79,41.2a110.38,110.38,0,0,1,1.54,22.24,120.49,120.49,0,0,1-36.77,83.35c-3.61,3.56-7.72,6.6-11.64,9.84-2.65,2.19-4,1.2-5.31-.82-2.31-3.61-6.07-5.9-8.28-9.58A3.15,3.15,0,0,0,234.86,243.47Z"/><path class="cls-11" d="M242.47,260.8c-7.85,5.3-15.79,8.43-23.75,11.51-1.63.64-2.06.1-2.53-1.47-.82-2.71-.55-5.42-.59-8.14,0-2.1,1.52-1.9,2.89-1.9Z"/><path class="cls-2" d="M211.06,215.1c9.14-4.7,16.92-10.93,22-20,8.23-14.73,8.69-29.77,1.63-45.07-.68-1.46-1.38-2.91-2.07-4.37,7.05-6,13.13-12.92,19.76-19.31,3-2.93,3.37-2.92,4.84,1,4.52,11.85,7.12,24.11,6.14,36.81-1.41,18.28-7.72,34.68-19.65,48.89a94.73,94.73,0,0,1-17.34,15.67c-.86.63-1.85,1.75-2.94.69C219,224.89,214.49,220.45,211.06,215.1Z"/></svg>