<svg id="Layer_1" data-name="Layer 1" xmlns="http://www.w3.org/2000/svg" viewBox="0 0 397.71 390.64"><defs><style>.cls-1{fill:#476389;}.cls-2{fill:#f47b21;}.cls-3{fill:#fcb43b;}.cls-4{fill:#fbcfcf;}.cls-5{fill:#f7aaaa;}</style></defs><path class="cls-1" d="M6.93,277.26c2.13-5.65,6.32-9.18,11.57-11.87A111.92,111.92,0,0,0,32,257.58c8.28-5.8,18.63-5.27,24.74,5.34C62.46,273,68.12,283,73.89,293q16,27.75,32.18,55.43c.64,1.21,1.28,2.41,1.91,3.63,4,7.75,2,15.83-5.54,20.4q-10.2,6.21-20.69,11.94c-7.64,4.19-16,2-20.39-5.47Q35,333.63,8.85,288.16c-.65-1.13-.62-2.65-1.92-3.42Z"/><path class="cls-2" d="M204.47,3.39c2,.74,4.1,1.46,6.13,2.23,14.87,5.59,24.09,21.62,21.35,37.09C229,59.14,215,71.11,198.78,71c-.1,0-.21-.12-.32-.18q0-33.7,0-67.41Z"/><path class="cls-3" d="M198.48,3.39q0,33.71,0,67.41a33.51,33.51,0,0,1-33.52-29.08A33.85,33.85,0,0,1,189.18,4.77c1.14-.31,2.51-.21,3.32-1.38Z"/><path class="cls-4" d="M106.07,348.46Q90,320.74,73.89,293C68.12,283,62.46,273,56.76,262.92c1.78-3.11,5.18-4.12,7.94-5.85,19.65-12.34,39.51-24.35,59-36.86,6.53-4.18,12.8-8.51,20.61-9.81a24.25,24.25,0,0,1,3.67-.47c13.68,0,27.37-.06,41.06,0a18.47,18.47,0,0,1,10.21,2.87c-1.07.82-.8,2-.8,3.1q0,26.15,0,52.29-8,0-16,.08c-6.83.05-11.55,4.44-11.7,10.86-.14,6.1,5.16,11.43,11.68,11.56,5.34.11,10.69.05,16,.07l.06,51.44c-25.64,0-51.28.15-76.93.06-4.77,0-9.12.22-12.46,4.21C108.43,347.38,107.12,347.81,106.07,348.46Z"/><path class="cls-5" d="M198.58,342.21l-.06-51.44c25.56,0,51.13.05,76.69-.12,15.73-.1,28.24-6.43,36.17-20.39,6.44-11.33,6.86-23.14,1.82-35.13-.65-1.55-1.3-2.79.28-4.32,11.93-11.51,23-23.87,35.49-34.82,9.61-8.45,25.13-7.26,34.19,2.23s9.45,25.1.42,34.24q-48.78,49.35-97.84,98.42c-7.6,7.59-17.33,11.26-28.05,11.36C238,342.43,218.29,342.24,198.58,342.21Z"/><path class="cls-2" d="M198.56,93.49c10.19-.13,20.5-1.4,30.51.81,15.15,3.34,24.89,13,29,28,3.23,11.71,5.92,23.57,8.78,35.38,1.44,5.95-2.66,11.78-8.57,11.81-19.92.08-39.85,0-59.77-.07Q198.54,131.44,198.56,93.49Z"/><path class="cls-3" d="M198.56,93.49q0,38-.05,75.9c-19.82,0-39.64.16-59.45.06a9.23,9.23,0,0,1-8.95-11.57c2.94-12.22,5.85-24.45,9.19-36.56A37.61,37.61,0,0,1,175,93.45C182.85,93.22,190.71,93.46,198.56,93.49Z"/><path class="cls-5" d="M198.54,268.2q0-26.14,0-52.29c0-1.09-.27-2.28.8-3.1,3.45,1.62,5.34,4.81,7.46,7.68,6.73,9.06,15.54,13.51,26.9,13.36,14.46-.2,28.92-.09,43.38,0a17.07,17.07,0,0,1,17.23,16.92,17.31,17.31,0,0,1-17.19,17.5C250.9,268.31,224.72,268.22,198.54,268.2Z"/></svg>